<ttFont>
<head>
    <!-- Most of this table will be recalculated by the compiler -->
    <tableVersion value="1.0"/>
    <fontRevision value="1.0"/>
    <checkSumAdjustment value="0xd051b9dc"/>
    <magicNumber value="0x5f0f3cf5"/>
    <flags value="00000000 00000011"/>
    <unitsPerEm value="2048"/>
    <created value="Thu Aug 15 19:17:02 2019"/>
    <modified value="Fri Aug 16 02:18:56 2019"/>
    <xMin value="-420"/>
    <yMin value="-549"/>
    <xMax value="3153"/>
    <yMax value="1968"/>
<macStyle value="00000000 00000010"/>
    <lowestRecPPEM value="3"/>
    <fontDirectionHint value="2"/>
    <indexToLocFormat value="0"/>
    <glyphDataFormat value="0"/>
  </head>
          <CharString index="0">
            144 120 100 183 return
          </CharString>
          <CharString index="1">
            59 vhcurveto
            -2 -5 -14 -75 -4 vvcurveto
            -133 -25 52 -62 106 hhcurveto
            return
          </CharString>
          <CharString index="2">
            rmoveto
            -218 108 -140 156 return
          </CharString>
          <CharString index="3">
            rlinecurve
            -236 -1108 -20 return
          </CharString>
          <CharString index="4">
            rmoveto
            207 callsubr
            16 -143 -30 -47 -130 -17 rlinecurve
            -8 -39 550 0 8 39 -86 14 -33 30 -22 162 rlinecurve
            return
          </CharString>
          <CharString index="5">
            -93 -23 -20 -119 -16 rlinecurve
            -8 -39 return
          </CharString>
          <CharString index="6">
            112 -16 15 -20 -20 -93 return
          </CharString>
          <CharString index="7">
            143 callsubr
            endchar
          </CharString>
          <CharString index="8">
            95 104 45 64 46 hvcurveto
            8 41 rlineto
            -26 -29 return
          </CharString>
          <CharString index="9">
            51 -14 10 -19 -12 -53 -102 -483 rcurveline
            return
          </CharString>
          <CharString index="10">
            31 callsubr
            endchar
          </CharString>
          <CharString index="11">
            rmoveto
            333 203 269 308 254 107 callsubr
            65 callsubr
            hvcurveto
            3 53 rmoveto
            -107 -59 96 194 2 hvcurveto
            36 callsubr
            endchar
          </CharString>
          <CharString index="12">
            -212 -45 77 -104 callgsubr
            107 193 70 hvcurveto
            -1 -4 -19 -93 -4 vvcurveto
            -133 -24 51 -62 107 hhcurveto
            return
          </CharString>
          <CharString index="13">
            50 callsubr
            endchar
          </CharString>
          <CharString index="14">
            50 -14 9 -19 -11 -53 -127 -599 rcurveline
            -155 -34 return
          </CharString>
          <CharString index="15">
            1045 -29 callsubr
            endchar
          </CharString>
          <CharString index="16">
            rmoveto
            143 126 67 90 63 hvcurveto
            8 43 rlineto
            -57 -53 -28 callsubr
            33 callsubr
            endchar
          </CharString>
          <CharString index="17">
            rmoveto
            -370 -44 -8 -38 57 -14 rlineto
            return
          </CharString>
          <CharString index="18">
            rmoveto
            -992 hlineto
            -8 -39 return
          </CharString>
          <CharString index="19">
            rmoveto
            335 202 222 343 77 hvcurveto
            143 629 40 175 24 38 125 20 rlinecurve
            8 39 -369 0 -8 -39 rlineto
            128 -21 10 -38 -34 -174 -125 -619 rcurveline
            -308 -61 -181 -174 -225 hhcurveto
            -230 -149 151 364 1 callgsubr
            endchar
          </CharString>
          <CharString index="20">
            rmoveto
            235 1108 20 93 return
          </CharString>
          <CharString index="21">
            2 callsubr
            endchar
          </CharString>
          <CharString index="22">
            24 20 118 16 rlinecurve
            9 39 -523 0 -8 -39 return
          </CharString>
          <CharString index="23">
            -1 callsubr
            endchar
          </CharString>
          <CharString index="24">
            -12 callsubr
            41 callsubr
            endchar
          </CharString>
          <CharString index="25">
            rmoveto
            491 hlineto
            26 124 rlineto
            -491 hlineto
            endchar
          </CharString>
          <CharString index="26">
            rmoveto
            -371 -44 -8 -38 58 -14 rlineto
            return
          </CharString>
          <CharString index="27">
            1810 rmoveto
            -198 -276 44 0 return
          </CharString>
          <CharString index="28">
            64 callsubr
            51 67 callsubr
            return
          </CharString>
          <CharString index="29">
            1567 rmoveto
            61 49 48 59 57 return
          </CharString>
          <CharString index="30">
            1094 rmoveto
            267 201 return
          </CharString>
          <CharString index="31">
            100 394 rlineto
            -35 hlineto
            return
          </CharString>
          <CharString index="32">
            rmoveto
            -328 -43 -7 -39 52 -11 51 -13 13 -16 7 -56 rlinecurve
            100 -887 -122 -121 -190 -156 -131 -96 rlinecurve
            -10 231 vlineto
            87 130 85 113 89 114 rrcurveto
            55 68 58 74 50 66 277 370 125 242 -1 150 -1 79 -54 51 -70 -1 -69 0 -55 -51 1 -70 1 -67 53 -51 66 1 18 0 16 3 14 6 -39 -162 -117 -201 -193 -263 rrcurveto
            endchar
          </CharString>
          <CharString index="33">
            1534 rmoveto
            112 callgsubr
            return
          </CharString>
          <CharString index="34">
            -172 -806 234 0 return
          </CharString>
          <CharString index="35">
            rmoveto
            185 -529 -107 -504 -19 -87 -24 -23 -138 -16 rlinecurve
            -9 -39 566 0 9 39 -134 17 -16 21 19 160 callsubr
            -368 0 -8 -39 126 -17 7 -42 -125 -69 callgsubr
            20 44 126 17 rlinecurve
            8 39 -64 callgsubr
            endchar
          </CharString>
          <CharString index="36">
            1156 rmoveto
            72 57 56 70 67 return
          </CharString>
          <CharString index="37">
            1810 rmoveto
            -197 -276 return
          </CharString>
          <CharString index="38">
            rmoveto
            67 53 51 63 -1 hvcurveto
            61 return
          </CharString>
          <CharString index="39">
            390 270 rlineto
            6 vlineto
            return
          </CharString>
          <CharString index="40">
            44 0 -35 callsubr
            return
          </CharString>
          <CharString index="41">
            -364 -44 -9 -24 callgsubr
            return
          </CharString>
          <CharString index="42">
            rmoveto
            283 103 238 -103 9 43 -201 59 callsubr
            return
          </CharString>
          <CharString index="43">
            rmoveto
            134 90 66 101 102 -76 58 -84 return
          </CharString>
          <CharString index="44">
            21 callsubr
            58 return
          </CharString>
          <CharString index="45">
            1452 rmoveto
            -236 -7 hlineto
            285 -353 rlineto
            44 hlineto
            return
          </CharString>
          <CharString index="46">
            1198 rmoveto
            528 hlineto
            29 137 rlineto
            -528 hlineto
            return
          </CharString>
          <CharString index="47">
            -284 37 113 callsubr
            166 callsubr
            return
          </CharString>
          <CharString index="48">
            127 597 rlineto
            178 142 callsubr
            return
          </CharString>
          <CharString index="49">
            56 46 45 56 54 -41 43 -54 -56 -46 -45 -57 return
          </CharString>
          <CharString index="50">
            696 1480 139 callsubr
            return
          </CharString>
          <CharString index="51">
            8 41 rlineto
            -26 -28 -45 -14 -34 hhcurveto
            return
          </CharString>
          <CharString index="52">
            1828 rmoveto
            -233 -150 return
          </CharString>
          <CharString index="53">
            1474 rmoveto
            -267 -201 return
          </CharString>
          <CharString index="54">
            42 callgsubr
            233 0 return
          </CharString>
          <CharString index="55">
            339 rmoveto
            -218 107 -140 return
          </CharString>
          <CharString index="56">
            126 0 236 274 rlineto
            return
          </CharString>
          <CharString index="57">
            rmoveto
            50 46 33 45 9 hvcurveto
            43 return
          </CharString>
          <CharString index="58">
            -1 hvcurveto
            -54 42 -42 54 vhcurveto
            return
          </CharString>
          <CharString index="59">
            rmoveto
            251 229 120 198 137 -84 92 -202 40 hvcurveto
            -166 33 -90 19 -29 31 -1 38 rlinecurve
            38 32 35 74 16 vhcurveto
            -7 31 35 -3 37 hhcurveto
            266 -2 158 164 198 vvcurveto
            83 -31 77 -63 56 vhcurveto
            235 -21 16 75 -310 -14 rlineto
            30 -56 -72 18 -88 hhcurveto
            -266 -158 -160 -199 -127 75 -113 147 -44 hvcurveto
            -168 -29 -75 -73 1 -92 rrcurveto
            -75 50 -60 101 -31 vhcurveto
            -206 -28 -121 -78 -111 vvcurveto
            -143 190 -88 258 vhcurveto
            -28 1041 rmoveto
            176 75 190 127 95 48 -86 -124 -178 -74 -189 -128 -95 -48 87 124 vhcurveto
            -237 -795 rmoveto
            93 63 65 127 32 vhcurveto
            1 2 0 1 hhcurveto
            161 -32 rlineto
            150 -29 50 -54 -80 vvcurveto
            -113 -120 -78 -163 -161 -111 83 113 vhcurveto
            endchar
          </CharString>
          <CharString index="60">
            rmoveto
            460 232 371 333 205 128 -124 -288 8 vhcurveto
            35 -2 62 337 rlineto
            69 72 callgsubr
            return
          </CharString>
          <CharString index="61">
            1452 rmoveto
            -216 -5 hlineto
            275 -355 rlineto
            48 hlineto
            240 360 rmoveto
            return
          </CharString>
          <CharString index="62">
            86 249 -86 7 36 -213 172 -35 0 -286 -172 rlineto
            return
          </CharString>
          <CharString index="63">
            1044 hmoveto
            38 callsubr
            85 callsubr
            return
          </CharString>
          <CharString index="64">
            rmoveto
            162 129 76 120 18 hvcurveto
            -44 hlineto
            -52 return
          </CharString>
          <CharString index="65">
            705 1444 rmoveto
            217 callsubr
            return
          </CharString>
          <CharString index="66">
            61 50 48 60 57 -45 44 -58 hvcurveto
            endchar
          </CharString>
          <CharString index="67">
            1163 rmoveto
            -60 callgsubr
            return
          </CharString>
          <CharString index="68">
            587 988 -90 callsubr
            return
          </CharString>
          <CharString index="69">
            16 rlinecurve
            8 39 -520 0 -8 -39 return
          </CharString>
          <CharString index="70">
            1150 -21 callgsubr
            return
          </CharString>
          <CharString index="71">
            -114 hvcurveto
            -3 -3 0 -3 hhcurveto
            return
          </CharString>
          <CharString index="72">
            389 270 rlineto
            6 vlineto
            return
          </CharString>
          <CharString index="73">
            302 hmoveto
            57 45 45 56 return
          </CharString>
          <CharString index="74">
            hvcurveto
            -51 -11 33 -39 52 hhcurveto
            return
          </CharString>
          <CharString index="75">
            hvcurveto
            -54 -1 42 -42 54 hhcurveto
            return
          </CharString>
          <CharString index="76">
            rmoveto
            218 1026 20 94 return
          </CharString>
          <CharString index="77">
            rmoveto
            -434 -3 318 -238 338 hhcurveto
            170 183 47 81 106 hvcurveto
            88 407 18 85 22 25 109 15 rlinecurve
            8 39 -494 0 -9 -39 rlineto
            124 -17 11 -22 -18 -86 -90 -426 rcurveline
            -35 -42 -80 -17 -81 hhcurveto
            -237 -164 209 333 460 232 371 335 208 129 -124 -288 8 hvcurveto
            35 -2 62 337 rlineto
            69 73 callgsubr
            endchar
          </CharString>
          <CharString index="78">
            0 -76 callsubr
            -109 -261 -101 -67 -287 -48 callgsubr
            62 callgsubr
            -60 -150 -42 -43 -128 -5 rrcurveto
            -220 -4 135 636 197 -9 253 -11 56 -54 12 -238 rlinecurve
            35 hlineto
            return
          </CharString>
          <CharString index="79">
            -86 -39 -84 hhcurveto
            -142 -103 108 222 hvcurveto
            6 0 7 6 vvcurveto
            58 17 rlineto
            339 99 159 94 153 vvcurveto
            122 -108 76 -168 -289 -231 -267 -340 return
          </CharString>
          <CharString index="80">
            rmoveto
            49 -47 111 149 1 1 58 -39 rlineto
            -87 132 68 -23 90 hhcurveto
            128 124 82 171 83 hvcurveto
            -28 23 rlineto
            -81 223 callsubr
            endchar
          </CharString>
          <CharString index="81">
            1279 1517 1444 rmoveto
            -1143 hlineto
            43 callsubr
            103 callsubr
            110 callsubr
            100 callsubr
            return
          </CharString>
          <CharString index="82">
            1130 rmoveto
            182 109 133 200 8 hvcurveto
            -42 hlineto
            -110 -21 -82 -65 -147 hhcurveto
            -114 -78 60 84 11 return
          </CharString>
          <CharString index="83">
            -67 -56 -26 -46 -36 hvcurveto
            -8 -34 rlineto
            5 172 callsubr
            -24 hvcurveto
            -8 -36 rlineto
            -49 32 63 -37 78 hhcurveto
            endchar
          </CharString>
          <CharString index="84">
            rmoveto
            247 182 163 -182 43 0 -119 325 -127 0 -254 -325 rlineto
            endchar
          </CharString>
          <CharString index="85">
            rmoveto
            285 86 249 -86 7 36 -213 172 -35 0 -285 -172 rlineto
            return
          </CharString>
          <CharString index="86">
            174 -201 46 0 -125 360 -137 0 -275 -360 rlineto
            return
          </CharString>
          <CharString index="87">
            rmoveto
            -126 -365 58 0 302 359 rlineto
            6 vlineto
            endchar
          </CharString>
          <CharString index="88">
            1614 rmoveto
            476 hlineto
            25 118 rlineto
            -476 hlineto
            return
          </CharString>
          <CharString index="89">
            rmoveto
            -329 -87 callgsubr
            188 callsubr
            endchar
          </CharString>
          <CharString index="90">
            -44 45 -59 -61 -49 -47 -61 -57 45 -44 58 hvcurveto
            return
          </CharString>
          <CharString index="91">
            1550 825 32 callsubr
            return
          </CharString>
          <CharString index="92">
            -174 201 -46 0 125 -360 return
          </CharString>
          <CharString index="93">
            -164 150 -44 0 125 -274 return
          </CharString>
          <CharString index="94">
            -54 callgsubr
            124 callsubr
          </CharString>
          <CharString index="95">
            54 -67 116 hhcurveto
            97 103 45 64 return
          </CharString>
          <CharString index="96">
            1444 -89 callsubr
            return
          </CharString>
          <CharString index="97">
            -10 32 -33 50 hhcurveto
            304 hmoveto
            return
          </CharString>
          <CharString index="98">
            -37 rlineto
            2 4 18 2 9 hhcurveto
            return
          </CharString>
          <CharString index="99">
            -162 -81 callsubr
            return
          </CharString>
          <CharString index="100">
            168 rmoveto
            116 545 return
          </CharString>
          <CharString index="101">
            10 -32 33 -49 hhcurveto
            -7 hlineto
            return
          </CharString>
          <CharString index="102">
            rmoveto
            118 555 122 -1 282 -722 328 0 8 37 -59 22 -38 41 -83 210 rlinecurve
            -231 595 323 290 151 135 77 54 106 21 rlinecurve
            8 39 -405 0 -8 -39 131 -16 -4 -53 -119 -116 rlinecurve
            -457 -447 -122 -2 108 505 19 93 24 21 112 15 rlinecurve
            8 39 -516 0 -9 112 callsubr
            -19 -93 -23 -20 -118 -16 101 callgsubr
            endchar
          </CharString>
          <CharString index="103">
            634 0 -117 -545 -19 -93 -24 -21 -115 -15 20 callsubr
            -111 16 -16 21 20 93 rlinecurve
            235 1106 20 93 25 21 118 16 rlinecurve
            8 39 -521 0 -8 -39 109 -15 15 -20 -20 -94 rlinecurve
            -109 -511 -633 0 108 58 callgsubr
            112 -16 15 -21 -19 -93 rlinecurve
            -236 -1106 -20 -92 -24 -22 -119 -16 rlinecurve
            -8 -39 return
          </CharString>
          <CharString index="104">
            rmoveto
            119 -1206 125 0 605 1182 101 -1182 128 0 610 1175 101 193 42 28 102 16 rlinecurve
            8 39 -376 0 -8 -39 127 -18 12 -39 -86 -177 rlinecurve
            -439 -903 -62 928 -12 162 18 29 120 18 rlinecurve
            8 39 -516 0 -8 -39 216 callsubr
            endchar
          </CharString>
          <CharString index="105">
            rmoveto
            91 72 63 125 26 hvcurveto
            -43 hlineto
            -57 -13 -33 -20 -45 hhcurveto
            -27 -28 7 14 -36 hvcurveto
            -29 12 rlineto
            15 -38 -39 11 -46 hhcurveto
            -89 -74 -63 -125 return
          </CharString>
          <CharString index="106">
            112 -14 14 -22 -19 -93 rlinecurve
            -237 -1108 -19 -102 callsubr
            523 0 8 39 -113 16 -14 20 20 93 rlinecurve
            return
          </CharString>
          <CharString index="107">
            rmoveto
            141 130 67 90 62 hvcurveto
            8 43 rlineto
            137 callsubr
            -271 171 -139 202 hvcurveto
            endchar
          </CharString>
          <CharString index="108">
            rmoveto
            -371 -44 -9 -38 59 -14 49 -14 10 -19 -11 -53 rlinecurve
            11 callsubr
            -180 -84 rlinecurve
            return
          </CharString>
          <CharString index="109">
            -43 -14 -34 hhcurveto
            -47 -22 30 66 14 hvcurveto
            171 797 150 callsubr
            return
          </CharString>
          <CharString index="110">
            rmoveto
            -362 121 callsubr
            -73 callsubr
            145 callsubr
            endchar
          </CharString>
          <CharString index="111">
            rmoveto
            51 50 39 51 11 hvcurveto
            52 11 -32 40 -52 hhcurveto
            -7 hlineto
            -52 -50 -40 -52 return
          </CharString>
          <CharString index="112">
            629 477 168 -87 callsubr
            -85 callsubr
            return
          </CharString>
          <CharString index="113">
            -442 -3 304 -230 340 hhcurveto
            156 callsubr
          </CharString>
          <CharString index="114">
            -48 46 -65 -66 -54 -50 -64 vhcurveto
            -59 1 49 -48 64 hhcurveto
            endchar
          </CharString>
          <CharString index="115">
            89 callsubr
            242 -24 rmoveto
            149 callsubr
            return
          </CharString>
          <CharString index="116">
            -207 -5 hlineto
            207 -355 rlineto
            45 hlineto
            return
          </CharString>
          <CharString index="117">
            49 39 51 11 hvcurveto
            52 11 -32 40 -52 hhcurveto
            return
          </CharString>
          <CharString index="118">
            -161 -760 -57 -266 -57 -140 return
          </CharString>
          <CharString index="119">
            62 49 48 60 57 -45 44 -58 hvcurveto
            endchar
          </CharString>
          <CharString index="120">
            -68 -55 -26 -46 -36 hvcurveto
            -8 -34 rlineto
            5 return
          </CharString>
          <CharString index="121">
            -450 rmoveto
            18 callsubr
            return
          </CharString>
          <CharString index="122">
            -126 0 -239 -275 rlineto
            return
          </CharString>
          <CharString index="123">
            -126 0 -238 -275 rlineto
            return
          </CharString>
          <CharString index="124">
            137 0 275 360 rlineto
            return
          </CharString>
          <CharString index="125">
            135 86 73 101 102 -78 65 return
          </CharString>
          <CharString index="126">
            -35 316 -30 callgsubr
          </CharString>
          <CharString index="127">
            rlinecurve
            -8 -39 520 0 8 39 return
          </CharString>
          <CharString index="128">
            rmoveto
            -62 -48 -48 -59 -57 44 -45 return
          </CharString>
          <CharString index="129">
            50 45 33 45 10 hvcurveto
            43 return
          </CharString>
          <CharString index="130">
            -49 -46 -33 -43 -10 hvcurveto
            -45 return
          </CharString>
          <CharString index="131">
            rmoveto
            -151 -187 -51 -31 -104 -16 rrcurveto
            -8 -39 387 0 9 39 -133 22 0 36 122 164 rlinecurve
            296 392 166 -444 40 -104 -11 -42 -127 -23 rlinecurve
            -8 -40 541 0 8 40 -80 24 -33 25 -49 133 rlinecurve
            -202 542 338 411 149 182 50 32 104 16 rlinecurve
            8 39 -387 0 -8 -39 132 -22 2 -36 -124 -164 rlinecurve
            -282 -373 -158 425 -43 114 16 36 124 20 rlinecurve
            9 39 -546 0 -8 -39 rlineto
            88 -21 30 -29 49 -133 195 -522 rcurveline
            endchar
          </CharString>
          <CharString index="132">
            rmoveto
            -448 -96 253 -180 304 hhcurveto
            336 203 222 343 76 hvcurveto
            196 879 rlineto
            -3 17 21 -2 22 hhcurveto
            141 1 101 69 119 vvcurveto
            80 -50 70 -70 32 vhcurveto
            -37 hlineto
            9 -16 5 -30 -29 vvcurveto
            -152 -113 -117 -200 vhcurveto
            -66 hlineto
            -8 -39 rlineto
            127 -21 11 -38 -35 -165 -129 -629 rcurveline
            -308 -62 -181 -173 -225 hhcurveto
            -229 -149 151 364 77 hvcurveto
            146 684 21 96 25 22 126 17 rlinecurve
            8 39 -532 0 -8 -39 110 -17 17 -21 -21 -97 rlinecurve
            endchar
          </CharString>
          <CharString index="133">
            304 hlineto
            7 37 rlineto
            -64 21 -35 46 -76 206 -140 386 rcurveline
            216 55 155 123 210 vvcurveto
            226 -183 134 -340 vhcurveto
            -495 hlineto
            -8 -39 111 -15 16 -20 -20 -93 rlinecurve
            -236 -1110 -20 -93 -23 -20 -119 -15 rlinecurve
            -8 -39 517 0 9 39 rlineto
            -108 15 -13 20 20 94 104 493 rcurveline
            114 hlineto
            26 26 0 2 26 hvcurveto
            345 423 rmoveto
            -225 -157 -141 -272 -10 vhcurveto
            -99 -4 148 692 92 -3 rlineto
            183 -7 105 -118 -184 vvcurveto
            return
          </CharString>
          <CharString index="134">
            rmoveto
            -389 257 -258 376 450 319 379 455 280 -136 207 -209 98 vhcurveto
            -6 38 42 -4 48 hhcurveto
            176 146 70 138 84 -52 73 -73 33 hvcurveto
            -37 hlineto
            9 -16 5 -30 -30 vvcurveto
            -149 -110 -123 -187 vhcurveto
            -101 -66 23 -126 hhcurveto
            -450 -319 -380 -455 hvcurveto
            272 -101 rmoveto
            413 204 466 314 -95 callgsubr
            -453 -222 -426 -297 -206 -133 168 322 vhcurveto
            endchar
          </CharString>
          <CharString index="135">
            8 39 rlineto
            -130 15 -17 27 18 88 89 414 rcurveline
            130 hlineto
            366 326 142 321 226 -166 172 -377 hvcurveto
            -486 hlineto
            -8 -39 rlineto
            112 -15 16 -22 -20 -93 -236 -1106 rcurveline
            -21 -92 -23 -23 -119 -15 -8 -39 rcurveline
            687 1398 rmoveto
            84 -3 rlineto
            201 -8 100 -131 -187 vvcurveto
            -256 -168 -170 -286 -11 vhcurveto
            -95 -3 rlineto
            endchar
          </CharString>
          <CharString index="136">
            rmoveto
            -387 hlineto
            -8 -39 104 -18 20 -39 -29 -117 rlinecurve
            -235 -961 -43 -171 -30 -40 -124 -20 rlinecurve
            -8 -39 372 0 8 39 -127 20 -11 37 39 175 rlinecurve
            219 995 194 -1266 108 0 153 290 554 986 -201 -1111 -16 -89 -24 -20 -120 -17 rlinecurve
            -8 -39 521 0 8 39 -14 callgsubr
            endchar
          </CharString>
          <CharString index="137">
            -114 -266 -118 -60 -312 -13 rrcurveto
            -254 -9 1015 1361 7 37 -980 0 -92 -358 rlineto
            36 hlineto
            103 226 89 62 268 12 rrcurveto
            273 12 -1014 -1361 -7 -37 rlineto
            return
          </CharString>
          <CharString index="138">
            97 102 45 64 47 hvcurveto
            8 41 rlineto
            -26 -29 57 callsubr
            169 786 -124 0 -114 -99 rlineto
            57 -22 -69 60 -132 hhcurveto
            90 callgsubr
            -9 callgsubr
            return
          </CharString>
          <CharString index="139">
            rmoveto
            378 -1 -284 241 -444 hhcurveto
            -461 -98 callgsubr
            -105 callgsubr
            -119 -16 -8 -39 rcurveline
            484 hlineto
            566 447 325 500 hvcurveto
            return
          </CharString>
          <CharString index="140">
            -265 168 -142 200 vhcurveto
            144 964 rmoveto
            69 28 -42 -71 -145 -119 -129 -195 -63 hvcurveto
            -53 -17 rlineto
            239 16 101 228 153 hhcurveto
            return
          </CharString>
          <CharString index="141">
            1828 rmoveto
            -34 callgsubr
            124 -274 126 0 237 274 rlineto
            return
          </CharString>
          <CharString index="142">
            rmoveto
            -371 -43 -8 -38 58 -14 rlineto
            50 -15 10 -18 -12 -53 -102 -484 rcurveline
            -211 -44 76 -104 callgsubr
            181 callsubr
            endchar
          </CharString>
          <CharString index="143">
            272 1 100 347 191 hhcurveto
            108 58 -96 -195 -1 hvcurveto
            -271 -2 -99 -347 -192 hhcurveto
            return
          </CharString>
          <CharString index="144">
            -57 -32 55 136 hvcurveto
            243 1 79 245 110 hhcurveto
            57 33 -58 -135 -1 hvcurveto
            -251 return
          </CharString>
          <CharString index="145">
            108 416 rlineto
            -37 hlineto
            -112 -264 -114 -87 -243 -12 rrcurveto
            -192 -7 return
          </CharString>
          <CharString index="146">
            -19 -47 hhcurveto
            -28 -28 7 12 -38 hvcurveto
            -30 10 rlineto
            13 -39 -41 9 -47 hhcurveto
            -92 return
          </CharString>
          <CharString index="147">
            -31 -37 hhcurveto
            -26 -21 12 23 -30 hvcurveto
            -26 20 rlineto
            27 -36 -39 callgsubr
            return
          </CharString>
          <CharString index="148">
            46 hvcurveto
            9 41 rlineto
            -26 -29 -45 -14 -33 hhcurveto
            -46 -22 30 66 14 hvcurveto
            return
          </CharString>
          <CharString index="149">
            8 hvcurveto
            -41 hlineto
            -13 -31 -7 -36 -36 vvcurveto
            -130 96 -100 147 vhcurveto
            return
          </CharString>
          <CharString index="150">
            -89 -358 rlineto
            37 hlineto
            91 221 87 71 260 17 rrcurveto
            49 3 return
          </CharString>
          <CharString index="151">
            -201 47 0 -126 360 -136 0 -276 -360 rlineto
            return
          </CharString>
          <CharString index="152">
            1582 rmoveto
            77 1 58 54 21 173 rrcurveto
            -39 hlineto
            -80 return
          </CharString>
          <CharString index="153">
            1573 rmoveto
            56 45 45 56 1 hvcurveto
            54 -41 43 -54 return
          </CharString>
          <CharString index="154">
            1448 rmoveto
            502 -92 9 41 -480 198 rlineto
            return
          </CharString>
          <CharString index="155">
            68 53 53 66 63 -48 49 -65 -68 -86 callgsubr
            return
          </CharString>
          <CharString index="156">
            hvcurveto
            -8 -88 callgsubr
            68 37 -32 -52 -58 -55 -59 return
          </CharString>
          <CharString index="157">
            -714 321 rmoveto
            339 641 73 -641 rlineto
            return
          </CharString>
          <CharString index="158">
            1272 rmoveto
            -109 106 -62 118 158 return
          </CharString>
          <CharString index="159">
            -10 hvcurveto
            -51 -11 32 -39 52 -38 callgsubr
            return
          </CharString>
          <CharString index="160">
            rmoveto
            65 callsubr
            191 callsubr
            endchar
          </CharString>
          <CharString index="161">
            59 61 49 48 60 57 -45 44 -58 hvcurveto
            endchar
          </CharString>
          <CharString index="162">
            52 -69 -72 -58 -56 -71 -66 52 -52 69 hvcurveto
            return
          </CharString>
          <CharString index="163">
            647 426 -16 84 callsubr
            return
          </CharString>
          <CharString index="164">
            -44 -14 -34 hhcurveto
            -46 -22 30 66 14 hvcurveto
            return
          </CharString>
          <CharString index="165">
            hlineto
            -61 -18 -98 -40 -123 hhcurveto
            -122 return
          </CharString>
          <CharString index="166">
            203 -34 0 -286 -203 rlineto
            return
          </CharString>
          <CharString index="167">
            147 -564 -197 -9 -42 rlineto
            return
          </CharString>
          <CharString index="168">
            116 545 -4 callsubr
            return
          </CharString>
          <CharString index="169">
            -57 -46 -45 -57 -54 41 -42 54 hvcurveto
            return
          </CharString>
          <CharString index="170">
            1808 rmoveto
            -214 -5 hlineto
            return
          </CharString>
          <CharString index="171">
            1453 rmoveto
            -230 -360 return
          </CharString>
          <CharString index="172">
            -254 160 -184 242 return
          </CharString>
          <CharString index="173">
            64 79 vvcurveto
            70 -60 50 -89 vhcurveto
            return
          </CharString>
          <CharString index="174">
            0 437 353 rlineto
            7 vlineto
            return
          </CharString>
          <CharString index="175">
            -25 42 -33 41 -22 52 1 rlinecurve
            return
          </CharString>
          <CharString index="176">
            -51 52 -70 -99 callgsubr
            return
          </CharString>
          <CharString index="177">
            -54 42 -42 54 vhcurveto
            302 hmoveto
            return
          </CharString>
          <CharString index="178">
            -80 159 -173 hhcurveto
            -234 return
          </CharString>
          <CharString index="179">
            -89 -47 hvcurveto
            43 hlineto
            149 44 return
          </CharString>
          <CharString index="180">
            hvcurveto
            -43 hlineto
            -141 -38 92 -90 return
          </CharString>
          <CharString index="181">
            rmoveto
            -65 46 -49 68 79 56 51 188 103 vhcurveto
            86 152 48 -156 rlineto
            -164 52 56 -69 113 hhcurveto
            94 74 47 64 35 hvcurveto
            9 41 rlineto
            -23 -21 -32 -15 -32 hhcurveto
            -50 -39 34 123 -38 hvcurveto
            -92 296 107 178 38 64 30 45 25 31 rlinecurve
            -58 5 48 -46 60 hhcurveto
            62 51 51 65 65 -47 49 -68 -79 -57 -51 -188 -102 hvcurveto
            -87 -158 -121 389 -311 -42 -7 -39 55 -10 52 -12 15 -17 18 -58 rlinecurve
            121 -388 -105 -173 -38 -64 -29 -45 -26 -31 rlinecurve
            59 -5 -47 45 -60 hhcurveto
            -63 -50 -51 -65 hvcurveto
            endchar
          </CharString>
          <CharString index="182">
            rmoveto
            278 247 159 276 155 -73 120 -170 120 hvcurveto
            -111 83 rlineto
            -130 90 -48 80 103 vvcurveto
            148 107 97 167 184 111 -135 -258 9 vhcurveto
            35 hlineto
            52 336 rlineto
            62 -76 -141 52 -186 hhcurveto
            -301 -201 -162 -250 -153 82 -115 161 -113 hvcurveto
            111 -83 rlineto
            131 -92 47 -87 -114 vvcurveto
            -167 -136 -95 -161 -190 -146 117 271 -2 vhcurveto
            -35 hlineto
            -56 -340 rlineto
            -59 85 187 -46 169 hhcurveto
            return
          </CharString>
          <CharString index="183">
            rmoveto
            262 229 236 392 72 hvcurveto
            245 43 -76 141 -133 hhcurveto
            -89 -66 -79 -112 10 hvcurveto
            157 -36 60 -138 -36 -190 rrcurveto
            -215 -40 -108 -135 -161 hhcurveto
            -139 -52 90 163 34 hvcurveto
            12 59 69 287 9 48 rrcurveto
            175 38 -64 75 -140 hhcurveto
            -82 -80 -28 -36 -44 hvcurveto
            -9 -39 rlineto
            11 18 19 4 22 hhcurveto
            70 35 -41 -118 -25 hvcurveto
            -14 -66 -70 -296 -11 -53 rrcurveto
            -205 -44 91 -139 233 hhcurveto
            endchar
          </CharString>
          <CharString index="184">
            rmoveto
            -172 -806 233 0 128 593 rlineto
            171 41 107 129 110 hhcurveto
            96 28 -78 -109 -23 hvcurveto
            -151 -706 234 0 126 591 rlineto
            172 41 106 130 111 hhcurveto
            95 29 -78 -114 -24 hvcurveto
            -106 89 callgsubr
            45 hvcurveto
            8 41 rlineto
            -26 -27 -46 -14 -33 hhcurveto
            -46 -22 30 66 14 hvcurveto
            202 callsubr
            endchar
          </CharString>
          <CharString index="185">
            rmoveto
            -55 64 121 -41 128 hhcurveto
            219 164 125 180 hvcurveto
            1 117 -50 82 -116 81 rrcurveto
            -80 57 -83 58 -34 49 1 71 rlinecurve
            86 55 57 102 144 59 -130 -146 -2 vhcurveto
            35 hlineto
            52 252 rlineto
            41 -57 -101 34 -130 hhcurveto
            -227 -140 -118 -170 -107 56 -86 111 -77 hvcurveto
            80 -58 rlineto
            87 -61 28 -55 -76 vvcurveto
            -101 -75 -53 -99 -134 -97 106 198 -1 vhcurveto
            -35 hlineto
            return
          </CharString>
          <CharString index="186">
            1649 934 -23 rmoveto
            417 348 335 474 370 -287 312 -390 -424 -341 -335 -474 -371 279 -311 398 hvcurveto
            -1 39 rmoveto
            -367 -263 295 348 452 327 317 393 359 271 -295 -347 -453 -335 -317 -385 hvcurveto
            return
          </CharString>
          <CharString index="187">
            1455 766 -22 rmoveto
            335 202 222 343 77 hvcurveto
            143 629 40 175 24 38 125 20 rlinecurve
            8 39 -369 0 -8 -39 rlineto
            128 -21 10 -38 -34 -174 -125 -619 rcurveline
            -308 -61 -181 -174 -225 hhcurveto
            -230 -149 151 364 1 callgsubr
            return
          </CharString>
          <CharString index="188">
            rmoveto
            217 -108 140 -156 -143 -119 -98 -180 -59 vhcurveto
            59 271 -366 121 callsubr
            -238 -1125 -15 -64 -19 -17 -111 -20 rlinecurve
            -8 -40 507 0 8 40 rlineto
            -127 22 -15 15 13 67 84 398 rcurveline
            -49 return
          </CharString>
          <CharString index="189">
            rmoveto
            174 -144 140 -262 17 vhcurveto
            223 17 251 89 2 237 rrcurveto
            195 1 -182 130 -347 hhcurveto
            -482 -98 callgsubr
            -105 callgsubr
            190 callsubr
            endchar
          </CharString>
          <CharString index="190">
            rmoveto
            -139 -706 rlineto
            -185 -38 70 -105 161 hhcurveto
            123 106 68 63 58 hvcurveto
            7 38 rlineto
            -34 -37 -59 -10 -50 hhcurveto
            -98 -46 51 153 34 hvcurveto
            29 122 105 431 30 114 rrcurveto
            endchar
          </CharString>
          <CharString index="191">
            rmoveto
            107 105 46 80 48 hvcurveto
            7 41 rlineto
            -35 -31 -50 -23 -57 hhcurveto
            -90 -40 59 137 29 hvcurveto
            129 606 152 callsubr
            -122 -578 rlineto
            -207 -43 83 -116 162 hhcurveto
            return
          </CharString>
          <CharString index="192">
            261 1230 20 93 24 20 123 16 rlinecurve
            8 39 -527 0 -9 -39 rlineto
            112 -15 14 -23 -21 -101 -234 -1098 rcurveline
            -19 -92 -23 -21 -118 -16 -9 -39 rcurveline
            return
          </CharString>
          <CharString index="193">
            1453 rmoveto
            -229 -360 51 67 callsubr
            return
          </CharString>
          <CharString index="194">
            -16 -100 -34 -126 hhcurveto
            -124 -85 34 52 5 hvcurveto
            -44 hlineto
            -120 -34 98 -76 161 hhcurveto
            217 -1297 -103 callsubr
            -94 callsubr
          </CharString>
          <CharString index="195">
            1578 48 callgsubr
            -103 -70 95 callsubr
            return
          </CharString>
          <CharString index="196">
            -45 -23 30 66 15 hvcurveto
            273 1289 108 callgsubr
            -87 -410 rcurveline
            49 -24 -66 50 -119 hhcurveto
            -305 -200 -317 -339 hvcurveto
            return
          </CharString>
          <CharString index="197">
            -52 119 hhcurveto
            305 200 317 340 hvcurveto
            -242 24 rmoveto
            -262 -106 -348 -215 -74 -51 38 46 -14 vhcurveto
            102 59 callgsubr
          </CharString>
          <CharString index="198">
            23 21 118 14 rlinecurve
            9 39 -522 0 -9 -39 112 -58 callgsubr
            -96 -143 -228 -148 rlinecurve
            11 -67 callgsubr
          </CharString>
          <CharString index="199">
            rmoveto
            157 129 90 141 24 hvcurveto
            -44 58 callsubr
            -81 40 61 7 73 callsubr
            158 hhcurveto
            endchar
          </CharString>
          <CharString index="200">
            10 -32 33 -50 hhcurveto
            -7 hlineto
            23 callsubr
            -9 32 -33 49 hhcurveto
            endchar
          </CharString>
          <CharString index="201">
            -10 hvcurveto
            -51 -11 31 -39 53 -38 callgsubr
            -27 callgsubr
            -52 -11 -33 callsubr
            endchar
          </CharString>
          <CharString index="202">
            53 75 9 1 10 2 8 hvcurveto
            -39 hlineto
            -11 -28 -7 -32 -30 vvcurveto
            -115 1 89 -86 133 hhcurveto
            return
          </CharString>
          <CharString index="203">
            -17 -99 -34 -126 hhcurveto
            -125 -84 34 52 5 hvcurveto
            -45 hlineto
            -120 -33 97 -76 162 hhcurveto
            endchar
          </CharString>
          <CharString index="204">
            rmoveto
            200 13 158 142 185 vvcurveto
            104 -58 64 -82 -87 -53 -76 -75 callgsubr
            endchar
          </CharString>
          <CharString index="205">
            1139 598 988 rmoveto
            -66 callsubr
            -73 callsubr
            135 callsubr
            return
          </CharString>
          <CharString index="206">
            -32 -52 -58 -54 -59 -101 -55 hvcurveto
            50 hlineto
            171 52 91 76 93 vvcurveto
            83 -69 60 -99 vhcurveto
            return
          </CharString>
          <CharString index="207">
            261 1233 50 -3 245 -16 62 -61 2 -232 rlinecurve
            37 hlineto
            return
          </CharString>
          <CharString index="208">
            201 -47 0 126 -360 136 0 276 360 rlineto
            return
          </CharString>
          <CharString index="209">
            1808 rmoveto
            -215 -5 hlineto
            270 -270 rlineto
            37 hlineto
            return
          </CharString>
          <CharString index="210">
            -262 -1233 -18 -87 -25 -23 -139 -16 rlinecurve
            -8 -39 return
          </CharString>
          <CharString index="211">
            -48 46 -65 -66 -54 -50 -64 1 vhcurveto
            -59 49 -48 64 vhcurveto
            endchar
          </CharString>
          <CharString index="212">
            1401 rmoveto
            521 hlineto
            24 109 rlineto
            -522 hlineto
            return
          </CharString>
          <CharString index="213">
            1151 rmoveto
            91 68 65 209 27 hvcurveto
            -44 hlineto
            -100 return
          </CharString>
          <CharString index="214">
            -160 183 -242 -333 -203 -268 -308 return
          </CharString>
          <CharString index="215">
            -38 19 -49 hhcurveto
            -84 -64 -59 -187 -22 hvcurveto
            40 hlineto
            89 return
          </CharString>
          <CharString index="216">
            rmoveto
            -62 -49 -48 -59 -57 45 -45 58 -41 callsubr
          </CharString>
          <CharString index="217">
            568 0 8 39 -133 18 -17 20 19 88 rlinecurve
            return
          </CharString>
          <CharString index="218">
            -27 -49 -49 -42 -28 228 callsubr
            79 hhcurveto
            endchar
          </CharString>
          <CharString index="219">
            -39 113 -16 14 -20 -20 -93 rlinecurve
            -236 -1108 return
          </CharString>
          <CharString index="220">
            rmoveto
            -392 -232 -399 -493 -22 vhcurveto
            -90 -3 return
          </CharString>
          <CharString index="221">
            rmoveto
            -260 -173 -181 -303 -11 vhcurveto
            -98 -3 return
          </CharString>
          <CharString index="222">
            1582 rmoveto
            76 1 58 54 21 173 rrcurveto
            return
          </CharString>
          <CharString index="223">
            1567 rmoveto
            61 48 48 59 57 -44 45 -58 return
          </CharString>
          <CharString index="224">
            521 0 8 39 -107 15 -17 21 20 93 rlinecurve
            return
          </CharString>
          <CharString index="225">
            125 -274 125 0 237 274 rlineto
            return
          </CharString>
          <CharString index="226">
            49 -49 65 hvcurveto
            392 hmoveto
            48 callsubr
            return
          </CharString>
          <CharString index="227">
            -44 45 -58 -62 -49 -47 -61 -57 45 -44 58 hvcurveto
            return
          </CharString>
          <CharString index="228">
            -44 -8 -38 58 -14 50 -14 10 -19 -12 -53 rlinecurve
            return
          </CharString>
          <CharString index="229">
            82 114 108 -106 62 -118 -157 return
          </CharString>
          <CharString index="230">
            -15 18 -20 -20 -94 rlinecurve
            -261 -1224 return
          </CharString>
          <CharString index="231">
            -54 -50 -64 1 hvcurveto
            -59 49 -48 64 vhcurveto
            endchar
          </CharString>
          <CharString index="232">
            rmoveto
            522 hlineto
            24 110 rlineto
            -522 hlineto
            return
          </CharString>
          <CharString index="233">
            hlineto
            57 13 32 21 46 hhcurveto
            28 27 -8 -14 return
          </CharString>
          <CharString index="234">
            1047 907 -16 134 callsubr
            return
          </CharString>
          <CharString index="235">
            675 1445 212 callsubr
            return
          </CharString>
          <CharString index="236">
            22 callsubr
            10 -32 33 -50 hhcurveto
            return
          </CharString>
          <CharString index="237">
            -43 -40 21 -53 hhcurveto
            -90 -69 -66 -208 return
          </CharString>
          <CharString index="238">
            rmoveto
            -61 51 -48 61 63 50 50 60 57 -42 44 -53 7 vhcurveto
            25 43 56 15 63 hhcurveto
            203 29 -161 -165 -25 hvcurveto
            -10 -65 -159 -18 rlineto
            -303 -35 -156 -106 -179 vvcurveto
            -127 107 -94 160 156 123 86 229 53 vhcurveto
            -208 27 150 -107 175 hhcurveto
            142 123 63 92 67 hvcurveto
            8 42 rlineto
            -51 -50 -78 -44 -92 hhcurveto
            -170 -78 137 215 21 1 20 2 21 hvcurveto
            69 5 371 30 133 111 2 141 rlinecurve
            138 2 -130 73 -162 hhcurveto
            -122 -118 -51 -96 -95 hvcurveto
            97 -55 -104 50 -142 hhcurveto
            -200 -146 -94 -119 hvcurveto
            975 162 rmoveto
            85 30 -69 -74 -3 hvcurveto
            -5 -109 -76 -122 -243 -25 -62 -6 rcurveline
            222 26 108 183 140 hhcurveto
            -871 -709 rmoveto
            127 91 97 195 26 vhcurveto
            92 11 -17 -107 rlineto
            -218 -40 -87 -83 -100 hhcurveto
            -77 -57 50 97 hvcurveto
            endchar
          </CharString>
          <CharString index="239">
            rmoveto
            -923 hlineto
            -837 -1186 -122 -174 -46 -30 -102 -15 rlinecurve
            -9 -39 392 0 8 39 -138 20 -7 39 108 159 rlinecurve
            258 378 422 0 -92 -457 -20 -102 -15 -21 -143 -16 rlinecurve
            -8 -39 1046 0 101 394 rlineto
            -34 hlineto
            -107 -253 -104 -73 -274 -13 rrcurveto
            -215 -9 131 668 206 -4 125 -5 20 -48 -3 -157 rlinecurve
            34 hlineto
            95 464 rlineto
            -34 hlineto
            -57 -150 -42 -41 -126 -5 rrcurveto
            -208 -4 123 634 194 -9 254 -13 43 -54 15 -236 rlinecurve
            34 hlineto
            -846 307 rmoveto
            59 hlineto
            -141 -701 rlineto
            -395 hlineto
            endchar
          </CharString>
          <CharString index="240">
            1322 480 168 rmoveto
            118 555 122 -1 282 -722 328 0 8 37 -59 22 -38 41 -83 210 rlinecurve
            -231 595 323 290 151 135 77 54 106 21 rlinecurve
            8 39 -405 0 -8 -39 131 -16 -4 -53 -119 -116 rlinecurve
            -457 -447 -122 -2 108 505 19 93 24 21 112 15 rlinecurve
            8 39 -516 0 -9 112 callsubr
            -19 -93 -23 -20 -118 -16 101 callgsubr
            return
          </CharString>
          <CharString index="241">
            rmoveto
            93 69 46 64 34 hvcurveto
            8 41 rlineto
            -22 -20 -27 -14 -29 hhcurveto
            -51 -37 40 138 -48 hvcurveto
            -132 380 147 116 151 119 69 32 90 19 rlinecurve
            6 34 -382 0 -7 -34 119 -14 9 -35 -112 -98 rlinecurve
            -361 -314 213 998 -53 callsubr
            92 429 101 81 92 -274 rlineto
            -172 56 62 -80 111 hhcurveto
            return
          </CharString>
          <CharString index="242">
            127 593 rlineto
            171 42 113 129 116 hhcurveto
            101 31 -73 -119 -26 hvcurveto
            -106 89 callgsubr
            46 hvcurveto
            8 41 rlineto
            -26 11 callgsubr
            -161 -140 -109 -198 -71 hvcurveto
            return
          </CharString>
          <CharString index="243">
            rmoveto
            2 -117 -154 -33 -103 -12 -6 -32 rcurveline
            1 10 16 2 18 hhcurveto
            106 63 -63 -86 hvcurveto
            -105 1 -75 -73 -97 hhcurveto
            -45 -39 12 20 -27 hvcurveto
            34 5 24 28 33 vvcurveto
            37 -29 29 -39 -39 -30 -29 -38 -83 101 -59 115 157 146 89 148 vhcurveto
            -1 91 -67 74 return
          </CharString>
          <CharString index="244">
            -57 -53 -90 -39 -82 hhcurveto
            -146 -102 112 212 268 119 259 205 51 42 -16 -26 31 hvcurveto
            -4 -5 1 -5 hhcurveto
            -63 -51 -50 -64 -63 49 -50 64 65 52 51 66 117 -97 94 -172 -1 hvcurveto
            -290 -232 -253 -351 return
          </CharString>
          <CharString index="245">
            -212 -698 rmoveto
            68 hlineto
            1229 1444 rlineto
            -68 hlineto
            -1016 -706 147 callsubr
            767 -750 rmoveto
            -52 callgsubr
            1 71 callsubr
            -115 -236 -201 -2 hvcurveto
            -166 -2 82 -155 170 hhcurveto
            return
          </CharString>
          <CharString index="246">
            rmoveto
            108 callgsubr
            -234 -1099 rcurveline
            -155 -34 -12 callsubr
            47 hvcurveto
            7 41 rlineto
            -26 -28 57 callsubr
            return
          </CharString>
          <CharString index="247">
            20 callgsubr
            102 71 -52 -74 -10 -1 -10 -2 -7 hvcurveto
            79 callgsubr
            return
          </CharString>
          <CharString index="248">
            rmoveto
            161 104 68 93 68 hvcurveto
            9 41 rlineto
            -74 -73 -96 -36 -107 hhcurveto
            -107 -77 52 87 92 44 54 139 58 hvcurveto
            57 25 rlineto
            160 63 111 74 166 vvcurveto
            162 return
          </CharString>
          <CharString index="249">
            46 120 118 107 hhcurveto
            101 30 -73 -119 -26 hvcurveto
            -105 89 callgsubr
            46 hvcurveto
            8 41 rlineto
            -26 11 callgsubr
            -151 -146 -96 -212 -77 hvcurveto
            return
          </CharString>
          <CharString index="250">
            rmoveto
            451 319 380 455 -83 callgsubr
            -390 257 -259 375 hvcurveto
            -21 57 rmoveto
            -206 -134 -31 callgsubr
            78 callgsubr
            return
          </CharString>
          <CharString index="251">
            rmoveto
            84 64 58 189 23 hvcurveto
            -41 hlineto
            -91 -17 -27 -34 -42 hhcurveto
            -30 -25 callgsubr
            -37 19 return
          </CharString>
          <CharString index="252">
            134 647 rlineto
            93 61 109 67 114 hhcurveto
            39 32 -6 -8 18 hvcurveto
            11 16 13 34 35 vvcurveto
            66 -32 45 -65 -88 -72 -77 -228 -136 vhcurveto
            return
          </CharString>
          <CharString index="253">
            10 49 -262 0 41 185 -238 -18 -36 -167 -149 0 -10 -49 149 0 -263 -1238 233 0 127 597 rlineto
            178 return
          </CharString>
          <CharString index="254">
            rmoveto
            -57 -32 54 136 hvcurveto
            244 1 79 245 110 hhcurveto
            57 33 -59 -135 -1 hvcurveto
            -250 -2 -79 -235 -109 hhcurveto
            return
          </CharString>
          <CharString index="255">
            1440 rmoveto
            -182 -108 -133 -200 -8 hvcurveto
            41 hlineto
            109 22 81 66 147 hhcurveto
            115 77 -60 -85 -10 return
          </CharString>
          <CharString index="256">
            262 106 348 215 74 51 -39 -46 14 vhcurveto
            -103 -481 rlineto
            -174 -42 -93 -100 -91 hhcurveto
            -83 -48 65 165 hvcurveto
            return
          </CharString>
          <CharString index="257">
            -370 -46 -8 -36 57 -13 rlineto
            49 -16 11 -18 -12 -66 callgsubr
            -104 -29 79 129 28 hvcurveto
            return
          </CharString>
          <CharString index="258">
            266 359 rlineto
            6 vlineto
            -477 -319 rmoveto
            61 49 48 60 57 -44 44 -59 -61 -49 -48 -60 -56 return
          </CharString>
          <CharString index="259">
            243 -10 16 73 -249 -14 51 244 -242 -37 -41 -199 -134 -31 -7 -36 126 0 return
          </CharString>
          <CharString index="260">
            -43 hlineto
            -100 -20 -29 -38 -45 hhcurveto
            -32 -24 14 29 -36 hvcurveto
            -32 26 rlineto
            33 130 callsubr
            -26 hvcurveto
            return
          </CharString>
          <CharString index="261">
            hlineto
            -8 -39 110 -16 16 -19 -20 -94 rlinecurve
            -235 -1108 -20 -94 -23 -19 -118 -16 rlinecurve
            -8 -39 return
          </CharString>
          <CharString index="262">
            783 593 988 rmoveto
            -362 121 callsubr
            -73 callsubr
            145 callsubr
            return
          </CharString>
          <CharString index="263">
            176 149 39 64 93 hvcurveto
            72 342 -36 -1 rlineto
            -234 -90 -158 91 callgsubr
          </CharString>
          <CharString index="264">
            38 hlineto
            80 15 24 30 37 hhcurveto
            27 20 -12 -23 30 hvcurveto
            26 -20 rlineto
            -26 36 34 -18 44 hhcurveto
            return
          </CharString>
          <CharString index="265">
            49 46 33 44 10 hvcurveto
            45 9 -31 32 -50 hhcurveto
            -7 hlineto
            -49 -46 -32 -45 -10 hvcurveto
            -44 -9 return
          </CharString>
          <CharString index="266">
            457 1276 rmoveto
            -236 -1108 rlineto
            -20 -95 -24 -18 -117 -16 -8 -39 rcurveline
            return
          </CharString>
          <CharString index="267">
            88 rlinecurve
            108 509 387 496 144 186 38 32 101 17 rlinecurve
            8 39 return
          </CharString>
          <CharString index="268">
            43 hlineto
            100 20 28 37 46 hhcurveto
            31 1 25 -14 36 -30 rrcurveto
            32 68 callsubr
            return
          </CharString>
          <CharString index="269">
            1389 rmoveto
            522 hlineto
            24 111 rlineto
            -522 hlineto
            197 -395 rmoveto
            55 return
          </CharString>
          <CharString index="270">
            -108 -44 callgsubr
            47 26 -34 -62 -97 -50 -87 -62 -47 -26 34 62 vhcurveto
            return
          </CharString>
          <CharString index="271">
            rmoveto
            133 91 66 101 102 -77 58 -83 13 callsubr
            14 26 5 23 hhcurveto
            return
          </CharString>
          <CharString index="272">
            -340 -749 -20 callgsubr
            50 48 60 57 -46 44 -57 hvcurveto
            endchar
          </CharString>
          <CharString index="273">
            288 1352 78 -3 rlineto
            308 -16 141 -229 -288 vvcurveto
            return
          </CharString>
          <CharString index="274">
            153 -713 -54 callgsubr
            -53 -50 -64 -59 49 -48 64 hvcurveto
            endchar
          </CharString>
          <CharString index="275">
            47 50 60 65 -49 47 -62 -69 -47 -53 -68 -115 94 -80 136 hvcurveto
            return
          </CharString>
          <CharString index="276">
            -37 -31 -62 -50 -48 19 28 -29 hvcurveto
            -9 -38 rlineto
            -57 37 65 -43 90 hhcurveto
            return
          </CharString>
          <CharString index="277">
            1497 rmoveto
            -126 -366 59 0 301 359 rlineto
            7 vlineto
            return
          </CharString>
          <CharString index="278">
            149 167 -149 41 0 -125 275 16 callsubr
            return
          </CharString>
          <CharString index="279">
            15 25 5 24 hhcurveto
            53 41 -27 -49 -49 -43 -28 -63 -50 -40 21 23 return
          </CharString>
          <CharString index="280">
            -25 hvcurveto
            43 126 callsubr
            37 hvcurveto
            27 -89 callgsubr
            endchar
          </CharString>
          <CharString index="281">
            -61 -51 -48 19 28 -29 hvcurveto
            -9 -38 rlineto
            -57 38 65 -43 90 hhcurveto
            endchar
          </CharString>
          <CharString index="282">
            174 -52 148 -90 110 hvcurveto
            161 161 -36 36 -158 -159 rlineto
            113 -112 -158 65 -188 hhcurveto
            -451 -319 -380 -454 1 hvcurveto
            -174 51 -148 90 -110 vhcurveto
            -161 -161 36 -36 159 159 rlineto
            -113 111 159 -65 188 hhcurveto
            -361 546 rmoveto
            413 204 466 314 147 110 -84 -165 51 vhcurveto
            -809 -812 rlineto
            -12 54 -5 60 68 vvcurveto
            339 -490 rmoveto
            -147 -110 85 166 -51 hvcurveto
            810 811 rlineto
            12 -54 5 -61 -68 vvcurveto
            -453 -222 -426 -297 vhcurveto
            endchar
          </CharString>
          <CharString index="283">
            rmoveto
            -248 -26 120 -165 206 hhcurveto
            143 111 103 162 62 hvcurveto
            -168 1 116 -97 159 hhcurveto
            269 183 264 325 29 hvcurveto
            267 24 -110 158 -137 hhcurveto
            -93 -64 -81 -115 14 hvcurveto
            166 -33 104 -138 -17 -216 rrcurveto
            -181 -13 -108 -149 -138 hhcurveto
            -138 -78 110 286 62 hvcurveto
            50 233 -221 0 -58 -274 rlineto
            -265 -56 -57 -90 -105 hhcurveto
            -110 -57 107 204 20 hvcurveto
            21 257 109 220 168 88 rrcurveto
            -18 28 -316 -67 -192 -249 -25 -276 rlinecurve
            endchar
          </CharString>
          <CharString index="284">
            rmoveto
            144 115 89 186 111 hvcurveto
            -207 15 56 -63 120 hhcurveto
            81 84 51 46 37 hvcurveto
            9 38 rlineto
            -15 -18 -35 -12 -29 hhcurveto
            -81 -29 25 228 -31 hvcurveto
            -15 119 300 510 rlineto
            -245 hlineto
            -15 -56 -48 -139 -43 -120 rrcurveto
            229 -28 -76 104 -179 hhcurveto
            -262 -198 -242 -334 -28 hvcurveto
            -268 -28 101 -169 215 hhcurveto
            -38 480 rmoveto
            309 26 95 167 128 hhcurveto
            107 19 -116 -339 23 hvcurveto
            5 -127 rlineto
            -199 -87 -84 -75 -95 hhcurveto
            -112 -51 125 255 26 hvcurveto
            endchar
          </CharString>
          <CharString index="285">
            rmoveto
            330 202 270 307 108 -30 96 -52 74 hvcurveto
            112 112 -35 34 -108 -108 rlineto
            75 -70 -98 44 -118 hhcurveto
            -331 -202 -270 -306 -110 30 -96 54 -74 hvcurveto
            -107 -108 34 -34 104 104 rlineto
            -74 69 98 -44 118 hhcurveto
            -165 346 rmoveto
            271 2 100 345 192 hhcurveto
            90 56 -65 -133 16 hvcurveto
            -456 -457 rlineto
            13 0 12 14 vvcurveto
            167 -294 rmoveto
            -88 -56 63 129 -17 hvcurveto
            455 456 rlineto
            -10 0 -11 -12 vvcurveto
            -271 -1 -101 -344 -192 hhcurveto
            endchar
          </CharString>
          <CharString index="286">
            rmoveto
            218 171 90 134 94 hvcurveto
            9 42 rlineto
            -80 -73 -138 -59 -141 hhcurveto
            -145 -88 61 108 6 hvcurveto
            113 4 106 58 227 hhcurveto
            73 hlineto
            -6 162 rlineto
            -68 hlineto
            -214 -62 68 96 8 hvcurveto
            101 8 86 66 166 hhcurveto
            100 74 -22 -36 47 hvcurveto
            -4 -3 0 -3 hhcurveto
            -60 -43 -49 -58 -54 43 -49 66 59 49 45 67 107 -80 103 -268 -305 -144 -129 -150 -10 hvcurveto
            -9 -117 73 -96 165 -26 -202 -17 -122 -88 -9 -137 rrcurveto
            -154 -12 130 -100 227 hhcurveto
            endchar
          </CharString>
          <CharString index="287">
            rmoveto
            -21 -112 -125 -30 -8 -36 122 0 -165 -974 rlineto
            -249 -43 -63 -76 -108 hhcurveto
            -7 -8 1 1 -6 hvcurveto
            44 11 34 40 52 vvcurveto
            59 -46 47 -58 -59 -48 -45 -63 -90 75 -72 115 198 171 148 478 82 vhcurveto
            130 743 219 -11 17 74 -229 -13 32 181 rlineto
            223 39 63 79 94 hhcurveto
            11 10 -1 -2 10 hvcurveto
            -43 -14 -33 -39 -50 vvcurveto
            -61 48 -47 58 60 49 48 62 94 -83 70 -141 -187 -146 -135 -291 -54 vhcurveto
            endchar
          </CharString>
          <CharString index="288">
            105 194 70 hvcurveto
            -1 -4 -19 -89 -5 vvcurveto
            -132 -24 51 -63 106 hhcurveto
            94 107 45 57 48 hvcurveto
            9 41 rlineto
            -27 -32 -48 -12 -31 hhcurveto
            -45 -23 29 67 14 hvcurveto
            163 766 rlineto
            -1 12 12 -1 12 hhcurveto
            110 95 61 112 79 -52 67 -74 32 hvcurveto
            -35 hlineto
            8 -17 5 -29 -31 vvcurveto
            -141 -97 -98 -253 -32 vhcurveto
            -105 -13 -8 -35 57 -14 rlineto
            50 -16 10 -17 -12 -53 -92 -435 rcurveline
            -165 -42 -100 -120 -120 hhcurveto
            -105 -29 80 129 28 hvcurveto
            return
          </CharString>
          <CharString index="289">
            rmoveto
            87 78 48 65 35 hvcurveto
            8 42 rlineto
            -23 -29 -27 -12 -29 hhcurveto
            -48 -32 30 89 -46 hvcurveto
            -209 401 116 114 68 68 44 46 34 31 rlinecurve
            -2 0 -2 -2 vvcurveto
            -65 49 -51 66 64 52 51 66 vhcurveto
            63 -1 -44 54 -74 hhcurveto
            -83 -55 -58 -156 -149 hvcurveto
            -266 -284 105 491 -370 -44 -9 -38 58 -14 49 -14 11 -19 -11 -53 rlinecurve
            -173 -806 234 0 106 495 169 -320 rlineto
            -145 70 53 -46 99 hhcurveto
            endchar
          </CharString>
          <CharString index="290">
            247 hlineto
            128 628 rlineto
            168 37 100 96 116 hhcurveto
            100 56 -74 -169 -34 hvcurveto
            -43 -208 -136 -612 -66 -289 rrcurveto
            247 hlineto
            27 123 177 857 28 144 rrcurveto
            222 45 -99 109 -188 hhcurveto
            -182 -120 -123 -143 -48 hvcurveto
            192 36 -74 66 -122 hhcurveto
            -81 -75 -29 -29 -47 hvcurveto
            -8 -38 rlineto
            7 19 22 4 24 hhcurveto
            71 36 -43 -125 -25 hvcurveto
            -35 -174 -83 -358 -50 -202 rrcurveto
            endchar
          </CharString>
          <CharString index="291">
            rmoveto
            -78 60 -61 90 172 119 121 328 228 vhcurveto
            538 776 101 146 46 38 115 19 rlinecurve
            8 39 -386 0 -8 -39 143 -15 -4 -39 -91 -140 rlinecurve
            -436 -667 -171 695 -33 131 3 19 161 16 rlinecurve
            8 39 -581 0 -8 -39 106 -19 27 -22 32 -116 rlinecurve
            269 -961 -87 -120 -80 -85 -90 -36 rlinecurve
            15 21 9 25 28 vvcurveto
            76 -60 59 -75 -78 -62 -62 -77 vhcurveto
            endchar
          </CharString>
          <CharString index="292">
            390 -257 258 -376 -451 -319 -380 -454 1 hvcurveto
            -374 236 -253 351 -20 vhcurveto
            -132 -90 -78 -104 -102 vvcurveto
            -95 77 -67 105 80 62 41 60 29 vhcurveto
            8 38 rlineto
            -18 -19 -25 -11 -30 hhcurveto
            -63 -42 64 95 65 24 66 48 57 hvcurveto
            0 1 0 1 hhcurveto
            -22 56 rmoveto
            -206 -133 -31 callgsubr
            314 -95 callgsubr
            -453 -222 -426 -297 hvcurveto
            endchar
          </CharString>
          <CharString index="293">
            rmoveto
            217 -107 140 -155 -142 -118 -96 -178 -60 vhcurveto
            166 759 -369 -36 -9 -38 59 -14 50 -15 10 -18 -12 -53 rlinecurve
            -277 -1306 123 0 115 99 rlineto
            -58 22 68 -60 132 hhcurveto
            305 199 317 340 hvcurveto
            -241 24 rmoveto
            -262 -105 -348 -215 -75 -51 38 46 -14 vhcurveto
            103 482 rlineto
            174 43 93 100 91 hhcurveto
            82 49 -65 -165 -1 hvcurveto
            return
          </CharString>
          <CharString index="294">
            rmoveto
            -249 hlineto
            -6 -29 60 -10 10 -21 -15 -62 rlinecurve
            -113 -461 -23 -91 -16 -21 -66 -10 rlinecurve
            -7 -28 206 0 7 28 -67 10 -7 20 21 92 rlinecurve
            102 471 99 -621 82 0 101 204 249 428 -96 -539 -8 -45 -13 -10 -65 -9 rlinecurve
            -6 -29 314 0 7 29 -61 9 -7 9 8 46 rlinecurve
            97 546 8 44 13 12 65 9 rlinecurve
            6 29 -260 0 -283 -525 rlineto
            return
          </CharString>
          <CharString index="295">
            12 -16 6 -55 79 -818 rcurveline
            129 hlineto
            178 260 127 242 50 168 56 -670 rcurveline
            127 hlineto
            291 349 215 356 165 vvcurveto
            81 -52 51 -71 -71 -54 -50 -70 -67 52 -51 67 15 14 2 4 12 vhcurveto
            -51 -186 -137 -223 -155 -201 rrcurveto
            -65 834 -217 -34 9 -109 rlineto
            1 vlineto
            2 -182 -139 -265 -128 -226 rrcurveto
            return
          </CharString>
          <CharString index="296">
            520 hlineto
            8 39 -107 15 -18 20 20 94 rlinecurve
            9 40 844 929 -205 -969 -20 -95 -23 -18 -117 -16 20 callsubr
            -109 15 -18 20 20 94 rlinecurve
            236 1108 20 95 25 18 116 -38 callsubr
            109 -16 16 -18 -20 -95 rlinecurve
            -9 -44 -845 -928 207 972 19 95 25 18 115 -38 callsubr
            44 callgsubr
            endchar
          </CharString>
          <CharString index="297">
            -118 -16 -8 -39 rcurveline
            496 hlineto
            470 280 176 269 hvcurveto
            -193 677 rmoveto
            -183 -126 -148 -228 -2 vhcurveto
            -145 -1 130 610 91 -3 rlineto
            185 -7 93 -103 -163 vvcurveto
            -82 -676 rmoveto
            -210 -146 -175 -336 -12 vhcurveto
            -92 -3 148 697 143 -3 rlineto
            181 -3 102 -122 -169 vvcurveto
            return
          </CharString>
          <CharString index="298">
            333 203 268 308 175 -79 144 -141 72 vhcurveto
            -12 45 56 -9 54 hhcurveto
            179 124 68 128 80 -52 69 -72 32 hvcurveto
            -36 hlineto
            8 -17 6 -29 -30 vvcurveto
            -135 -99 -115 -178 vhcurveto
            -70 -58 18 -82 hhcurveto
            -334 -209 -258 -319 hvcurveto
            241 -95 rmoveto
            36 callsubr
            -107 -59 96 194 2 hvcurveto
            return
          </CharString>
          <CharString index="299">
            rmoveto
            81 66 41 59 33 hvcurveto
            7 38 rlineto
            -18 -19 -27 -11 -29 hhcurveto
            -62 -43 60 95 66 24 71 41 56 hvcurveto
            319 12 194 263 301 vvcurveto
            254 107 callsubr
            -244 149 -180 227 -13 vhcurveto
            -126 -88 -72 -104 -101 vvcurveto
            -96 72 -68 103 vhcurveto
            52 509 rmoveto
            -107 -59 96 194 2 hvcurveto
            36 callsubr
            endchar
          </CharString>
          <CharString index="300">
            rmoveto
            49 -47 110 149 1 1 59 -39 rlineto
            -87 131 69 -23 90 hhcurveto
            127 125 82 171 83 hvcurveto
            -28 23 rlineto
            -81 -47 -54 -30 -61 hhcurveto
            -76 -57 23 71 -119 hvcurveto
            -92 56 581 642 8 38 -682 0 -85 -301 rlineto
            34 hlineto
            100 42 28 16 97 hhcurveto
            348 hlineto
            -1436 -477 rmoveto
            149 callsubr
            endchar
          </CharString>
          <CharString index="301">
            1291 479 rmoveto
            235 -202 135 -337 4 vhcurveto
            -130 1 89 425 20 89 24 22 126 15 rlinecurve
            8 39 -531 0 -8 -39 rlineto
            110 -16 17 -19 -20 -94 -236 -1108 rcurveline
            -20 -94 -22 -19 -119 -16 -8 -39 rcurveline
            526 hlineto
            440 273 196 283 hvcurveto
            return
          </CharString>
          <CharString index="302">
            rmoveto
            334 199 270 307 253 -162 184 -241 -333 -199 -270 -306 -253 162 -185 240 hvcurveto
            2 53 rmoveto
            -109 -56 96 196 1 hvcurveto
            275 1 106 342 184 hhcurveto
            108 57 -96 -196 -1 hvcurveto
            -274 -2 -105 -343 -184 hhcurveto
            endchar
          </CharString>
          <CharString index="303">
            159 -1206 132 0 657 1175 107 190 37 31 102 16 rlinecurve
            8 39 -381 0 -8 -39 132 -21 19 -37 -94 -177 rlinecurve
            -494 -933 -110 961 -17 143 31 47 129 17 rlinecurve
            9 39 -550 0 -8 -39 85 -14 33 -30 22 -162 rlinecurve
            return
          </CharString>
          <CharString index="304">
            rmoveto
            29 134 -387 0 202 127 188 122 79 71 -1 114 rlinecurve
            111 -90 65 -118 -132 -92 -71 -114 -44 vhcurveto
            23 -11 rlineto
            72 37 55 39 72 hhcurveto
            79 49 -49 -76 1 hvcurveto
            1 -93 -64 -78 -164 -129 rrcurveto
            -168 -134 -21 -100 rlineto
            endchar
          </CharString>
          <CharString index="305">
            29 134 -386 0 201 128 rlineto
            189 121 78 71 115 vvcurveto
            110 -91 66 -118 -131 -93 -71 -115 -43 vhcurveto
            23 -11 rlineto
            73 37 54 38 72 hhcurveto
            79 49 -49 -75 1 hvcurveto
            1 -94 -64 -77 -164 -130 rrcurveto
            -168 -134 -21 -100 rlineto
            endchar
          </CharString>
          <CharString index="306">
            -17 21 19 88 rlinecurve
            115 543 201 -4 117 -5 21 -48 -3 -159 rlinecurve
            33 hlineto
            97 463 rlineto
            -33 hlineto
            -58 -150 -42 -42 -122 -5 rrcurveto
            -202 -4 137 644 179 -8 238 -11 61 -59 11 -234 rlinecurve
            35 hlineto
            endchar
          </CharString>
          <CharString index="307">
            1293 1300 445 rmoveto
            174 -144 140 -262 17 vhcurveto
            223 17 251 89 2 237 rrcurveto
            195 1 -182 130 -347 hhcurveto
            -482 -98 callgsubr
            -105 callgsubr
            190 callsubr
            return
          </CharString>
          <CharString index="308">
            -241 -30 -123 -584 rlineto
            -165 -43 -108 -126 -117 hhcurveto
            -98 -22 81 124 26 hvcurveto
            149 700 -240 -29 -125 -591 rlineto
            -163 -43 -107 -122 -117 hhcurveto
            -98 -22 81 124 27 hvcurveto
            148 return
          </CharString>
          <CharString index="309">
            104 484 rlineto
            212 46 -91 108 -171 hhcurveto
            -151 -140 -111 -200 -65 hvcurveto
            3 9 6 29 1 2 rrcurveto
            172 26 -84 99 -164 hhcurveto
            -154 -133 -105 -202 -69 hvcurveto
            64 300 -66 callsubr
            return
          </CharString>
          <CharString index="310">
            11 -16 6 -55 80 -818 rcurveline
            130 hlineto
            315 368 209 342 162 vvcurveto
            80 -55 50 -69 -69 -54 -50 -70 -67 53 -51 66 15 14 2 4 13 vhcurveto
            -53 -181 -140 -218 -167 -210 rrcurveto
            return
          </CharString>
          <CharString index="311">
            -472 rmoveto
            80 68 37 51 45 hvcurveto
            8 39 rlineto
            -19 -27 -33 -10 -31 hhcurveto
            -61 -40 30 68 80 51 93 163 97 hvcurveto
            61 37 -43 0 -69 -36 rlineto
            -250 -138 -81 -87 -99 vvcurveto
            -86 66 -57 93 vhcurveto
            endchar
          </CharString>
          <CharString index="312">
            0 131 1369 rmoveto
            53 49 39 -102 callgsubr
            -7 hlineto
            -52 -50 -40 -51 -10 hvcurveto
            -52 -11 32 -39 52 hhcurveto
            320 hmoveto
            52 49 39 -102 callgsubr
            -26 callgsubr
            33 -39 52 hhcurveto
            return
          </CharString>
          <CharString index="313">
            -38 hlineto
            -80 -16 -23 -31 -37 hhcurveto
            -27 -20 12 23 -30 hvcurveto
            -26 20 rlineto
            27 -36 -35 16 -43 hhcurveto
            -77 -57 -54 -172 -22 hvcurveto
            39 hlineto
            80 15 24 30 37 hhcurveto
            26 21 -12 -23 30 hvcurveto
            26 -20 rlineto
            -26 36 return
          </CharString>
          <CharString index="314">
            -159 1206 -132 0 -658 -1179 -105 -186 -37 -31 -102 -16 rlinecurve
            -9 -39 383 0 8 39 -134 21 -18 36 92 174 rlinecurve
            127 240 449 0 30 -264 return
          </CharString>
          <CharString index="315">
            rrcurveto
            222 14 138 85 144 hhcurveto
            55 52 -15 -24 38 hvcurveto
            -54 -49 -41 -65 -58 43 -50 65 59 49 48 61 112 -122 94 -186 -233 -239 -138 -294 -18 hvcurveto
            return
          </CharString>
          <CharString index="316">
            299 6 322 -266 254 -408 1 -490 1 -312 -309 -7 -359 -6 -273 170 -221 313 -73 rrcurveto
            -18 -85 -380 1 -84 31 -41 163 rlinecurve
            return
          </CharString>
          <CharString index="317">
            0 -8 -39 rlineto
            136 -17 32 -47 -29 -129 -41 -181 -33 -135 -55 -193 -80 -297 -70 -212 -96 -101 rrcurveto
            2 9 1 10 11 vvcurveto
            81 -57 57 -79 -83 -59 -63 -78 return
          </CharString>
          <CharString index="318">
            -1 91 -67 75 -112 20 104 13 122 56 -1 109 rrcurveto
            103 -103 54 -102 -111 -106 -58 -124 -43 vhcurveto
            23 -9 rlineto
            72 38 55 33 69 hhcurveto
            77 47 -47 -62 1 hvcurveto
            endchar
          </CharString>
          <CharString index="319">
            rmoveto
            -53 hlineto
            -236 -91 -7 -30 107 20 5 1 3 -3 -1 -4 rlinecurve
            -112 -525 -11 -53 -24 -12 -84 -9 rlinecurve
            -6 -29 367 0 6 29 -80 9 -20 12 11 54 rlinecurve
            return
          </CharString>
          <CharString index="320">
            859 74 28 rmoveto
            49 -47 111 149 1 1 58 -39 rlineto
            -87 132 68 -23 90 hhcurveto
            128 124 82 171 83 hvcurveto
            -28 23 rlineto
            -81 223 callsubr
            return
          </CharString>
          <CharString index="321">
            23 hvcurveto
            -44 hlineto
            -47 -11 -33 39 callsubr
            -72 -54 -105 -22 hvcurveto
            45 hlineto
            47 11 32 19 46 hhcurveto
            28 29 -6 -13 37 hvcurveto
            30 -9 rlineto
            -14 41 39 -9 47 hhcurveto
            endchar
          </CharString>
          <CharString index="322">
            -104 -493 rcurveline
            -203 -43 63 -128 187 hhcurveto
            140 145 90 199 80 hvcurveto
            -188 -28 69 -101 172 hhcurveto
            143 149 98 208 78 hvcurveto
            -1 -5 return
          </CharString>
          <CharString index="323">
            123 -21 12 -43 -80 -163 rlinecurve
            -438 -910 -71 930 -11 146 24 44 126 17 rlinecurve
            9 39 -541 0 -8 -39 85 -14 35 -29 16 -163 rlinecurve
            return
          </CharString>
          <CharString index="324">
            -363 hlineto
            -8 -39 106 -19 23 -49 -25 -111 rlinecurve
            -208 -946 -40 -182 -26 -41 -124 -18 224 callsubr
            41 123 18 24 callgsubr
            return
          </CharString>
          <CharString index="325">
            -264 163 -139 195 -6 hvcurveto
            -32 callgsubr
            62 40 -30 -50 -49 -37 -31 -62 -51 -48 19 28 -29 hvcurveto
            -8 -38 rlineto
            -57 37 65 -43 90 hhcurveto
            endchar
          </CharString>
          <CharString index="326">
            1092 938 39 callgsubr
            -38 -39 11 -46 hhcurveto
            -90 -72 -63 -124 -26 hvcurveto
            43 hlineto
            56 13 32 22 46 hhcurveto
            28 -28 callgsubr
            38 -11 46 hhcurveto
            return
          </CharString>
          <CharString index="327">
            234 16 rrcurveto
            67 4 -262 -1233 -18 -87 -24 -23 -139 -16 rlinecurve
            -8 -39 566 0 8 39 rlineto
            -133 18 -16 20 19 88 117 551 rcurveline
            return
          </CharString>
          <CharString index="328">
            rmoveto
            238 113 245 193 2 hvcurveto
            162 2 -80 158 -173 hhcurveto
            -234 -116 -235 -201 -2 hvcurveto
            -166 -2 82 -156 170 hhcurveto
            return
          </CharString>
          <CharString index="329">
            -537 0 261 1225 20 94 22 19 115 15 rlinecurve
            8 39 -516 0 -8 -39 107 -14 17 -20 -20 -94 rlinecurve
            -260 -1225 -539 0 return
          </CharString>
          <CharString index="330">
            -46 -55 -30 -61 hhcurveto
            -75 -57 23 71 -119 hvcurveto
            -92 56 580 642 9 38 -683 0 -84 -301 rlineto
            34 hlineto
            100 41 28 16 97 hhcurveto
            349 hlineto
            return
          </CharString>
          <CharString index="331">
            rlinecurve
            -8 -39 373 0 8 39 -131 19 -12 38 35 185 rlinecurve
            192 975 594 -1256 134 0 257 1170 38 176 26 return
          </CharString>
          <CharString index="332">
            -11 -53 -85 -400 rcurveline
            -292 -61 150 -132 260 hhcurveto
            259 206 134 211 203 -166 88 -212 -65 -58 -10 -11 -38 hvcurveto
            return
          </CharString>
          <CharString index="333">
            1440 rmoveto
            -182 -107 -133 -200 -9 hvcurveto
            41 hlineto
            109 23 80 66 147 hhcurveto
            115 78 -60 -85 -10 -1 46 callgsubr
            return
          </CharString>
          <CharString index="334">
            0 125 1843 rmoveto
            518 -79 7 36 -499 return
          </CharString>
          <CharString index="335">
            -63 -50 -40 21 23 -25 hvcurveto
            -8 -36 rlineto
            -49 33 62 -37 return
          </CharString>
          <CharString index="336">
            -67 -18 rrcurveto
            29 -26 129 25 75 41 17 80 rlinecurve
            78 return
          </CharString>
          <CharString index="337">
            72 callsubr
            79 64 79 vvcurveto
            70 -60 50 -88 vhcurveto
            return
          </CharString>
          <CharString index="338">
            rmoveto
            -126 -365 59 0 301 359 rlineto
            6 vlineto
            return
          </CharString>
        <CharString name=".notdef">
          2048 59 -494 rmoveto
          79 hlineto
          519 2444 rlineto
          -79 hlineto
          -108 -2444 rmoveto
          78 hlineto
          519 2444 rlineto
          -78 hlineto
          -110 -74 callgsubr
          -109 -74 callgsubr
          -109 -74 callgsubr
          endchar
        </CharString>
        <CharString name=".null">
          0 endchar
        </CharString>
        <CharString name="A">
          1320 1194 245 -103 callsubr
          -94 callsubr
        </CharString>
        <CharString name="AE">
          1874 2030 1444 132 callsubr
        </CharString>
        <CharString name="AEacute">
          1874 1600 -70 callsubr
          -67 callsubr
          194 -366 132 callsubr
        </CharString>
        <CharString name="AEmacron">
          1874 1264 1614 rmoveto
          477 hlineto
          25 118 rlineto
          -476 hlineto
          740 -288 132 callsubr
        </CharString>
        <CharString name="Aacute">
          1320 1090 -70 callsubr
          -67 callsubr
          -132 -1565 -103 callsubr
          -94 callsubr
        </CharString>
        <CharString name="Abreve">
          1320 1013 1578 48 callgsubr
          -102 -71 95 callsubr
          181 -1333 -103 callsubr
          -94 callsubr
        </CharString>
        <CharString name="Abreveacute">
          1320 1308 1843 rmoveto
          27 124 -570 -167 -7 -36 rlineto
          219 -222 -43 callsubr
          87 callsubr
        </CharString>
        <CharString name="Abrevecyrillic">
          1320 977 1596 rmoveto
          152 133 85 174 51 hvcurveto
          -43 14 rlineto
          -148 -46 -113 -78 -128 hhcurveto
          -55 -43 16 25 -31 hvcurveto
          -1 7 6 0 6 hhcurveto
          53 45 43 57 61 -45 46 -58 -64 -43 -49 -64 -98 81 -83 135 hvcurveto
          217 -1351 -103 callsubr
          -94 callsubr
        </CharString>
        <CharString name="Abrevedotbelow">
          1320 1013 1578 48 callgsubr
          -102 -71 95 callsubr
          181 -1333 -103 callsubr
          50 callsubr
          165 callsubr
        </CharString>
        <CharString name="Abrevegrave">
          1320 775 1843 rmoveto
          517 -79 7 36 -499 167 rlineto
          177 -425 -43 callsubr
          87 callsubr
        </CharString>
        <CharString name="Abrevehookabove">
          1320 1045 1958 rmoveto
          -80 -63 -34 -34 -38 hvcurveto
          -7 -29 rlineto
          12 23 42 12 43 hhcurveto
          61 33 -23 -36 -8 hvcurveto
          -7 -36 -38 -25 -68 -16 rrcurveto
          30 -22 132 23 76 34 14 67 rlinecurve
          67 15 -70 40 -90 hhcurveto
          -68 -416 -43 callsubr
          87 callsubr
        </CharString>
        <CharString name="Abrevetilde">
          1320 1146 1794 rmoveto
          92 72 53 106 22 hvcurveto
          -45 hlineto
          -47 -10 -33 -19 -47 hhcurveto
          -28 -27 7 12 -38 hvcurveto
          -30 10 rlineto
          13 -40 -41 9 -46 hhcurveto
          -92 -73 -54 -105 -21 hvcurveto
          43 hlineto
          47 12 32 19 47 hhcurveto
          28 28 -7 -12 38 hvcurveto
          30 -10 rlineto
          -13 39 41 -9 47 hhcurveto
          -169 -252 -43 callsubr
          87 callsubr
        </CharString>
        <CharString name="Acaron">
          1320 1237 34 callsubr
          -89 -1583 -103 callsubr
          -94 callsubr
        </CharString>
        <CharString name="Acircumflex">
          1320 779 -74 callsubr
          -127 0 -238 -275 rlineto
          460 -1289 -103 callsubr
          -94 callsubr
        </CharString>
        <CharString name="Acircumflexacute">
          1320 1303 -72 callgsubr
          -51 -240 rmoveto
          285 -45 callsubr
          485 -1294 -103 callsubr
          -94 callsubr
        </CharString>
        <CharString name="Acircumflexdotbelow">
          1320 779 -74 callsubr
          -127 0 -238 -275 rlineto
          460 -1289 -103 callsubr
          50 callsubr
          165 callsubr
        </CharString>
        <CharString name="Acircumflexgrave">
          1320 770 1821 rmoveto
          517 -78 7 35 -498 168 rlineto
          -94 -443 rmoveto
          285 -45 callsubr
          485 -1294 -103 callsubr
          -94 callsubr
        </CharString>
        <CharString name="Acircumflexhookabove">
          1320 1283 1907 rmoveto
          -77 -62 69 callgsubr
          -7 hvcurveto
          -8 -36 -36 -25 -66 81 callgsubr
          -85 hhcurveto
          -581 -404 rmoveto
          285 -45 callsubr
          485 -1294 -103 callsubr
          -94 callsubr
        </CharString>
        <CharString name="Acircumflextilde">
          1320 1141 1772 rmoveto
          93 72 54 106 21 hvcurveto
          -44 hlineto
          -48 -11 -32 -18 -47 hhcurveto
          -28 -28 7 11 -38 hvcurveto
          -30 11 rlineto
          12 -39 -41 10 -47 hhcurveto
          -92 -72 -54 -106 -22 hvcurveto
          44 hlineto
          47 12 31 52 callgsubr
          -439 -269 rmoveto
          285 -45 callsubr
          485 -1294 -103 callsubr
          -94 callsubr
        </CharString>
        <CharString name="Acyrillic">
          1320 1194 245 -103 callsubr
          -94 callsubr
        </CharString>
        <CharString name="Adblgrave">
          1320 800 1807 rmoveto
          -188 -4 hlineto
          243 -271 rlineto
          38 hlineto
          203 275 rmoveto
          -181 -4 hlineto
          186 -271 rlineto
          35 hlineto
          58 -1287 -103 callsubr
          -94 callsubr
        </CharString>
        <CharString name="Adieresis">
          1320 850 1573 rmoveto
          57 45 45 56 54 -40 43 -54 62 callsubr
          -34 callsubr
          hvcurveto
          54 1 -41 43 -54 hhcurveto
          62 callsubr
          42 -1328 -103 callsubr
          -94 callsubr
        </CharString>
        <CharString name="Adieresismacron">
          1320 769 25 callgsubr
          98 callgsubr
          32 -33 49 hhcurveto
          305 hmoveto
          49 45 33 45 10 hvcurveto
          43 -6 callsubr
          -46 callgsubr
          73 -1317 -103 callsubr
          -94 callsubr
        </CharString>
        <CharString name="Adotaccent">
          1320 1002 -78 callsubr
          -45 45 -58 -100 callgsubr
          192 -1322 -103 callsubr
          -94 callsubr
        </CharString>
        <CharString name="Adotbelow">
          1320 1194 245 -103 callsubr
          50 callsubr
          165 callsubr
        </CharString>
        <CharString name="Adotmacron">
          1320 764 1796 rmoveto
          535 hlineto
          19 94 rlineto
          -534 hlineto
          217 -330 rmoveto
          51 40 34 46 -1 hvcurveto
          45 -43 35 -52 -52 -38 -35 -45 -46 42 -34 53 vhcurveto
          193 -1315 -103 callsubr
          -94 callsubr
        </CharString>
        <CharString name="Agrave">
          1320 960 63 callsubr
          269 -270 rlineto
          37 hlineto
          142 -1288 -103 callsubr
          -94 callsubr
        </CharString>
        <CharString name="Ahookabove">
          1320 1035 1848 rmoveto
          -77 -67 -37 -58 -36 hvcurveto
          -6 -30 rlineto
          22 -49 callgsubr
          -90 -56 callgsubr
          159 -1603 -103 callsubr
          -94 callsubr
        </CharString>
        <CharString name="Ainvertedbreve">
          1320 1017 1869 rmoveto
          -165 -96 -116 -175 -7 hvcurveto
          40 hlineto
          96 18 94 callgsubr
          40 hlineto
          10 27 7 33 30 vvcurveto
          114 -1 -88 87 -134 hhcurveto
          177 -1624 -103 callsubr
          -94 callsubr
        </CharString>
        <CharString name="Alphagreek">
          1320 1194 245 -103 callsubr
          -94 callsubr
        </CharString>
        <CharString name="Alphatonosgreek">
          1320 1194 245 -103 callsubr
          -712 1199 231 callsubr
          -236 -878 rmoveto
          339 641 73 -641 rlineto
          endchar
        </CharString>
        <CharString name="Amacron">
          1320 754 1614 rmoveto
          477 hlineto
          25 118 rlineto
          -477 hlineto
          415 -1487 -103 callsubr
          -94 callsubr
        </CharString>
        <CharString name="Aogonek">
          1320 1003 -63 callgsubr
          -19 -26 -11 -29 hhcurveto
          -63 -42 65 100 69 26 71 52 61 hvcurveto
          246 hlineto
          8 39 -86 14 -33 30 -22 162 rlinecurve
          207 callsubr
          rlineto
          16 -143 -30 -47 -130 -17 -8 -39 rcurveline
          262 hlineto
          -137 -94 -81 -111 -109 vvcurveto
          -95 77 -67 105 vhcurveto
          -523 1042 rmoveto
          339 641 73 -641 rlineto
          endchar
        </CharString>
        <CharString name="Aring">
          1320 795 1711 rmoveto
          -98 96 -56 105 142 97 73 102 99 -95 57 -106 -143 -96 -75 -102 vhcurveto
          137 -27 rmoveto
          86 45 78 55 42 24 -31 -55 -87 -45 -78 -55 -42 -24 30 57 vhcurveto
          262 -1439 -103 callsubr
          -94 callsubr
        </CharString>
        <CharString name="Aringacute">
          1320 1304 1826 -36 callgsubr
          244 -213 rmoveto
          125 89 35 54 11 hvcurveto
          55 12 -74 35 -125 hhcurveto
          -45 hlineto
          -123 -92 -35 -55 -12 hvcurveto
          -54 -11 76 -35 123 hhcurveto
          46 31 rmoveto
          -32 hlineto
          -42 -20 24 34 7 hvcurveto
          35 6 31 23 43 hhcurveto
          32 hlineto
          45 18 -23 -35 -7 hvcurveto
          -34 -7 -30 -24 -44 hhcurveto
          196 -1320 -103 callsubr
          -94 callsubr
        </CharString>
        <CharString name="Aringbelow">
          1320 1194 245 -103 callsubr
          50 callsubr
          -588 -864 rmoveto
          -97 1 108 -57 118 hhcurveto
          157 107 4 callgsubr
          61 hhcurveto
          46 28 68 callgsubr
        </CharString>
        <CharString name="Atilde">
          1320 1097 115 callsubr
          206 callsubr
          33 -18 45 hhcurveto
          97 -1337 -103 callsubr
          -94 callsubr
        </CharString>
        <CharString name="B">
          1293 1300 445 82 callsubr
        </CharString>
        <CharString name="Bdotaccent">
          1293 921 -78 callsubr
          -17 callsubr
          379 -1122 82 callsubr
        </CharString>
        <CharString name="Bdotbelow">
          200 callsubr
          -458 -629 21 callsubr
          54 callsubr
        </CharString>
        <CharString name="Becyrillic">
          1273 1298 459 rmoveto
          226 -198 137 -342 vhcurveto
          -136 hlineto
          122 576 200 -8 283 -11 52 -56 4 -220 rlinecurve
          34 hlineto
          58 341 -1017 0 -8 -39 rlineto
          118 -17 15 -18 -19 -94 -236 -1108 rcurveline
          -20 -94 -24 -18 -124 -17 -8 -39 rcurveline
          533 hlineto
          418 295 175 284 hvcurveto
          -269 12 rmoveto
          -244 -169 -167 -305 -11 vhcurveto
          -99 -3 155 726 106 -2 rlineto
          199 -4 113 -101 -194 vvcurveto
          endchar
        </CharString>
        <CharString name="Betagreek">
          1293 1300 445 82 callsubr
        </CharString>
        <CharString name="Blinebelow">
          200 callsubr
          -719 -793 -82 callsubr
        </CharString>
        <CharString name="C">
          1372 520 577 -47 callsubr
          6 callsubr
        </CharString>
        <CharString name="Cacute">
          1372 1237 -70 callsubr
          -67 callsubr
          -953 -1233 -47 callsubr
          6 callsubr
        </CharString>
        <CharString name="Ccaron">
          1372 1384 34 callsubr
          -910 -1251 -47 callsubr
          6 callsubr
        </CharString>
        <CharString name="Ccedilla">
          1372 520 577 -47 callsubr
          -3 -419 273 -228 318 -23 rrcurveto
          -130 -146 -7 -37 rlineto
          2 5 17 -92 callgsubr
          169 callsubr
          18 callsubr
          -36 callsubr
          78 87 rlineto
          2 hlineto
          156 callsubr
        </CharString>
        <CharString name="Ccedillaacute">
          1372 1237 -70 callsubr
          -67 callsubr
          -953 -1233 -47 callsubr
          -3 -419 273 -228 318 -23 rrcurveto
          -130 -146 -7 -37 rlineto
          2 5 17 -92 callgsubr
          169 callsubr
          18 callsubr
          -36 callsubr
          78 87 rlineto
          2 hlineto
          156 callsubr
        </CharString>
        <CharString name="Ccircumflex">
          1372 926 -74 callsubr
          -127 0 -238 -275 rlineto
          -361 -957 -47 callsubr
          6 callsubr
        </CharString>
        <CharString name="Cdotaccent">
          1372 1149 -78 callsubr
          -45 45 -58 -100 callgsubr
          -629 -990 -47 callsubr
          6 callsubr
        </CharString>
        <CharString name="Checyrillic">
          1482 1078 165 rmoveto
          -20 -90 -25 -20 -133 -16 rrcurveto
          -8 -39 538 0 8 39 -108 15 -18 19 20 95 rlinecurve
          235 1108 20 95 25 18 117 -38 callsubr
          rlineto
          108 -16 17 -19 -20 -94 -120 -563 rcurveline
          -33 -87 -88 -23 -113 hhcurveto
          -214 -89 126 243 52 hvcurveto
          53 251 21 94 23 20 114 14 rlinecurve
          8 39 -518 0 -8 -39 rlineto
          110 -15 15 -19 -19 -94 -50 -235 rcurveline
          -306 -65 172 -148 326 hhcurveto
          143 101 30 43 102 hvcurveto
          endchar
        </CharString>
        <CharString name="Chigreek">
          1277 312 273 24 callsubr
        </CharString>
        <CharString name="D">
          1482 -16 callsubr
          -60 callsubr
          endchar
        </CharString>
        <CharString name="Dbar">
          1482 205 716 rmoveto
          134 hlineto
          -117 -548 rlineto
          -19 -93 -23 -20 -119 -16 -8 -39 rcurveline
          484 hlineto
          566 447 325 500 378 -285 241 -444 hvcurveto
          -461 -98 callgsubr
          -110 -512 rcurveline
          -134 hlineto
          1051 98 113 callsubr
          142 670 262 0 10 48 -261 0 135 634 78 -3 rlineto
          308 -16 141 -229 -288 vvcurveto
          endchar
        </CharString>
        <CharString name="Dcaron">
          1482 1239 -55 callsubr
          -14 callsubr
          -51 callsubr
          265 -1003 32 callsubr
          -60 callsubr
          endchar
        </CharString>
        <CharString name="Dcircumflexbelow">
          1482 -16 callsubr
          -60 callsubr
          -904 -1310 -23 callsubr
        </CharString>
        <CharString name="Dcommaaccent">
          1482 -16 callsubr
          -60 callsubr
          -690 -1311 rmoveto
          133 91 66 101 102 -76 58 -84 13 callsubr
          14 26 5 23 hhcurveto
          54 40 111 callsubr
        </CharString>
        <CharString name="Ddotaccent">
          1482 1005 116 callsubr
          -100 callgsubr
          545 -742 32 callsubr
          -60 callsubr
          endchar
        </CharString>
        <CharString name="Ddotbelow">
          1482 -16 callsubr
          -60 callsubr
          -664 -1045 109 callsubr
        </CharString>
        <CharString name="Decyrillic">
          1424 639 989 rmoveto
          26 96 56 246 13 60 rrcurveto
          517 hlineto
          -286 -1338 rlineto
          -713 hlineto
          128 120 139 290 120 526 rrcurveto
          773 -936 rmoveto
          -193 hlineto
          261 1223 20 95 25 18 116 16 rlinecurve
          8 39 -1150 0 -8 -39 rlineto
          139 -18 32 -46 -32 -142 -14 -64 -24 -96 -14 -48 -118 -510 -141 -312 -147 -116 rrcurveto
          -133 hlineto
          -88 -380 rlineto
          43 hlineto
          257 128 44 70 231 hhcurveto
          636 hlineto
          221 32 -58 -269 17 hvcurveto
          43 hlineto
          endchar
        </CharString>
        <CharString name="Deltagreek">
          1276 58 hmoveto
          1106 hlineto
          8 39 -191 1411 -127 0 -788 -1411 rlineto
          72 13 rmoveto
          627 1141 134 -1141 rlineto
          endchar
        </CharString>
        <CharString name="Djecyrillic">
          1681 1678 425 rmoveto
          257 -165 143 -285 -128 -95 -21 -35 -89 vhcurveto
          61 callgsubr
          60 358 -1150 0 -88 -358 rlineto
          36 hlineto
          97 226 76 66 220 callsubr
          25 73 76 14 93 hhcurveto
          183 95 -102 -201 -325 -159 -311 -294 -159 hvcurveto
          13 -34 rlineto
          406 129 287 310 363 vvcurveto
          endchar
        </CharString>
        <CharString name="Dlinebelow">
          1482 -16 callsubr
          -60 callsubr
          -925 -1209 -82 callsubr
        </CharString>
        <CharString name="Dzecyrillic">
          1108 576 -22 75 callsubr
          endchar
        </CharString>
        <CharString name="Dzhecyrillic">
          1505 159 callsubr
          492 hlineto
          118 16 -39 -289 -16 hvcurveto
          43 hlineto
          289 106 33 39 117 hhcurveto
          493 hlineto
          8 39 -111 16 -17 19 20 94 rlinecurve
          235 1108 20 95 24 18 118 16 rlinecurve
          9 39 -520 0 -8 -39 106 123 callsubr
          -625 0 261 1224 20 45 callgsubr
        </CharString>
        <CharString name="E">
          1183 1366 -11 callsubr
          -101 callsubr
          -104 callsubr
          -102 callsubr
          -92 callsubr
        </CharString>
        <CharString name="Eacute">
          1183 1044 -80 callsubr
          -68 callsubr
          86 -366 -89 callsubr
          -101 callsubr
          -104 callsubr
          -102 callsubr
          -92 callsubr
        </CharString>
        <CharString name="Ebreve">
          1183 967 88 callsubr
          399 -134 -89 callsubr
          -101 callsubr
          -104 callsubr
          -102 callsubr
          -92 callsubr
        </CharString>
        <CharString name="Ecaron">
          1183 1190 -55 callsubr
          -14 callsubr
          -51 callsubr
          130 -384 -89 callsubr
          -101 callsubr
          -104 callsubr
          -102 callsubr
          -92 callsubr
        </CharString>
        <CharString name="Ecedilla">
          1183 535 -450 85 callgsubr
          1 7 466 -29 callsubr
          60 358 -992 0 -8 -39 -101 callsubr
          -104 callsubr
          -102 callsubr
          532 0 -148 -166 -6 -9 callsubr
          62 39 -30 -50 -49 -37 -31 174 callsubr
        </CharString>
        <CharString name="Ecedillabreve">
          1183 967 88 callsubr
          -432 -2028 85 callgsubr
          1 7 466 -29 callsubr
          60 358 -992 0 -8 -39 -101 callsubr
          -104 callsubr
          -102 callsubr
          532 0 -148 -166 -6 -9 callsubr
          62 39 -30 -50 -49 -37 -31 174 callsubr
        </CharString>
        <CharString name="Ecircumflex">
          1183 732 1534 rmoveto
          237 171 callsubr
          678 -90 -89 callsubr
          -101 callsubr
          -104 callsubr
          -102 callsubr
          -92 callsubr
        </CharString>
        <CharString name="Ecircumflexacute">
          1183 1256 -72 callgsubr
          -52 -240 rmoveto
          286 -45 callsubr
          704 -95 -89 callsubr
          -101 callsubr
          -104 callsubr
          -102 callsubr
          -92 callsubr
        </CharString>
        <CharString name="Ecircumflexbelow">
          1183 1366 -11 callsubr
          -101 callsubr
          -104 callsubr
          -102 callsubr
          1045 -29 callsubr
          -995 -1534 -23 callsubr
        </CharString>
        <CharString name="Ecircumflexdotbelow">
          1183 732 1534 rmoveto
          237 171 callsubr
          678 -90 -89 callsubr
          -101 callsubr
          -104 callsubr
          -102 callsubr
          1045 -29 callsubr
          -755 -97 callgsubr
          -41 callsubr
        </CharString>
        <CharString name="Ecircumflexgrave">
          1183 723 1821 rmoveto
          517 -78 7 35 -499 168 rlineto
          -94 -443 rmoveto
          286 -45 callsubr
          704 -95 -89 callsubr
          -101 callsubr
          -104 callsubr
          -102 callsubr
          -92 callsubr
        </CharString>
        <CharString name="Ecircumflexhookabove">
          1183 1235 1907 rmoveto
          -77 -61 69 callgsubr
          -8 hvcurveto
          -7 -36 -37 -25 -65 81 callgsubr
          -86 hhcurveto
          -581 -404 rmoveto
          286 -45 callsubr
          704 -95 -89 callsubr
          -101 callsubr
          -104 callsubr
          -102 callsubr
          -92 callsubr
        </CharString>
        <CharString name="Ecircumflextilde">
          1183 1094 1772 rmoveto
          93 71 -29 callgsubr
          -46 hhcurveto
          -28 -28 7 11 -38 hvcurveto
          -30 11 rlineto
          12 -40 -40 10 -47 hhcurveto
          -92 -73 -54 -106 -21 hvcurveto
          44 hlineto
          47 11 32 52 callgsubr
          -440 -269 rmoveto
          286 -45 callsubr
          704 -95 -89 callsubr
          -101 callsubr
          -104 callsubr
          -102 callsubr
          -92 callsubr
        </CharString>
        <CharString name="Ecyrillic">
          1384 524 577 rmoveto
          46 3 45 4 44 vhcurveto
          649 -12 15 75 -658 -12 rlineto
          370 54 212 275 286 hhcurveto
          206 128 -124 -288 7 hvcurveto
          35 -2 62 337 rlineto
          69 72 callgsubr
          -442 -3 304 -230 340 hhcurveto
          177 149 39 64 92 hvcurveto
          72 342 -36 -1 rlineto
          -234 -89 -159 91 callgsubr
        </CharString>
        <CharString name="Edblgrave">
          1183 753 -82 callgsubr
          276 -88 -89 callsubr
          -101 callsubr
          -104 callsubr
          -102 callsubr
          -92 callsubr
        </CharString>
        <CharString name="Edieresis">
          1183 804 -107 callgsubr
          -49 callsubr
          -34 callsubr
          -93 callgsubr
          -32 callsubr
          260 -129 -89 callsubr
          -101 callsubr
          -104 callsubr
          -102 callsubr
          -92 callsubr
        </CharString>
        <CharString name="Edotaccent">
          1183 956 116 callsubr
          -62 -49 -47 -61 -57 45 -44 59 hvcurveto
          410 -123 -89 callsubr
          -101 callsubr
          -104 callsubr
          -102 callsubr
          -92 callsubr
        </CharString>
        <CharString name="Edotbelow">
          1183 1366 -11 callsubr
          -101 callsubr
          -104 callsubr
          -102 callsubr
          1045 -29 callsubr
          -755 -97 callgsubr
          -41 callsubr
        </CharString>
        <CharString name="Efcyrillic">
          1846 200 670 rmoveto
          -274 244 -166 393 -20 vhcurveto
          -14 -68 -19 -87 -22 -23 -125 -13 rlinecurve
          -8 -40 530 0 8 40 rlineto
          -116 15 -18 20 18 88 14 66 rcurveline
          556 16 303 215 335 vvcurveto
          274 -247 167 -395 19 vhcurveto
          14 68 18 87 24 23 123 13 rlinecurve
          9 40 -530 0 -9 -40 rlineto
          117 -15 18 -20 -19 -88 -14 -66 rcurveline
          -553 -18 -300 -215 -333 vvcurveto
          282 -13 rmoveto
          305 189 197 371 26 vhcurveto
          -194 -923 rlineto
          -251 29 -115 156 210 vvcurveto
          1179 130 rmoveto
          -307 -190 -196 -375 -25 vhcurveto
          195 923 rlineto
          254 -28 116 -156 -211 vvcurveto
          endchar
        </CharString>
        <CharString name="Egrave">
          1183 914 102 callsubr
          360 -89 -89 callsubr
          -101 callsubr
          -104 callsubr
          -102 callsubr
          -92 callsubr
        </CharString>
        <CharString name="Ehookabove">
          1183 989 -35 callgsubr
          60 34 -28 -44 -49 -48 -50 72 callsubr
          80 66 callsubr
          377 -404 -89 callsubr
          -101 callsubr
          -104 callsubr
          -102 callsubr
          -92 callsubr
        </CharString>
        <CharString name="Einvertedbreve">
          1183 971 140 callsubr
          395 -425 -89 callsubr
          -101 callsubr
          -104 callsubr
          -102 callsubr
          -92 callsubr
        </CharString>
        <CharString name="Elcyrillic">
          1431 194 -22 rmoveto
          199 104 240 484 129 hvcurveto
          64 230 51 200 57 261 rrcurveto
          489 hlineto
          -261 -1225 -20 -95 -22 -18 -117 -16 20 callsubr
          -108 15 -19 20 20 94 rlinecurve
          236 1108 20 95 25 18 116 16 rlinecurve
          8 39 -1123 210 callsubr
          -81 58 -61 93 vhcurveto
          endchar
        </CharString>
        <CharString name="Emacron">
          1183 708 -19 callsubr
          633 -288 -89 callsubr
          -101 callsubr
          -104 callsubr
          -102 callsubr
          -92 callsubr
        </CharString>
        <CharString name="Emacronacute">
          1183 1261 1843 -36 callgsubr
          -37 -171 rmoveto
          534 hlineto
          20 94 rlineto
          -534 hlineto
          672 -243 -89 callsubr
          -101 callsubr
          -104 callsubr
          -102 callsubr
          -92 callsubr
        </CharString>
        <CharString name="Emacrongrave">
          1183 728 1843 rmoveto
          517 -79 7 36 -499 -61 callgsubr
          -534 hlineto
          672 -243 -89 callsubr
          -101 callsubr
          -104 callsubr
          -102 callsubr
          -92 callsubr
        </CharString>
        <CharString name="Emcyrillic">
          1731 772 1444 29 callsubr
        </CharString>
        <CharString name="Encyrillic">
          1516 477 -7 callsubr
          -4 callsubr
          117 callsubr
          endchar
        </CharString>
        <CharString name="Eogonek">
          1183 878 -63 callgsubr
          -18 -26 -11 -30 hhcurveto
          -63 -41 65 100 69 25 71 53 61 hvcurveto
          155 hlineto
          -76 callsubr
          -109 -261 -101 -67 -287 -48 callgsubr
          62 callgsubr
          -59 -150 -43 -43 -128 -5 rrcurveto
          -220 -4 135 636 197 -9 253 -11 57 -54 11 -238 rlinecurve
          35 hlineto
          60 358 -992 0 -8 -39 rlineto
          -101 callsubr
          -236 -1108 rcurveline
          -20 -93 -23 -20 -119 -16 -8 -39 rcurveline
          847 hlineto
          -136 -94 -81 -111 -109 vvcurveto
          -95 76 -67 105 vhcurveto
          endchar
        </CharString>
        <CharString name="Epsilongreek">
          1183 1366 -11 callsubr
          -101 callsubr
          -104 callsubr
          -102 callsubr
          -92 callsubr
        </CharString>
        <CharString name="Epsilontonosgreek">
          1519 1702 -11 callsubr
          111 -16 15 -20 -20 -93 -104 callsubr
          -93 -22 -20 -119 -16 rlinecurve
          -8 -39 1045 0 -76 callsubr
          -110 -261 -101 -67 -286 -48 callgsubr
          125 -4 20 -49 -2 -158 rlinecurve
          33 hlineto
          98 463 rlineto
          -33 hlineto
          -60 -150 -43 -43 -128 -5 rrcurveto
          -220 -4 135 636 198 -9 252 -11 56 -54 13 -238 rlinecurve
          35 hlineto
          -1282 358 -20 callsubr
        </CharString>
        <CharString name="Ercyrillic">
          1256 598 hmoveto
          28 callsubr
        </CharString>
        <CharString name="Ereversedcyrillic">
          1419 429 1359 rmoveto
          -80 -335 rlineto
          35 hlineto
          282 103 165 105 174 hhcurveto
          264 119 -258 -314 -26 -1 -26 -2 -26 hvcurveto
          -654 13 -16 -77 666 11 rlineto
          -354 -41 -202 -323 -324 hhcurveto
          -251 -101 179 198 -10 hvcurveto
          -35 hlineto
          -43 -312 rlineto
          -70 87 168 -48 189 hhcurveto
          494 353 342 465 397 -251 284 -405 -148 -153 -39 -68 -100 hvcurveto
          endchar
        </CharString>
        <CharString name="Escyrillic">
          1372 520 577 -47 callsubr
          6 callsubr
        </CharString>
        <CharString name="Etagreek">
          1516 477 -7 callsubr
          -4 callsubr
          117 callsubr
          endchar
        </CharString>
        <CharString name="Etatonosgreek">
          1866 827 -7 callsubr
          633 0 -116 -545 -19 -93 -24 -21 -115 -15 20 callsubr
          -111 16 -16 21 20 93 rlinecurve
          235 1106 20 93 25 21 118 16 rlinecurve
          8 39 -521 0 -8 -39 109 -15 15 -20 -20 -94 rlinecurve
          -109 -511 -634 0 109 58 callgsubr
          111 -16 16 -21 -20 -93 rlinecurve
          -235 -1106 -21 -92 -23 -22 -119 -16 rlinecurve
          -8 -39 117 callsubr
          -467 1276 -20 callsubr
        </CharString>
        <CharString name="Etilde">
          1183 1050 45 callsubr
          -15 -24 40 callsubr
          39 hlineto
          80 14 24 30 -77 callgsubr
          44 hhcurveto
          316 -138 -89 callsubr
          -101 callsubr
          -104 callsubr
          -102 callsubr
          -92 callsubr
        </CharString>
        <CharString name="Etildebelow">
          1183 1366 -11 callsubr
          -101 callsubr
          -104 callsubr
          -102 callsubr
          1045 -29 callsubr
          -659 -1488 77 callgsubr
          -25 callgsubr
          108 callsubr
          31 callgsubr
        </CharString>
        <CharString name="F">
          1112 1338 1444 rmoveto
          -963 hlineto
          -8 112 callsubr
          -20 -93 -22 -20 -119 -16 rlinecurve
          -8 -39 547 0 9 39 -134 17 199 callsubr
        </CharString>
        <CharString name="Fdotaccent">
          1112 936 -78 callsubr
          -17 callsubr
          402 -123 rmoveto
          -963 hlineto
          -8 112 callsubr
          -20 -93 -22 -20 -119 -16 rlinecurve
          -8 -39 547 0 9 39 -134 17 199 callsubr
        </CharString>
        <CharString name="G">
          1498 245 650 -30 callsubr
        </CharString>
        <CharString name="Gacute">
          1498 1229 -80 callsubr
          -35 callsubr
          -1219 -1160 -30 callsubr
        </CharString>
        <CharString name="Gammagreek">
          1115 1348 1444 rmoveto
          -984 hlineto
          -8 -39 118 -17 16 -18 -19 -94 rlinecurve
          -237 -1108 -19 -94 -24 -18 -124 -17 rlinecurve
          -9 -39 561 0 8 39 -139 19 -18 19 19 88 rlinecurve
          261 1233 188 -8 268 -11 47 -56 3 -220 rlinecurve
          35 hlineto
          endchar
        </CharString>
        <CharString name="Gbreve">
          1498 1152 88 callsubr
          -907 -928 -30 callsubr
        </CharString>
        <CharString name="Gcaron">
          1498 1375 -55 callsubr
          -14 callsubr
          -51 callsubr
          -1176 -1178 -30 callsubr
        </CharString>
        <CharString name="Gcircumflex">
          1498 917 -74 callsubr
          16 callsubr
          -628 -884 -30 callsubr
        </CharString>
        <CharString name="Gcommaaccent">
          1498 245 650 rmoveto
          -434 -3 318 -238 338 hhcurveto
          170 183 47 81 106 hvcurveto
          88 407 18 85 22 25 109 15 rlinecurve
          8 39 -494 0 -9 -39 rlineto
          124 -17 11 -22 -18 -86 -90 -426 rcurveline
          -35 -42 -80 -17 -81 hhcurveto
          -237 -164 209 333 460 232 371 335 208 129 -124 -288 8 hvcurveto
          35 -2 62 337 rlineto
          69 73 callgsubr
          526 -1099 -64 callsubr
          -24 callsubr
        </CharString>
        <CharString name="Gdotaccent">
          1498 1140 -78 callsubr
          120 callsubr
          -895 -917 -30 callsubr
        </CharString>
        <CharString name="Geacutecyrillic">
          1099 989 -70 callsubr
          43 0 -68 callsubr
          119 -366 rmoveto
          -984 154 callsubr
          -16 callgsubr
        </CharString>
        <CharString name="Gecyrillic">
          1099 1344 1444 rmoveto
          -984 154 callsubr
          -16 callgsubr
        </CharString>
        <CharString name="Germandbls">
          1395 453 hmoveto
          296 1398 171 -7 rlineto
          220 -10 94 -95 -165 vvcurveto
          -164 -107 -106 -174 -29 vhcurveto
          -35 -162 rlineto
          175 -84 77 -113 -163 vvcurveto
          -161 -96 -106 -138 -128 -107 108 223 9 vhcurveto
          -37 hlineto
          -60 -298 rlineto
          -50 60 122 -38 141 hhcurveto
          239 217 163 261 197 -110 148 -179 83 hvcurveto
          194 13 167 104 191 vvcurveto
          190 -161 116 -299 vhcurveto
          -635 hlineto
          -9 -39 rlineto
          114 -16 16 -19 -20 -94 -235 -1108 rcurveline
          -19 -95 -24 -18 -120 -16 -8 -39 rcurveline
          endchar
        </CharString>
        <CharString name="Geupturncyrillic">
          1079 1311 1394 rmoveto
          91 386 rlineto
          -44 hlineto
          -274 -127 -61 -62 -224 hhcurveto
          -586 154 callsubr
          547 0 9 39 rlineto
          -131 18 -21 20 19 88 260 1229 rcurveline
          endchar
        </CharString>
        <CharString name="Gmacron">
          1498 893 -19 callsubr
          -673 -1082 -30 callsubr
        </CharString>
        <CharString name="H">
          1516 477 -7 callsubr
          -4 callsubr
          117 callsubr
          endchar
        </CharString>
        <CharString name="Hacyrillic">
          1277 312 273 24 callsubr
        </CharString>
        <CharString name="Hardsigncyrillic">
          1488 1554 479 rmoveto
          235 -203 135 -335 4 vhcurveto
          -132 1 90 425 19 89 25 22 125 15 rlinecurve
          8 39 -778 0 -85 -340 rlineto
          36 hlineto
          98 234 59 45 228 12 rrcurveto
          36 2 -262 -1232 rlineto
          -19 -89 -23 -21 -130 -16 -8 -39 rcurveline
          537 hlineto
          441 273 196 283 hvcurveto
          -268 22 114 callsubr
          162 759 101 -3 rlineto
          202 -8 109 -101 -192 vvcurveto
          endchar
        </CharString>
        <CharString name="Hbar">
          1516 477 -7 callsubr
          634 0 -117 -545 -19 -93 -22 -21 -115 -15 rlinecurve
          -8 -39 517 0 9 39 -111 16 -16 19 20 94 rlinecurve
          190 890 134 0 10 48 -134 0 36 170 19 93 24 20 117 16 rlinecurve
          9 39 -518 0 -8 -39 109 -15 13 -20 -20 -94 rlinecurve
          -36 -170 -634 0 36 170 20 93 24 21 113 15 rlinecurve
          9 39 -518 0 -8 -39 112 -16 14 -20 -19 -93 rlinecurve
          -37 -170 -134 0 -10 -48 134 0 -190 -890 -19 -102 callsubr
          518 0 9 39 -107 15 -16 21 20 93 rlinecurve
          127 597 rmoveto
          62 293 634 0 -63 -293 rlineto
          endchar
        </CharString>
        <CharString name="Hbrevebelow">
          1516 477 -7 callsubr
          -4 callsubr
          117 callsubr
          216 -604 19 callgsubr
          10 1 11 2 7 hvcurveto
          70 callgsubr
        </CharString>
        <CharString name="Hcaron">
          1516 1344 1827 rmoveto
          -34 callgsubr
          124 -274 126 0 237 274 rlineto
          -913 -1659 rmoveto
          61 callsubr
          117 callsubr
          endchar
        </CharString>
        <CharString name="Hcedilla">
          1516 219 14 callsubr
          -41 callgsubr
          1 1 243 0 8 39 -107 15 -17 21 20 93 rlinecurve
          61 callsubr
          226 0 -142 -166 -8 -37 rlineto
          2 5 18 -92 callgsubr
          -38 -31 -61 -51 -47 20 27 -29 hvcurveto
          -9 -38 rlineto
          -57 36 65 -43 91 hhcurveto
          endchar
        </CharString>
        <CharString name="Hcircumflex">
          1516 886 -74 callsubr
          15 callsubr
          -364 -1366 rmoveto
          61 callsubr
          117 callsubr
          endchar
        </CharString>
        <CharString name="Hdieresis">
          1516 957 1573 rmoveto
          57 45 45 56 hvcurveto
          54 1 -41 43 -54 hhcurveto
          -57 -46 -46 -57 -53 41 -42 54 hvcurveto
          303 hmoveto
          56 45 45 56 1 hvcurveto
          54 -41 43 -54 -57 -46 -46 -57 -53 42 -42 54 vhcurveto
          -783 -1405 rmoveto
          61 callsubr
          117 callsubr
          endchar
        </CharString>
        <CharString name="Hdotaccent">
          1516 1109 -78 callsubr
          -45 45 -58 -61 -50 -48 -60 -57 46 -44 58 hvcurveto
          -632 -1399 rmoveto
          61 callsubr
          117 callsubr
          endchar
        </CharString>
        <CharString name="Hdotbelow">
          1516 477 -7 callsubr
          -4 callsubr
          117 callsubr
          221 -351 -63 callsubr
          -41 callsubr
        </CharString>
        <CharString name="I">
          5 callsubr
          -84 callsubr
        </CharString>
        <CharString name="IAcyrillic">
          1349 375 990 rmoveto
          -166 114 -99 155 -37 vhcurveto
          -283 -342 -141 -168 -106 -112 -91 -29 rlinecurve
          -8 -37 330 0 535 651 rlineto
          11 12 0 12 hhcurveto
          133 hlineto
          -103 -483 -21 -95 -24 -18 -114 -16 rlinecurve
          -9 -39 520 0 9 39 rlineto
          -111 16 -16 18 20 95 235 1108 rcurveline
          20 94 23 19 118 16 9 39 rcurveline
          -527 hlineto
          -439 -263 -169 -285 hvcurveto
          259 -8 rmoveto
          240 164 162 311 11 vhcurveto
          97 3 -148 -698 -120 3 rlineto
          -193 3 -111 99 177 vvcurveto
          endchar
        </CharString>
        <CharString name="IJ">
          1260 477 168 -87 callsubr
          -85 callsubr
          -1 callsubr
          648 82 -31 callsubr
          22 21 118 14 rlinecurve
          9 39 -521 0 -9 -39 112 -57 callgsubr
          12 -67 callgsubr
        </CharString>
        <CharString name="IJacute">
          1260 757 1811 rmoveto
          -198 -276 44 0 -68 callsubr
          383 -1 rmoveto
          -197 -276 -67 callsubr
          -1135 -1642 -87 callsubr
          -85 callsubr
          -1 callsubr
          648 82 -31 callsubr
          22 21 118 14 rlinecurve
          9 39 -521 0 -9 -39 112 -57 callgsubr
          12 -67 callgsubr
        </CharString>
        <CharString name="IUcyrillic">
          2132 52 hmoveto
          520 hlineto
          8 39 rlineto
          -107 15 -18 20 20 94 116 544 rcurveline
          235 hlineto
          -2 -26 -1 -27 -27 vvcurveto
          -389 244 -263 359 441 332 361 471 389 -243 265 -359 -1 vhcurveto
          -400 -2 -310 -295 -55 -406 rrcurveto
          -231 hlineto
          110 514 19 95 25 18 115 -38 callsubr
          44 callgsubr
          1368 -5 rmoveto
          -243 -87 240 260 404 173 473 323 243 87 -240 -261 -404 -173 -472 -323 hvcurveto
          endchar
        </CharString>
        <CharString name="Iacute">
          629 757 1811 rmoveto
          -198 -276 44 0 -68 callsubr
          -516 -1643 -87 callsubr
          -85 callsubr
          -84 callsubr
        </CharString>
        <CharString name="Ibreve">
          629 680 1579 48 callgsubr
          -102 -71 95 callsubr
          -203 -1411 -87 callsubr
          -85 callsubr
          -84 callsubr
        </CharString>
        <CharString name="Icaron">
          629 903 1829 rmoveto
          -233 -150 -163 150 -45 0 125 -274 -51 callsubr
          -472 -1661 -87 callsubr
          -85 callsubr
          -84 callsubr
        </CharString>
        <CharString name="Icircumflex">
          629 446 1535 38 callgsubr
          76 -1367 -87 callsubr
          -85 callsubr
          -84 callsubr
        </CharString>
        <CharString name="Icyrillic">
          5 callsubr
          -84 callsubr
        </CharString>
        <CharString name="Idblgrave">
          629 466 1808 rmoveto
          -187 -4 hlineto
          242 -271 rlineto
          39 hlineto
          203 275 rmoveto
          -181 -4 hlineto
          185 -271 rlineto
          36 hlineto
          -326 -1365 -87 callsubr
          -85 callsubr
          -84 callsubr
        </CharString>
        <CharString name="Idieresis">
          629 517 1574 rmoveto
          -58 callsubr
          -32 callsubr
          -34 callsubr
          54 -41 43 -53 62 callsubr
          -342 -1406 -87 callsubr
          -85 callsubr
          -84 callsubr
        </CharString>
        <CharString name="Idieresisacute">
          629 974 1843 rmoveto
          27 125 -570 -168 -8 -35 rlineto
          73 -202 -50 callsubr
          98 callgsubr
          31 -33 50 hhcurveto
          305 hmoveto
          49 45 33 45 10 hvcurveto
          43 -6 callsubr
          -46 callgsubr
          -310 -1395 -87 callsubr
          -85 callsubr
          -84 callsubr
        </CharString>
        <CharString name="Idotaccent">
          629 669 1568 rmoveto
          61 48 48 59 57 -44 45 -58 -100 callgsubr
          -192 -1400 -87 callsubr
          -85 callsubr
          -84 callsubr
        </CharString>
        <CharString name="Idotbelow">
          5 callsubr
          -1 callsubr
          -218 -351 -63 callsubr
          -41 callsubr
        </CharString>
        <CharString name="Iecyrillic">
          1183 1366 -11 callsubr
          -101 callsubr
          -104 callsubr
          -102 callsubr
          -92 callsubr
        </CharString>
        <CharString name="Igrave">
          629 627 1809 rmoveto
          -215 -5 hlineto
          270 -270 rlineto
          37 hlineto
          -242 -1366 -87 callsubr
          -85 callsubr
          -84 callsubr
        </CharString>
        <CharString name="Ihookabove">
          629 702 1849 rmoveto
          -78 -66 -37 -58 -36 hvcurveto
          -7 -30 rlineto
          22 29 36 14 42 hhcurveto
          61 33 -28 -44 -49 -48 -50 -89 -56 callgsubr
          -225 -1681 -87 callsubr
          -85 callsubr
          -84 callsubr
        </CharString>
        <CharString name="Iicyrillic">
          1527 52 hmoveto
          189 callsubr
        </CharString>
        <CharString name="Iinvertedbreve">
          629 684 1870 rmoveto
          -165 -97 -116 -175 -6 hvcurveto
          39 hlineto
          96 19 94 callgsubr
          79 callgsubr
          -207 -1702 -87 callsubr
          -85 callsubr
          -84 callsubr
        </CharString>
        <CharString name="Iishortcyrillic">
          1527 1095 1596 7 callgsubr
          25 -30 hvcurveto
          -1 6 6 0 7 hhcurveto
          52 45 43 57 61 -45 46 -57 -64 -44 -49 -64 -98 81 -83 135 hvcurveto
          -1043 -1596 rmoveto
          189 callsubr
        </CharString>
        <CharString name="Imacron">
          629 421 1615 -37 callgsubr
          31 -1565 -87 callsubr
          -85 callsubr
          -84 callsubr
        </CharString>
        <CharString name="Iocyrillic">
          1183 804 -107 callgsubr
          -49 callsubr
          -34 callsubr
          -93 callgsubr
          -32 callsubr
          260 -129 -89 callsubr
          -101 callsubr
          -104 callsubr
          -102 callsubr
          -92 callsubr
        </CharString>
        <CharString name="Iogonek">
          5 callsubr
          rlineto
          112 -14 14 -22 -19 -93 -105 callgsubr
          -119 -16 -8 -39 rcurveline
          251 hlineto
          -137 -94 -80 -111 -109 vvcurveto
          -95 76 -67 105 80 62 41 60 28 vhcurveto
          8 38 rlineto
          -18 -18 -26 -11 -29 hhcurveto
          -63 -41 65 100 69 24 71 53 61 hvcurveto
          230 hlineto
          8 39 -113 16 -14 20 20 93 rlinecurve
          endchar
        </CharString>
        <CharString name="Iotadieresisgreek">
          629 517 1574 rmoveto
          -58 callsubr
          -32 callsubr
          -34 callsubr
          54 -41 43 -53 62 callsubr
          -342 -1406 -87 callsubr
          -85 callsubr
          -84 callsubr
        </CharString>
        <CharString name="Iotagreek">
          5 callsubr
          -84 callsubr
        </CharString>
        <CharString name="Iotatonosgreek">
          982 830 168 -87 callsubr
          -85 callsubr
          -1 callsubr
          -470 1276 -20 callsubr
        </CharString>
        <CharString name="Itilde">
          629 764 1583 rmoveto
          76 1 58 54 21 173 rrcurveto
          -39 hlineto
          -80 -15 -23 -31 -38 hhcurveto
          -26 -20 12 23 -30 hvcurveto
          -27 20 rlineto
          27 -35 -35 16 -44 hhcurveto
          -76 -58 -54 -172 -21 hvcurveto
          39 hlineto
          80 14 25 30 37 hhcurveto
          26 21 -12 -23 29 hvcurveto
          27 -20 rlineto
          -26 35 34 -18 45 hhcurveto
          -287 -1415 -87 callsubr
          -85 callsubr
          -84 callsubr
        </CharString>
        <CharString name="Itildebelow">
          5 callsubr
          -1 callsubr
          -122 -570 rmoveto
          85 63 58 189 23 hvcurveto
          -40 hlineto
          -91 -18 -26 -34 -43 hhcurveto
          -29 -25 callgsubr
          108 callsubr
          31 callgsubr
        </CharString>
        <CharString name="J">
          632 496 250 -31 callsubr
          91 callsubr
        </CharString>
        <CharString name="Jacute">
          632 748 -80 callsubr
          -68 callsubr
          -488 -1560 -31 callsubr
          91 callsubr
        </CharString>
        <CharString name="Jcircumflex">
          632 436 -74 callsubr
          16 callsubr
          104 -1284 -31 callsubr
          91 callsubr
        </CharString>
        <CharString name="Jecyrillic">
          632 496 250 -31 callsubr
          91 callsubr
        </CharString>
        <CharString name="K">
          1322 480 168 -5 callsubr
        </CharString>
        <CharString name="Kaacutecyrillic">
          1322 1140 -80 callsubr
          -35 callsubr
          -895 -1642 -5 callsubr
        </CharString>
        <CharString name="Kacute">
          1322 1140 -80 callsubr
          -35 callsubr
          -895 -1642 -5 callsubr
        </CharString>
        <CharString name="Kacyrillic">
          1322 480 168 -5 callsubr
        </CharString>
        <CharString name="Kappagreek">
          1322 480 168 -5 callsubr
        </CharString>
        <CharString name="Kcaron">
          1322 1286 -55 callsubr
          -164 150 -44 0 118 callsubr
          -852 -1660 -5 callsubr
        </CharString>
        <CharString name="Kcommaaccent">
          133 callsubr
          165 -617 164 callsubr
          53 41 111 callsubr
        </CharString>
        <CharString name="Kdotbelow">
          133 callsubr
          191 -351 109 callsubr
        </CharString>
        <CharString name="Klinebelow">
          133 callsubr
          -70 -515 rmoveto
          490 hlineto
          27 124 rlineto
          -491 hlineto
          endchar
        </CharString>
        <CharString name="L">
          1124 -44 callsubr
          endchar
        </CharString>
        <CharString name="Lacute">
          1124 746 -80 callsubr
          -35 callsubr
          63 -1810 rmoveto
          38 callsubr
          85 callsubr
          endchar
        </CharString>
        <CharString name="Lambdagreek">
          1335 1197 230 rmoveto
          -159 1219 -129 0 -658 -1188 -100 -180 -35 -26 -108 -16 rlinecurve
          -8 -39 380 0 8 39 -140 21 -16 33 105 195 rlinecurve
          485 906 108 -964 15 -132 -21 -42 -135 -17 rlinecurve
          -8 -39 553 0 8 39 -93 13 -34 31 -18 147 rlinecurve
          endchar
        </CharString>
        <CharString name="Lcaron">
          1124 1021 1085 rmoveto
          279 401 -191 0 -127 -401 rlineto
          62 -1085 rmoveto
          38 callsubr
          85 callsubr
          endchar
        </CharString>
        <CharString name="Lcircumflexbelow">
          1124 -44 callsubr
          226 -448 -85 callgsubr
        </CharString>
        <CharString name="Lcommaaccent">
          1124 -44 callsubr
          440 -449 -64 callsubr
          -24 callsubr
        </CharString>
        <CharString name="Ldot">
          1124 -44 callsubr
          913 693 rmoveto
          72 57 56 71 67 -52 51 -23 callgsubr
          endchar
        </CharString>
        <CharString name="Ldotbelow">
          1124 -44 callsubr
          466 -183 21 callsubr
          54 callsubr
        </CharString>
        <CharString name="Ldotbelowmacron">
          1124 410 -19 callsubr
          609 -1732 rmoveto
          38 callsubr
          85 callsubr
          466 -183 21 callsubr
          54 callsubr
        </CharString>
        <CharString name="Ljecyrillic">
          1991 43 120 rmoveto
          -81 58 -61 93 199 104 240 484 129 vhcurveto
          64 230 51 200 57 261 rrcurveto
          449 hlineto
          -260 -1228 rlineto
          -19 -89 -26 -21 -135 -16 -8 -39 rcurveline
          544 hlineto
          441 274 196 283 235 -203 139 -336 hvcurveto
          -133 hlineto
          91 426 19 89 24 22 126 15 rlinecurve
          8 39 -1092 210 callsubr
          vhcurveto
          1746 381 114 callsubr
          160 757 103 -1 rlineto
          201 -4 110 -105 -192 vvcurveto
          endchar
        </CharString>
        <CharString name="Llinebelow">
          1124 -44 callsubr
          205 -347 -82 callsubr
        </CharString>
        <CharString name="Lslash">
          1124 195 664 rmoveto
          145 41 -115 -537 -19 -92 -23 -21 -118 -16 rlinecurve
          -9 -39 988 0 38 callsubr
          156 736 349 100 11 52 -349 -100 94 442 20 93 24 20 123 16 rlinecurve
          8 39 -527 0 -9 -39 112 -15 14 -23 -21 -101 rlinecurve
          -108 -509 -144 -41 rlineto
          endchar
        </CharString>
        <CharString name="M">
          1731 772 1444 29 callsubr
        </CharString>
        <CharString name="Macute">
          1731 1311 -80 callsubr
          -68 callsubr
          -775 -366 29 callsubr
        </CharString>
        <CharString name="Mdotaccent">
          1731 1223 116 callsubr
          -100 callgsubr
          -451 -123 29 callsubr
        </CharString>
        <CharString name="Mdotbelow">
          1731 772 1444 rmoveto
          -387 hlineto
          -8 -39 104 -18 20 -39 -29 -117 rlinecurve
          -235 -961 -43 -171 -30 -40 -124 -20 rlinecurve
          -8 -39 372 0 8 39 -127 20 -11 37 39 175 rlinecurve
          219 995 194 -1266 108 0 153 290 554 986 -201 -1111 -16 -89 -24 -20 -120 -17 rlinecurve
          -8 -39 521 0 8 39 -14 callgsubr
          -216 -483 -20 callgsubr
          50 48 60 57 -46 44 -57 hvcurveto
          endchar
        </CharString>
        <CharString name="Mugreek">
          1731 772 1444 29 callsubr
        </CharString>
        <CharString name="N">
          1418 -42 callsubr
          endchar
        </CharString>
        <CharString name="Nacute">
          1418 1146 -70 callsubr
          -67 callsubr
          -677 -366 rmoveto
          217 callsubr
          endchar
        </CharString>
        <CharString name="Ncaron">
          1418 1293 1828 rmoveto
          -34 callgsubr
          118 callsubr
          -634 -384 rmoveto
          217 callsubr
          endchar
        </CharString>
        <CharString name="Ncircumflexbelow">
          1418 -42 callsubr
          -843 -756 -23 callsubr
        </CharString>
        <CharString name="Ncommaaccent">
          1418 -42 callsubr
          -629 -757 -64 callsubr
          -24 callsubr
        </CharString>
        <CharString name="Ndotaccent">
          1418 1058 -78 callsubr
          -17 callsubr
          -353 -123 rmoveto
          217 callsubr
          endchar
        </CharString>
        <CharString name="Ndotbelow">
          1418 -42 callsubr
          -603 -491 -63 callsubr
          12 callsubr
        </CharString>
        <CharString name="Ngrave">
          1418 1016 63 callsubr
          270 -270 rlineto
          37 hlineto
          -404 -89 rmoveto
          217 callsubr
          endchar
        </CharString>
        <CharString name="Njecyrillic">
          2059 487 168 rmoveto
          126 590 570 0 -126 -590 rlineto
          -19 -94 -23 -19 -118 -16 -8 -39 rcurveline
          524 hlineto
          440 273 187 271 221 -203 131 -337 hvcurveto
          -138 hlineto
          99 469 19 89 25 22 126 15 rlinecurve
          8 39 -530 0 -8 -39 109 -16 16 -19 -19 -94 rlinecurve
          -99 -466 -570 0 99 466 20 94 24 19 116 -38 callsubr
          109 -16 16 -19 -19 -94 -104 callsubr
          -94 -23 -19 -117 -16 20 callsubr
          -108 15 -18 20 20 94 rlinecurve
          1370 312 rmoveto
          -248 -172 -172 -302 -11 vhcurveto
          -98 -3 153 715 106 -2 rlineto
          207 -4 106 -96 -179 vvcurveto
          endchar
        </CharString>
        <CharString name="Nlinebelow">
          1418 -42 callsubr
          -864 -655 -82 callsubr
        </CharString>
        <CharString name="Ntilde">
          1418 1153 45 callsubr
          -16 -23 40 callsubr
          157 callsubr
          -448 -138 rmoveto
          217 callsubr
          endchar
        </CharString>
        <CharString name="Nugreek">
          1418 -42 callsubr
          endchar
        </CharString>
        <CharString name="O">
          1576 873 -20 -100 callsubr
        </CharString>
        <CharString name="OE">
          1945 247 637 rmoveto
          -393 263 -265 383 vhcurveto
          127 62 21 127 hhcurveto
          665 hlineto
          100 394 rlineto
          -34 hlineto
          -106 -253 -104 -74 -275 -12 rrcurveto
          -219 -9 142 668 221 -4 124 -5 20 -48 -4 -157 rlinecurve
          34 hlineto
          99 464 rlineto
          -34 hlineto
          -59 -150 -42 -41 -127 -5 rrcurveto
          -221 -4 135 634 197 -9 253 -12 44 -55 12 -236 rlinecurve
          35 hlineto
          59 358 rlineto
          -684 hlineto
          -157 -69 21 -150 hhcurveto
          -478 -339 -359 -469 hvcurveto
          270 -86 rmoveto
          404 212 455 363 79 59 -12 -19 36 vhcurveto
          -282 -1330 rlineto
          -11 -28 -30 -4 -32 hhcurveto
          -243 -134 203 314 hvcurveto
          endchar
        </CharString>
        <CharString name="Oacute">
          1576 1172 -70 callsubr
          -67 callsubr
          -535 -1830 -100 callsubr
        </CharString>
        <CharString name="Obreve">
          1576 1096 1578 12 callgsubr
          1 10 1 8 76 callgsubr
          -223 -1598 -100 callsubr
        </CharString>
        <CharString name="Ocaron">
          1576 1319 1828 rmoveto
          -34 callgsubr
          118 callsubr
          -492 -1848 -100 callsubr
        </CharString>
        <CharString name="Ocircumflex">
          1576 861 -74 callsubr
          15 callsubr
          57 -1554 -100 callsubr
        </CharString>
        <CharString name="Ocircumflexacute">
          1576 1385 -72 callgsubr
          -51 -240 -22 callsubr
          81 -1559 -100 callsubr
        </CharString>
        <CharString name="Ocircumflexdotbelow">
          1576 861 -74 callsubr
          15 callsubr
          57 -1554 143 callsubr
          -60 -220 -65 callgsubr
        </CharString>
        <CharString name="Ocircumflexgrave">
          1576 852 1821 rmoveto
          518 -78 6 35 -498 168 rlineto
          -94 -443 -22 callsubr
          81 -1559 -100 callsubr
        </CharString>
        <CharString name="Ocircumflexhookabove">
          1576 1365 1907 rmoveto
          -77 -61 -35 -34 -37 hvcurveto
          -7 -29 rlineto
          13 23 41 11 41 hhcurveto
          59 65 callgsubr
          72 35 15 63 callgsubr
          81 -1559 -100 callsubr
        </CharString>
        <CharString name="Ocircumflextilde">
          1576 1223 1772 rmoveto
          93 72 -29 callgsubr
          -47 hhcurveto
          -28 -28 7 11 -38 hvcurveto
          -29 11 rlineto
          12 -40 -41 10 -47 hhcurveto
          -92 -72 6 callgsubr
          47 hhcurveto
          -439 -269 -22 callsubr
          81 -1559 -100 callsubr
        </CharString>
        <CharString name="Ocyrillic">
          1576 873 -20 -100 callsubr
        </CharString>
        <CharString name="Odblgrave">
          1576 882 1807 rmoveto
          -188 -4 hlineto
          243 26 callgsubr
          -346 -1552 -100 callsubr
        </CharString>
        <CharString name="Odieresis">
          1576 933 46 callsubr
          -57 -46 -45 -57 70 callsubr
          -58 callsubr
          -49 callsubr
          -362 -1593 -100 callsubr
        </CharString>
        <CharString name="Odieresismacron">
          1576 852 1819 rmoveto
          534 hlineto
          20 93 rlineto
          -535 hlineto
          41 -350 -50 callsubr
          -6 callsubr
          23 callsubr
          -10 callsubr
          22 callsubr
          9 -31 33 -50 hhcurveto
          -7 hlineto
          -50 -46 -33 -43 -9 hvcurveto
          -45 -9 31 -33 50 hhcurveto
          -330 -1582 -100 callsubr
        </CharString>
        <CharString name="Odotaccent">
          1576 1084 -78 callsubr
          -17 callsubr
          -211 -1587 -100 callsubr
        </CharString>
        <CharString name="Odotaccentmacron">
          1576 846 1796 rmoveto
          535 hlineto
          20 94 rlineto
          88 callgsubr
          -43 35 -52 hhcurveto
          -52 -38 -35 -45 hvcurveto
          -46 1 41 -34 53 hhcurveto
          -210 -1580 -100 callsubr
        </CharString>
        <CharString name="Odotbelow">
          1576 873 -20 143 callsubr
          -60 -220 -65 callgsubr
        </CharString>
        <CharString name="Ograve">
          1576 1042 63 callsubr
          270 -270 rlineto
          37 hlineto
          -262 -1553 -100 callsubr
        </CharString>
        <CharString name="Ohookabove">
          1576 1118 -73 callgsubr
          -49 callgsubr
          230 callsubr
          -245 -1868 -100 callsubr
        </CharString>
        <CharString name="Ohorn">
          1588 241 628 27 callsubr
        </CharString>
        <CharString name="Ohornacute">
          1588 1174 -70 callsubr
          -67 callsubr
          -1169 -1182 27 callsubr
        </CharString>
        <CharString name="Ohorndotbelow">
          1588 241 628 rmoveto
          -389 257 -258 376 450 319 379 455 280 -136 207 -209 98 vhcurveto
          -6 38 42 -4 48 hhcurveto
          176 146 70 138 84 -52 73 -73 33 hvcurveto
          -37 hlineto
          9 -16 5 -30 -30 vvcurveto
          -149 -110 -123 -187 vhcurveto
          -101 -66 23 -126 hhcurveto
          -450 -319 -380 -455 hvcurveto
          272 -101 rmoveto
          413 204 466 314 -95 callgsubr
          -453 -222 -426 -297 -206 -133 168 322 vhcurveto
          288 -710 -63 callsubr
          -41 callsubr
        </CharString>
        <CharString name="Ohorngrave">
          1588 1044 63 callsubr
          270 -270 rlineto
          36 hlineto
          -895 -905 27 callsubr
        </CharString>
        <CharString name="Ohornhookabove">
          1588 1119 1848 rmoveto
          -77 -66 -37 -58 -37 hvcurveto
          -6 -30 rlineto
          22 -49 callgsubr
          -90 -56 callgsubr
          -878 -1220 27 callsubr
        </CharString>
        <CharString name="Ohorntilde">
          1588 1181 115 callsubr
          206 callsubr
          34 -18 44 hhcurveto
          -940 -954 27 callsubr
        </CharString>
        <CharString name="Ohungarumlaut">
          1576 1010 1809 -11 callgsubr
          -655 -1830 -100 callsubr
        </CharString>
        <CharString name="Oinvertedbreve">
          1576 1100 140 callsubr
          -227 -1889 -100 callsubr
        </CharString>
        <CharString name="Omacron">
          1576 837 -19 callsubr
          11 -1752 -100 callsubr
        </CharString>
        <CharString name="Omacronacute">
          1576 1390 1843 -36 callgsubr
          -36 -171 rmoveto
          534 hlineto
          20 94 rlineto
          -535 hlineto
          50 -1707 -100 callsubr
        </CharString>
        <CharString name="Omacrongrave">
          1576 857 1843 rmoveto
          518 -79 6 36 -498 -61 callgsubr
          -535 hlineto
          50 -1707 -100 callsubr
        </CharString>
        <CharString name="Omegagreek">
          1680 141 -6 callgsubr
          145 -184 -313 -8 hvcurveto
          -7 -311 -164 -253 -291 -90 rrcurveto
          -56 -257 610 0 116 340 rlineto
          -32 hlineto
          -110 109 callgsubr
          245 285 7 209 callsubr
          -33 hlineto
          endchar
        </CharString>
        <CharString name="Omegatonosgreek">
          1846 306 -6 callgsubr
          146 -184 -313 -9 hvcurveto
          -7 -311 -163 -253 -292 -90 rrcurveto
          -55 -257 609 0 116 340 rlineto
          -31 hlineto
          -111 109 callgsubr
          246 285 6 209 callsubr
          -32 hlineto
          23 1104 -20 callsubr
        </CharString>
        <CharString name="Omicrongreek">
          1576 873 -20 -100 callsubr
        </CharString>
        <CharString name="Omicrontonosgreek">
          1743 1039 -20 rmoveto
          451 319 380 455 -83 callgsubr
          -390 257 -259 375 hvcurveto
          -679 1464 rmoveto
          -126 -365 58 0 302 359 rlineto
          6 vlineto
          424 -1407 rmoveto
          -206 -134 168 322 413 205 466 315 206 134 -167 -323 -452 -222 -427 -298 hvcurveto
          endchar
        </CharString>
        <CharString name="Oogonek">
          86 callgsubr
          185 callsubr
        </CharString>
        <CharString name="Oogonekmacron">
          1576 837 -19 callsubr
          12 -1751 rmoveto
          450 319 380 454 185 callsubr
        </CharString>
        <CharString name="Oslash">
          86 callgsubr
          175 callsubr
        </CharString>
        <CharString name="Oslashacute">
          1576 1172 -70 callsubr
          -67 callsubr
          -534 -1829 rmoveto
          450 319 380 454 175 callsubr
        </CharString>
        <CharString name="Otilde">
          1576 1179 45 callsubr
          -16 -23 40 callsubr
          157 callsubr
          -306 -1602 -100 callsubr
        </CharString>
        <CharString name="Otildeacute">
          1576 1390 1842 rmoveto
          27 125 -570 -168 -8 -35 rlineto
          341 -196 rmoveto
          92 72 53 106 22 hvcurveto
          -44 hlineto
          -47 -11 -32 39 callsubr
          -73 -54 -105 -21 hvcurveto
          44 hlineto
          47 12 31 19 47 hhcurveto
          28 28 -6 -13 38 hvcurveto
          30 -9 rlineto
          -14 40 40 -9 47 hhcurveto
          -307 -1588 -100 callsubr
        </CharString>
        <CharString name="Otildedieresis">
          1576 960 1788 rmoveto
          50 45 33 44 10 hvcurveto
          45 10 -32 32 -50 hhcurveto
          -6 hlineto
          -50 -46 -32 -45 -9 hvcurveto
          -44 -10 callsubr
          158 callsubr
          31 -33 49 hhcurveto
          -70 -220 rmoveto
          92 72 53 106 22 hvcurveto
          -44 hlineto
          -47 -11 -32 39 callsubr
          -73 -54 -105 -21 hvcurveto
          44 hlineto
          47 12 31 19 47 hhcurveto
          28 28 -6 -13 38 hvcurveto
          30 -9 rlineto
          -14 40 40 -9 47 hhcurveto
          -307 -1588 -100 callsubr
        </CharString>
        <CharString name="Otildemacron">
          1576 851 21 callgsubr
          22 hvcurveto
          -44 hlineto
          -47 -11 -32 39 callsubr
          -73 -54 -105 -21 hvcurveto
          44 hlineto
          47 12 31 19 47 hhcurveto
          28 28 -6 -13 38 hvcurveto
          30 -9 rlineto
          -14 40 40 -9 47 hhcurveto
          -307 -1588 -100 callsubr
        </CharString>
        <CharString name="P">
          1256 598 hmoveto
          28 callsubr
        </CharString>
        <CharString name="Pacute">
          1256 1015 -80 callsubr
          -68 callsubr
          -653 -1810 rmoveto
          28 callsubr
        </CharString>
        <CharString name="Pdotaccent">
          1256 927 1567 rmoveto
          61 48 48 59 57 -44 46 -58 -62 -49 -48 -61 -56 45 -45 59 hvcurveto
          -329 -1567 rmoveto
          28 callsubr
        </CharString>
        <CharString name="Pecyrillic">
          1508 1355 168 rmoveto
          236 1108 20 95 24 18 116 16 rlinecurve
          9 39 -1402 0 -8 -39 111 -16 17 -19 -20 -94 rlinecurve
          -236 -1108 -19 -95 -24 -18 -119 -16 20 callsubr
          -106 15 -18 20 20 94 rlinecurve
          261 1225 624 0 -260 -1225 -20 -95 -23 -18 -116 -16 rlinecurve
          -9 -39 520 0 9 39 -109 15 -18 20 20 94 rlinecurve
          endchar
        </CharString>
        <CharString name="Phigreek">
          1823 234 701 rmoveto
          -22 -301 222 -178 399 -22 rrcurveto
          -8 -36 -19 -88 -24 -26 -117 -13 rlinecurve
          -8 -38 508 0 8 38 rlineto
          -112 14 -15 25 18 88 7 35 rcurveline
          457 10 340 189 23 350 23 300 -227 175 -394 22 rrcurveto
          7 34 18 89 25 25 116 13 rlinecurve
          8 38 -508 0 -7 -38 112 -14 15 -24 -19 -89 rlinecurve
          -7 -33 -450 -9 -345 -185 -24 -351 rlinecurve
          268 -19 rmoveto
          18 273 148 231 375 13 rrcurveto
          -200 -949 -259 26 -100 164 18 242 rlinecurve
          1122 82 rmoveto
          -19 -274 -145 -230 -378 -13 rrcurveto
          200 949 259 -27 101 -164 -18 -241 rlinecurve
          endchar
        </CharString>
        <CharString name="Pigreek">
          1535 1373 169 rmoveto
          235 1105 20 94 25 21 123 16 rlinecurve
          9 39 -1422 0 -8 -39 119 -17 14 -19 -20 -94 rlinecurve
          -235 -1108 -19 -92 -24 -19 -125 -18 rlinecurve
          -8 -40 534 0 9 40 -116 17 -16 21 20 91 rlinecurve
          259 1225 631 0 -259 -1223 -20 -94 -23 -19 -123 -17 rlinecurve
          -8 -39 533 0 8 39 -117 16 -16 20 20 94 rlinecurve
          endchar
        </CharString>
        <CharString name="Psigreek">
          1765 583 hmoveto
          560 hlineto
          8 39 rlineto
          -133 17 -17 23 19 87 78 368 rcurveline
          345 11 176 100 129 365 78 222 rcurveline
          46 127 38 30 90 8 9 39 rcurveline
          4 -28 -51 4 -49 hhcurveto
          -160 -80 -46 -179 -63 hvcurveto
          -80 -222 -106 -297 -88 -97 -196 -18 rlinecurve
          147 690 20 93 24 23 108 14 rlinecurve
          8 39 -495 0 -8 -39 rlineto
          103 -14 14 -23 -20 -93 -146 -690 rcurveline
          -190 18 -46 96 21 298 16 215 rcurveline
          179 13 -63 53 -163 hhcurveto
          -46 -54 -4 -4 -29 hvcurveto
          -9 -39 88 -8 29 -30 -9 -127 rlinecurve
          -17 -222 -26 -361 128 -104 346 -11 rlinecurve
          -78 -368 -19 -87 -26 -25 -137 -15 rlinecurve
          endchar
        </CharString>
        <CharString name="Q">
          1587 1267 -371 rmoveto
          92 87 28 46 65 hvcurveto
          7 36 rlineto
          -119 -10 -89 35 -156 131 -120 102 rcurveline
          364 78 245 341 399 vvcurveto
          -83 callgsubr
          -334 188 -238 291 -61 vhcurveto
          179 -170 rlineto
          -152 162 95 -45 111 hhcurveto
          -415 408 rmoveto
          -206 -134 -31 callgsubr
          78 callgsubr
          endchar
        </CharString>
        <CharString name="R">
          1315 1011 hmoveto
          26 callsubr
          endchar
        </CharString>
        <CharString name="Racute">
          1315 1033 -80 callsubr
          -35 callsubr
          -257 -1810 rmoveto
          26 callsubr
          endchar
        </CharString>
        <CharString name="Rcaron">
          1315 1179 -55 callsubr
          -14 callsubr
          -51 callsubr
          -214 -1828 rmoveto
          26 callsubr
          endchar
        </CharString>
        <CharString name="Rcommaaccent">
          1315 1011 hmoveto
          26 callsubr
          -474 -1535 -64 callsubr
          13 callsubr
          172 callsubr
          -47 callgsubr
        </CharString>
        <CharString name="Rdblgrave">
          1315 742 -82 callgsubr
          -68 -1532 rmoveto
          26 callsubr
          endchar
        </CharString>
        <CharString name="Rdotaccent">
          1315 944 -78 callsubr
          120 callsubr
          67 -1567 rmoveto
          26 callsubr
          endchar
        </CharString>
        <CharString name="Rdotbelow">
          1315 1011 hmoveto
          26 callsubr
          -448 -97 callgsubr
          12 callsubr
        </CharString>
        <CharString name="Rdotbelowmacron">
          1315 697 -19 callsubr
          289 -1732 rmoveto
          26 callsubr
          -448 -97 callgsubr
          12 callsubr
        </CharString>
        <CharString name="Rhogreek">
          1256 598 hmoveto
          28 callsubr
        </CharString>
        <CharString name="Rinvertedbreve">
          1315 960 140 callsubr
          51 -1869 rmoveto
          26 callsubr
          endchar
        </CharString>
        <CharString name="Rlinebelow">
          1315 1011 hmoveto
          26 callsubr
          -709 -1433 -82 callsubr
        </CharString>
        <CharString name="S">
          1108 576 -22 75 callsubr
          endchar
        </CharString>
        <CharString name="Sacute">
          1108 975 -80 callsubr
          -35 callsubr
          -634 -1832 75 callsubr
          endchar
        </CharString>
        <CharString name="Sacutedotaccent">
          1108 926 1760 rmoveto
          52 39 34 46 46 -43 35 -52 -51 -40 -35 -46 1 hvcurveto
          -46 43 -34 51 vhcurveto
          219 -135 rmoveto
          27 124 -570 -167 -7 -35 rlineto
          -19 -1569 75 callsubr
          endchar
        </CharString>
        <CharString name="Scaron">
          1108 1121 -55 callsubr
          -14 callsubr
          -51 callsubr
          -591 -1850 75 callsubr
          endchar
        </CharString>
        <CharString name="Scarondotaccent">
          1108 930 1779 rmoveto
          52 39 35 45 46 -43 35 -52 -51 -40 -35 -46 1 hvcurveto
          -45 43 -35 51 vhcurveto
          251 -19 rmoveto
          -292 -86 -255 86 -7 -36 220 -172 35 0 292 172 rlineto
          -598 -1746 75 callsubr
          endchar
        </CharString>
        <CharString name="Scedilla">
          1108 485 14 callsubr
          -36 callsubr
          77 87 rlineto
          276 3 243 159 273 vvcurveto
          155 -73 120 -170 120 vhcurveto
          -111 83 rlineto
          -130 90 -48 80 103 vvcurveto
          148 107 97 167 184 111 -135 -258 9 vhcurveto
          35 hlineto
          52 336 rlineto
          62 -76 -141 52 -186 hhcurveto
          -301 -201 -162 -250 -153 82 -115 161 -113 hvcurveto
          111 -83 rlineto
          131 -92 47 -87 -114 vvcurveto
          -167 -136 -95 -161 -190 -146 117 271 -2 vhcurveto
          -35 hlineto
          -56 -340 78 -54 162 -43 156 -7 rlinecurve
          -129 -145 -7 -9 callsubr
          63 -101 callgsubr
          endchar
        </CharString>
        <CharString name="Schwa">
          1469 745 -22 rmoveto
          436 317 366 453 402 -229 266 -402 -171 -173 -40 -73 -99 hvcurveto
          -77 -342 rlineto
          35 hlineto
          268 109 181 131 190 hhcurveto
          255 107 -237 -313 -60 -3 -58 -6 -56 hvcurveto
          -970 hlineto
          -19 -53 -15 -72 -74 vvcurveto
          -244 126 -264 408 vhcurveto
          -294 429 rmoveto
          81 10 85 20 60 vhcurveto
          728 1 rlineto
          -354 -51 -171 -248 -241 hhcurveto
          -209 -86 167 208 hvcurveto
          endchar
        </CharString>
        <CharString name="Scircumflex">
          1108 663 -74 callsubr
          16 callsubr
          -43 -1556 75 callsubr
          endchar
        </CharString>
        <CharString name="Scommaaccent">
          1108 576 -22 75 callsubr
          -102 -427 -64 callsubr
          -24 callsubr
        </CharString>
        <CharString name="Sdotaccent">
          1108 886 -78 callsubr
          120 callsubr
          -310 -1589 75 callsubr
          endchar
        </CharString>
        <CharString name="Sdotbelow">
          1108 576 -22 75 callsubr
          -76 -161 21 callsubr
          54 callsubr
        </CharString>
        <CharString name="Sdotbelowdotaccent">
          1108 886 -78 callsubr
          120 callsubr
          -310 -1589 75 callsubr
          -76 -161 21 callsubr
          54 callsubr
        </CharString>
        <CharString name="Shacyrillic">
          2237 457 1276 rmoveto
          -236 -1108 -20 -95 -24 -18 -117 -16 rlinecurve
          -8 -39 2106 0 8 39 -110 16 -17 19 20 94 rlinecurve
          236 1108 20 95 24 18 118 -38 callsubr
          106 123 callsubr
          222 callsubr
          261 1224 20 45 callgsubr
        </CharString>
        <CharString name="Shchacyrillic">
          2239 159 callsubr
          1799 hlineto
          220 29 -58 -269 17 hvcurveto
          44 hlineto
          66 379 -192 0 260 105 callgsubr
          106 123 callsubr
          222 callsubr
          262 1224 19 45 callgsubr
        </CharString>
        <CharString name="Sigmagreek">
          104 callgsubr
          -37 387 -720 -650 -649 -7 -38 1092 0 105 422 rlineto
          -38 hlineto
          -208 -98 -86 -33 -291 hhcurveto
          -456 hlineto
          638 631 3 16 -307 571 359 -10 288 -7 55 -55 4 -225 rlinecurve
          36 hlineto
          endchar
        </CharString>
        <CharString name="Softsigncyrillic">
          1224 194 callsubr
          -268 22 114 callsubr
          60 callgsubr
        </CharString>
        <CharString name="T">
          -26 callsubr
          endchar
        </CharString>
        <CharString name="Taugreek">
          -26 callsubr
          endchar
        </CharString>
        <CharString name="Tbar">
          1279 387 716 rmoveto
          277 hlineto
          -117 -551 -18 -87 -25 -23 -139 -16 rlinecurve
          -8 -39 110 callsubr
          117 551 281 0 10 48 -281 0 134 634 50 -3 245 -16 62 -61 2 -232 rlinecurve
          37 hlineto
          58 358 -1143 0 43 callsubr
          -134 -634 rlineto
          -278 hlineto
          endchar
        </CharString>
        <CharString name="Tcaron">
          1279 1226 34 callsubr
          245 -384 rmoveto
          -1143 hlineto
          43 callsubr
          103 callsubr
          110 callsubr
          100 callsubr
          endchar
        </CharString>
        <CharString name="Tcedilla">
          1279 566 -450 rmoveto
          136 85 73 101 102 -77 65 -116 hvcurveto
          -3 -3 0 -4 hhcurveto
          93 108 rlineto
          1 248 vlineto
          8 39 -133 18 -17 20 19 88 rlinecurve
          100 callsubr
          58 358 -1143 0 43 callsubr
          103 callsubr
          269 0 -143 -166 -7 -37 rlineto
          2 5 18 2 9 hhcurveto
          62 39 -30 -50 -49 -37 -31 -61 -51 -48 20 27 -29 hvcurveto
          -9 -38 rlineto
          -57 37 65 -43 90 hhcurveto
          endchar
        </CharString>
        <CharString name="Tcircumflexbelow">
          -26 callsubr
          -1117 -1534 -23 callsubr
        </CharString>
        <CharString name="Tcommaaccent">
          -26 callsubr
          -903 -1535 rmoveto
          133 91 66 101 102 -76 58 -84 13 callsubr
          15 25 5 23 hhcurveto
          54 40 -27 -49 -49 -42 -28 -63 -50 -40 21 23 -47 callgsubr
        </CharString>
        <CharString name="Tdotaccent">
          1279 991 -78 callsubr
          -45 45 -58 -61 -50 -47 -61 -57 46 -44 58 hvcurveto
          526 -123 rmoveto
          -1143 hlineto
          43 callsubr
          103 callsubr
          110 callsubr
          100 callsubr
          endchar
        </CharString>
        <CharString name="Tdotbelow">
          -26 callsubr
          -877 -1269 109 callsubr
        </CharString>
        <CharString name="Tecyrillic">
          -26 callsubr
          endchar
        </CharString>
        <CharString name="Thetagreek">
          1617 874 -22 rmoveto
          449 338 362 446 9 hvcurveto
          10 386 -235 295 -401 -1 -451 -1 -333 -365 -10 -447 rrcurveto
          -382 -10 234 -293 400 hhcurveto
          4 52 rmoveto
          -244 -123 232 342 13 hvcurveto
          400 13 158 410 344 hhcurveto
          250 121 -231 -347 -14 hvcurveto
          -401 -14 -162 -405 -342 hhcurveto
          -259 460 rmoveto
          34 hlineto
          146 50 50 60 111 hhcurveto
          169 hlineto
          111 24 -60 -146 -12 hvcurveto
          32 hlineto
          99 461 rlineto
          -32 hlineto
          -145 -54 -48 -56 -109 hhcurveto
          -169 hlineto
          -109 -24 56 145 9 hvcurveto
          -33 hlineto
          endchar
        </CharString>
        <CharString name="Thorn">
          1265 229 168 rmoveto
          -19 -95 -24 -18 -117 -16 rrcurveto
          -8 -39 521 0 8 39 rlineto
          -108 15 -19 19 20 95 37 170 rcurveline
          148 hlineto
          359 305 160 276 219 -184 143 -325 hvcurveto
          -133 hlineto
          29 140 20 94 25 19 116 16 rlinecurve
          8 39 -521 0 -8 -39 109 -16 17 -18 -20 -95 rlinecurve
          604 -477 rmoveto
          -213 -137 -187 -301 -11 vhcurveto
          -101 -4 150 706 98 -3 rlineto
          188 -7 103 -122 -159 vvcurveto
          endchar
        </CharString>
        <CharString name="Tlinebelow">
          -26 callsubr
          -1138 -1433 -82 callsubr
        </CharString>
        <CharString name="Tsecyrillic">
          1534 159 callsubr
          1093 hlineto
          221 29 -58 -269 17 hvcurveto
          43 hlineto
          67 379 -192 0 259 105 callgsubr
          107 123 callsubr
          -625 0 261 1224 20 45 callgsubr
        </CharString>
        <CharString name="Tshecyrillic">
          1748 1523 1444 rmoveto
          -1150 hlineto
          -88 -358 rlineto
          36 hlineto
          97 225 76 67 220 callsubr
          24 73 78 16 98 hhcurveto
          212 82 -129 -235 -51 hvcurveto
          -83 -392 388 0 8 39 rlineto
          -110 15 -16 19 20 94 43 204 rcurveline
          305 63 -166 148 -321 hhcurveto
          -127 -93 -21 -34 -87 hvcurveto
          61 callgsubr
          endchar
        </CharString>
        <CharString name="U">
          1455 766 -22 -88 callsubr
        </CharString>
        <CharString name="Uacute">
          1455 1212 -80 callsubr
          -68 callsubr
          -682 -1832 -88 callsubr
        </CharString>
        <CharString name="Ubreve">
          1455 1135 88 callsubr
          -369 -1600 -88 callsubr
        </CharString>
        <CharString name="Ubrevecyrillic">
          1395 1106 1596 rmoveto
          152 134 85 174 51 hvcurveto
          -44 14 rlineto
          -148 -45 -114 -78 -128 hhcurveto
          -54 -44 16 25 -30 hvcurveto
          -1 6 7 0 6 hhcurveto
          53 45 43 57 61 -46 46 -57 -64 -44 -49 -64 -98 82 -83 134 hvcurveto
          -875 -1480 184 callsubr
        </CharString>
        <CharString name="Ucaron">
          1455 1358 -55 callsubr
          -14 callsubr
          -51 callsubr
          -638 -1850 -88 callsubr
        </CharString>
        <CharString name="Ucircumflex">
          1455 901 1534 rmoveto
          236 171 callsubr
          -90 -1556 -88 callsubr
        </CharString>
        <CharString name="Ucircumflexbelow">
          80 callsubr
          -291 -426 -23 callsubr
        </CharString>
        <CharString name="Ucyrillic">
          1396 231 116 184 callsubr
        </CharString>
        <CharString name="Udblgrave">
          1455 921 -82 callgsubr
          -492 -1554 -88 callsubr
        </CharString>
        <CharString name="Udieresis">
          1455 972 -107 callgsubr
          -49 callsubr
          -34 callsubr
          -93 callgsubr
          -32 callsubr
          -508 -1595 -88 callsubr
        </CharString>
        <CharString name="Udieresisacute">
          32 callgsubr
          73 -202 -50 callsubr
          9 -32 33 -48 hhcurveto
          -8 hlineto
          23 callsubr
          -9 31 -33 50 hhcurveto
          304 hmoveto
          129 callsubr
          -6 hlineto
          -46 callgsubr
          -477 -1584 -88 callsubr
        </CharString>
        <CharString name="Udieresisbelow">
          80 callsubr
          -239 -367 rmoveto
          63 49 47 60 hvcurveto
          57 -1 -45 43 -61 hhcurveto
          -62 -50 -47 -60 -56 46 -44 61 hvcurveto
          364 hmoveto
          30 callgsubr
          endchar
        </CharString>
        <CharString name="Udieresiscaron">
          1455 1457 1966 rmoveto
          -286 -84 -249 84 -7 -35 216 -166 33 0 286 166 rlineto
          -498 -369 -50 callsubr
          9 -32 33 -48 hhcurveto
          -8 hlineto
          23 callsubr
          -9 31 -33 50 hhcurveto
          304 hmoveto
          129 callsubr
          -6 hlineto
          -46 callgsubr
          -477 -1584 -88 callsubr
        </CharString>
        <CharString name="Udieresisgrave">
          1455 896 1842 rmoveto
          517 -78 8 35 -500 168 rlineto
          31 -405 -50 callsubr
          9 -32 33 -48 hhcurveto
          -8 hlineto
          23 callsubr
          -9 31 -33 50 hhcurveto
          304 hmoveto
          129 callsubr
          -6 hlineto
          -46 callgsubr
          -477 -1584 -88 callsubr
        </CharString>
        <CharString name="Udieresismacron">
          1455 891 25 callgsubr
          9 -32 33 -48 hhcurveto
          -8 hlineto
          23 callsubr
          -9 31 -33 50 hhcurveto
          304 hmoveto
          129 callsubr
          -6 hlineto
          -46 callgsubr
          -477 -1584 -88 callsubr
        </CharString>
        <CharString name="Udotbelow">
          80 callsubr
          -51 -161 109 callsubr
        </CharString>
        <CharString name="Ugrave">
          1455 1082 102 callsubr
          -408 -1555 -88 callsubr
        </CharString>
        <CharString name="Uhookabove">
          1455 1157 -35 callgsubr
          61 33 -28 -44 -49 -48 -50 72 callsubr
          80 66 callsubr
          -391 -1870 -88 callsubr
        </CharString>
        <CharString name="Uhorn">
          1550 305 606 25 callsubr
        </CharString>
        <CharString name="Uhornacute">
          1550 1225 -80 callsubr
          -68 callsubr
          -1156 -1204 25 callsubr
        </CharString>
        <CharString name="Uhorndotbelow">
          1550 305 606 rmoveto
          -448 -96 253 -180 304 hhcurveto
          336 203 222 343 76 hvcurveto
          196 879 rlineto
          -3 17 21 -2 22 hhcurveto
          141 1 101 69 119 vvcurveto
          80 -50 70 -70 32 vhcurveto
          -37 hlineto
          9 -16 5 -30 -29 vvcurveto
          -152 -113 -117 -200 vhcurveto
          -66 hlineto
          -8 -39 rlineto
          127 -21 11 -38 -35 -165 -129 -629 rcurveline
          -308 -62 -181 -173 -225 hhcurveto
          -229 -149 151 364 77 hvcurveto
          146 684 21 96 25 22 126 17 rlinecurve
          8 39 -532 0 -8 -39 110 -17 17 -21 -21 -97 rlinecurve
          240 -1453 -63 callsubr
          12 callsubr
        </CharString>
        <CharString name="Uhorngrave">
          1550 1095 102 callsubr
          -882 -927 25 callsubr
        </CharString>
        <CharString name="Uhornhookabove">
          1550 1170 -35 callgsubr
          61 33 -28 -44 -49 -48 -50 72 callsubr
          80 66 callsubr
          -865 -1242 25 callsubr
        </CharString>
        <CharString name="Uhorntilde">
          1550 1232 115 callsubr
          -39 hlineto
          -80 -15 -24 -31 -37 hhcurveto
          -26 -21 12 23 -29 hvcurveto
          -27 96 callgsubr
          -77 callgsubr
          45 hhcurveto
          -927 -976 25 callsubr
        </CharString>
        <CharString name="Uhungarumlaut">
          1455 1050 1809 rmoveto
          -127 -275 42 0 279 271 rlineto
          5 vlineto
          117 -1 rmoveto
          -177 -275 43 0 341 271 rlineto
          5 vlineto
          -802 -1832 -88 callsubr
        </CharString>
        <CharString name="Uinvertedbreve">
          1455 1139 20 callgsubr
          103 70 -52 -74 -10 -1 -10 -2 -7 hvcurveto
          79 callgsubr
          -373 -1891 -88 callsubr
        </CharString>
        <CharString name="Umacron">
          1455 876 1614 -37 callgsubr
          -135 -1754 -88 callsubr
        </CharString>
        <CharString name="Umacrondieresis">
          1455 1001 1788 rmoveto
          49 46 33 44 9 hvcurveto
          45 9 -31 32 -49 hhcurveto
          -7 hlineto
          -50 -46 -32 -45 -10 hvcurveto
          -44 -9 32 -33 49 hhcurveto
          304 hmoveto
          49 46 33 44 10 hvcurveto
          45 9 -31 32 -50 hhcurveto
          -6 hlineto
          -50 -46 -32 -45 -10 hvcurveto
          -44 -9 32 -33 49 hhcurveto
          107 callgsubr
          -116 -1709 -88 callsubr
        </CharString>
        <CharString name="Uogonek">
          1455 723 -63 callgsubr
          -18 -26 -11 -29 hhcurveto
          -64 -41 64 95 64 23 65 46 57 hvcurveto
          319 12 193 219 75 333 rrcurveto
          143 629 40 175 25 38 124 20 rlinecurve
          8 39 -369 0 -8 -39 rlineto
          128 -21 10 -38 -34 -174 -125 -619 rcurveline
          -308 -61 -181 -174 -225 hhcurveto
          -230 -149 151 364 29 callgsubr
          102 -18 16 -21 -21 -96 rlinecurve
          -141 -664 -93 -438 240 -182 295 -7 rlinecurve
          -128 -89 -76 -103 -101 vvcurveto
          -95 76 -67 105 vhcurveto
          endchar
        </CharString>
        <CharString name="Upsilondieresisgreek">
          1273 904 46 callsubr
          -56 -46 -45 -57 -1 vhcurveto
          70 callsubr
          -58 callsubr
          -49 callsubr
          -740 -375 -72 callsubr
        </CharString>
        <CharString name="Upsilongreek">
          1273 466 1198 -72 callsubr
        </CharString>
        <CharString name="Upsilontonosgreek">
          1653 845 40 callgsubr
          -8 -39 565 0 9 39 -133 17 -16 21 18 160 callsubr
          -367 0 -8 -39 126 -17 6 -42 -124 -69 callgsubr
          19 44 126 17 rlinecurve
          8 39 -64 callgsubr
          -485 246 -20 callsubr
        </CharString>
        <CharString name="Uring">
          1455 917 1711 rmoveto
          -98 95 -56 106 142 97 73 102 99 -96 57 -105 -143 74 callgsubr
          -44 -78 -55 -42 -24 30 57 vhcurveto
          -288 -1706 -88 callsubr
        </CharString>
        <CharString name="Utilde">
          1455 1219 115 callsubr
          -39 hlineto
          -80 -15 -24 -31 -37 hhcurveto
          -26 -21 12 23 -29 hvcurveto
          -27 96 callgsubr
          -77 callgsubr
          45 hhcurveto
          -453 -1604 -88 callsubr
        </CharString>
        <CharString name="Utildeacute">
          32 callgsubr
          340 -196 rmoveto
          92 72 53 106 23 hvcurveto
          -44 hlineto
          -47 -11 -33 -19 -47 hhcurveto
          -28 -28 7 12 -38 hvcurveto
          -29 10 rlineto
          13 -40 -41 9 -47 hhcurveto
          -91 -73 -54 -105 -22 hvcurveto
          45 hlineto
          47 11 32 19 46 hhcurveto
          29 28 -6 -13 37 hvcurveto
          30 -9 rlineto
          -14 41 39 -9 47 hhcurveto
          -453 -1590 -88 callsubr
        </CharString>
        <CharString name="Utildebelow">
          80 callsubr
          45 -380 77 callgsubr
          -23 13 26 -33 hvcurveto
          -31 23 rlineto
          30 -39 108 callsubr
          17 27 34 43 hhcurveto
          28 23 -12 -27 34 hvcurveto
          30 -22 39 -30 39 -20 48 1 rlinecurve
          endchar
        </CharString>
        <CharString name="V">
          103 callgsubr
          endchar
        </CharString>
        <CharString name="Vdotbelow">
          103 callgsubr
          184 -1382 -63 callsubr
          -41 callsubr
        </CharString>
        <CharString name="Vecyrillic">
          1293 1300 445 82 callsubr
        </CharString>
        <CharString name="Vtilde">
          1324 1175 45 callsubr
          -15 -24 40 callsubr
          39 hlineto
          80 14 24 30 -77 callgsubr
          44 hhcurveto
          -741 -383 rmoveto
          196 callsubr
          endchar
        </CharString>
        <CharString name="W">
          2053 426 1199 -3 callsubr
        </CharString>
        <CharString name="Wacute">
          2053 1555 -70 callsubr
          -67 callsubr
          -1365 -611 -3 callsubr
        </CharString>
        <CharString name="Wcircumflex">
          2053 1244 -74 callsubr
          15 callsubr
          -773 -335 -3 callsubr
        </CharString>
        <CharString name="Wdieresis">
          2053 1316 46 callsubr
          -57 -46 -45 -57 -54 41 -42 55 vhcurveto
          302 hmoveto
          -58 callsubr
          -49 callsubr
          -1192 -374 -3 callsubr
        </CharString>
        <CharString name="Wdotaccent">
          2053 1467 -78 callsubr
          -17 callsubr
          -1041 -368 -3 callsubr
        </CharString>
        <CharString name="Wdotbelow">
          2053 426 1199 rmoveto
          119 -1206 125 0 605 1182 101 -1182 128 0 610 1175 101 193 42 28 102 16 rlinecurve
          8 39 -376 0 -8 -39 127 -18 12 -39 -86 -177 rlinecurve
          -439 -903 -62 928 -12 162 18 29 120 18 rlinecurve
          8 39 -516 0 -8 -39 216 callsubr
          546 -1382 -63 callsubr
          -41 callsubr
        </CharString>
        <CharString name="Wgrave">
          2053 1425 63 callsubr
          270 -270 rlineto
          37 hlineto
          -1092 -334 -3 callsubr
        </CharString>
        <CharString name="X">
          1277 312 273 24 callsubr
        </CharString>
        <CharString name="Xdieresis">
          1277 921 46 callsubr
          -57 -46 -45 -57 70 callsubr
          -58 callsubr
          -49 callsubr
          -911 -1300 24 callsubr
        </CharString>
        <CharString name="Xdotaccent">
          1277 1072 -78 callsubr
          -17 callsubr
          -760 -1294 24 callsubr
        </CharString>
        <CharString name="Xigreek">
          1297 1531 1444 rmoveto
          -1132 hlineto
          -97 -377 rlineto
          36 hlineto
          172 89 87 34 264 hhcurveto
          301 hlineto
          264 73 -34 -172 15 hvcurveto
          37 hlineto
          -783 -362 rmoveto
          246 hlineto
          144 30 82 callgsubr
          -54 -56 -144 hhcurveto
          -245 hlineto
          -143 -31 56 140 9 hvcurveto
          -35 hlineto
          -95 -450 rlineto
          34 hlineto
          144 51 55 58 144 hhcurveto
          557 -705 rmoveto
          107 421 rlineto
          -37 hlineto
          -210 -98 -85 -34 -292 hhcurveto
          -283 hlineto
          -292 -69 34 210 -10 hvcurveto
          -37 hlineto
          -72 -421 rlineto
          endchar
        </CharString>
        <CharString name="Xigreek.1">
          1319 55 hmoveto
          1191 hlineto
          106 421 rlineto
          -37 hlineto
          -210 -99 -84 -34 -292 hhcurveto
          -129 hlineto
          112 528 rlineto
          111 hlineto
          145 29 82 callgsubr
          -55 -56 -142 hhcurveto
          -111 hlineto
          109 516 rlineto
          140 hlineto
          263 73 -34 -172 15 hvcurveto
          37 hlineto
          64 377 -1156 0 -97 -377 rlineto
          37 hlineto
          172 89 87 34 264 hhcurveto
          139 hlineto
          -109 -516 rlineto
          -112 hlineto
          -143 -31 56 140 9 hvcurveto
          -34 hlineto
          -96 -450 rlineto
          34 hlineto
          144 51 55 58 144 hhcurveto
          112 hlineto
          -112 -528 rlineto
          -132 hlineto
          -291 -70 34 210 -9 hvcurveto
          -37 hlineto
          endchar
        </CharString>
        <CharString name="Y">
          1273 466 1198 -72 callsubr
        </CharString>
        <CharString name="Yacute">
          1273 1144 -80 callsubr
          -35 callsubr
          -913 -612 -72 callsubr
        </CharString>
        <CharString name="Ycircumflex">
          1273 832 -74 callsubr
          16 callsubr
          -322 -336 -72 callsubr
        </CharString>
        <CharString name="Ydieresis">
          1273 904 46 callsubr
          -56 -46 -45 -57 -1 vhcurveto
          70 callsubr
          -58 callsubr
          -49 callsubr
          -740 -375 -72 callsubr
        </CharString>
        <CharString name="Ydotaccent">
          1273 1055 -78 callsubr
          -17 callsubr
          -589 -369 -72 callsubr
        </CharString>
        <CharString name="Ydotbelow">
          1273 466 40 callgsubr
          -9 -39 566 0 9 39 -134 17 -16 21 19 160 callsubr
          -368 0 -8 -39 126 -17 7 -42 -125 -69 callgsubr
          20 44 126 17 rlinecurve
          8 39 -64 callgsubr
          119 -1381 -63 callsubr
          12 callsubr
        </CharString>
        <CharString name="Yericyrillic">
          1816 194 callsubr
          376 -311 -87 callsubr
          23 20 119 16 rlinecurve
          8 39 -522 0 -9 -39 113 -14 14 -22 -20 -93 -104 callsubr
          -93 -23 -20 -118 -16 rlinecurve
          -8 -39 522 0 8 39 -112 16 -14 20 20 93 rlinecurve
          -644 333 114 callsubr
          60 callgsubr
        </CharString>
        <CharString name="Ygrave">
          1273 1014 102 callsubr
          -640 -335 -72 callsubr
        </CharString>
        <CharString name="Yhookabove">
          1273 1089 -73 callgsubr
          -49 callgsubr
          72 callsubr
          80 66 callsubr
          -623 -650 -72 callsubr
        </CharString>
        <CharString name="Yicyrillic">
          629 517 1574 rmoveto
          -58 callsubr
          -32 callsubr
          -34 callsubr
          54 -41 43 -53 62 callsubr
          -342 -1406 -87 callsubr
          -85 callsubr
          -84 callsubr
        </CharString>
        <CharString name="Ymacron">
          1273 808 -19 callsubr
          -367 -534 -72 callsubr
        </CharString>
        <CharString name="Ytilde">
          1273 1150 45 callsubr
          -16 -23 40 callsubr
          39 hlineto
          80 14 24 30 37 hhcurveto
          27 20 -12 -23 30 hvcurveto
          27 -20 rlineto
          -26 35 34 -18 44 hhcurveto
          -684 -384 -72 callsubr
        </CharString>
        <CharString name="Z">
          1195 1111 hmoveto
          -76 callsubr
          30 callsubr
          endchar
        </CharString>
        <CharString name="Zacute">
          1195 1052 -70 callsubr
          -67 callsubr
          -177 -1810 rmoveto
          -76 callsubr
          30 callsubr
          endchar
        </CharString>
        <CharString name="Zcaron">
          1195 1199 34 callsubr
          -134 -1828 rmoveto
          -76 callsubr
          30 callsubr
          endchar
        </CharString>
        <CharString name="Zcircumflex">
          1195 741 -74 callsubr
          15 callsubr
          415 -1534 rmoveto
          -76 callsubr
          30 callsubr
          endchar
        </CharString>
        <CharString name="Zdotaccent">
          1195 964 -78 callsubr
          -45 45 -58 -61 -50 -47 -61 -57 46 -44 58 hvcurveto
          147 -1567 rmoveto
          -76 callsubr
          30 callsubr
          endchar
        </CharString>
        <CharString name="Zdotbelow">
          1195 1111 hmoveto
          -76 callsubr
          30 callsubr
          487 -183 -65 callgsubr
        </CharString>
        <CharString name="Zecyrillic">
          1250 583 -22 rmoveto
          397 278 181 293 197 -174 91 -236 15 hvcurveto
          275 31 216 126 234 vvcurveto
          209 -179 111 -297 -159 -152 -41 -65 -102 vhcurveto
          -81 -336 rlineto
          36 hlineto
          282 106 164 105 176 hhcurveto
          147 77 -111 -145 -217 -135 -165 -247 hvcurveto
          -141 hlineto
          -11 -51 rlineto
          141 hlineto
          201 102 -102 -178 -206 -132 -201 -273 -2 hvcurveto
          -211 -1 -99 174 -10 202 rrcurveto
          -35 hlineto
          -44 -312 rlineto
          -67 86 139 -51 177 hhcurveto
          endchar
        </CharString>
        <CharString name="Zetagreek">
          1195 1111 hmoveto
          -76 callsubr
          30 callsubr
          endchar
        </CharString>
        <CharString name="Zhecyrillic">
          2046 339 hmoveto
          616 718 106 0 -117 -550 -20 -95 -24 -17 -124 -17 rlinecurve
          -8 -39 536 0 8 39 -115 16 -19 18 20 95 rlinecurve
          117 551 107 -1 304 -718 323 0 8 37 -58 25 -37 40 -90 208 rlinecurve
          -248 588 326 292 160 145 78 50 115 20 rlinecurve
          8 39 -410 0 -8 -39 132 -18 -8 -49 -121 -118 rlinecurve
          -461 -448 -109 -1 108 505 19 95 26 18 123 16 rlinecurve
          8 39 -536 0 -8 -39 116 -15 18 -19 -21 -95 rlinecurve
          -107 -506 -107 1 -276 450 -78 123 26 45 131 16 rlinecurve
          8 39 -416 0 -8 -39 110 -21 58 -46 103 -146 rlinecurve
          196 -278 -506 -599 rlineto
          -179 -210 -53 -44 -67 -24 -8 -37 rcurveline
          endchar
        </CharString>
        <CharString name="Zlinebelow">
          1195 1111 hmoveto
          -76 callsubr
          30 callsubr
          225 -347 -82 callsubr
        </CharString>
        <CharString name="a">
          1092 175 339 -105 callsubr
          -107 callsubr
          -106 callsubr
          -97 callsubr
        </CharString>
        <CharString name="a.dnum">
          663 111 178 rmoveto
          -116 63 -72 88 79 65 50 91 31 vhcurveto
          -2 -5 -5 -28 -6 vvcurveto
          -68 -9 31 -32 62 hhcurveto
          62 59 28 37 27 hvcurveto
          7 30 rlineto
          -11 -15 -21 -6 -18 hhcurveto
          -25 -12 15 37 8 hvcurveto
          82 384 -93 0 -64 -56 rlineto
          34 -13 -42 33 -73 hhcurveto
          -164 -110 -156 -183 2 hvcurveto
          161 15 callgsubr
          -43 -43 hhcurveto
          -40 -24 27 74 -1 hvcurveto
          endchar
        </CharString>
        <CharString name="a.numr">
          663 261 889 rmoveto
          -117 1 63 -72 87 hhcurveto
          80 65 51 90 30 hvcurveto
          -1 -4 -5 -29 -5 vvcurveto
          -68 -9 31 -33 62 hhcurveto
          61 60 28 38 27 hvcurveto
          7 30 rlineto
          -12 -15 -21 -5 47 callgsubr
          32 -72 hhcurveto
          -165 -109 -155 -183 1 hvcurveto
          162 -15 rmoveto
          123 -1 49 178 106 hhcurveto
          36 25 -17 -20 7 hvcurveto
          -53 -246 rlineto
          -76 -18 -43 -43 -43 hhcurveto
          -40 -24 27 74 -1 hvcurveto
          endchar
        </CharString>
        <CharString name="a.sups">
          663 301 1075 rmoveto
          -116 1 63 -72 87 hhcurveto
          80 65 50 91 30 hvcurveto
          -1 -5 -5 -29 -5 vvcurveto
          -68 -9 31 -32 62 hhcurveto
          61 60 27 38 27 hvcurveto
          7 30 rlineto
          -11 -15 -21 -6 47 callgsubr
          33 -72 hhcurveto
          -165 -109 -156 -183 1 hvcurveto
          162 15 callgsubr
          -44 -43 hhcurveto
          -40 -24 28 74 -1 hvcurveto
          endchar
        </CharString>
        <CharString name="aacute">
          1092 904 -79 callsubr
          -987 -1114 -105 callsubr
          -107 callsubr
          -106 callsubr
          -97 callsubr
        </CharString>
        <CharString name="abreve">
          1092 806 -25 callsubr
          1 12 2 42 callsubr
          -631 -791 -105 callsubr
          -107 callsubr
          -106 callsubr
          -97 callsubr
        </CharString>
        <CharString name="abreveacute">
          49 callgsubr
          203 -273 rmoveto
          158 129 90 141 23 hvcurveto
          -43 58 callsubr
          -82 40 61 8 73 callsubr
          157 hhcurveto
          -588 -744 -105 callsubr
          -107 callsubr
          -106 callsubr
          -97 callsubr
        </CharString>
        <CharString name="abrevecyrillic">
          1092 771 1143 rmoveto
          152 137 9 callgsubr
          9 11 -2 11 hhcurveto
          56 168 callsubr
          -596 -804 -105 callsubr
          -107 callsubr
          -106 callsubr
          -97 callsubr
        </CharString>
        <CharString name="abrevedotbelow">
          1092 806 -25 callsubr
          1 12 2 42 callsubr
          -631 -791 -105 callsubr
          -107 callsubr
          -106 callsubr
          31 callsubr
          167 callsubr
        </CharString>
        <CharString name="abrevegrave">
          50 callgsubr
          152 -512 rmoveto
          158 129 90 141 23 hvcurveto
          -43 58 callsubr
          -82 40 61 8 73 callsubr
          157 hhcurveto
          -588 -744 -105 callsubr
          -107 callsubr
          -106 callsubr
          -97 callsubr
        </CharString>
        <CharString name="abrevehookabove">
          1092 847 -71 callgsubr
          23 41 14 42 hhcurveto
          61 31 -28 -41 -10 hvcurveto
          -8 -41 -38 -30 229 callsubr
          16 -66 46 -87 hhcurveto
          -84 -489 rmoveto
          158 129 90 141 23 hvcurveto
          -43 58 callsubr
          -82 40 61 8 73 callsubr
          157 hhcurveto
          -588 -744 -105 callsubr
          -107 callsubr
          -106 callsubr
          -97 callsubr
        </CharString>
        <CharString name="abrevetilde">
          219 callsubr
          -175 -298 rmoveto
          158 129 90 141 23 hvcurveto
          -43 58 callsubr
          -82 40 61 8 73 callsubr
          157 hhcurveto
          -588 -744 -105 callsubr
          -107 callsubr
          -106 callsubr
          -97 callsubr
        </CharString>
        <CharString name="acaron">
          1092 1064 -81 callgsubr
          -940 -1135 -105 callsubr
          -107 callsubr
          -106 callsubr
          -97 callsubr
        </CharString>
        <CharString name="acircumflex">
          1092 546 -77 callsubr
          -21 callsubr
          -321 -755 -105 callsubr
          -107 callsubr
          -106 callsubr
          -97 callsubr
        </CharString>
        <CharString name="acircumflexacute">
          49 callgsubr
          -59 -282 -65 callsubr
          -335 -778 -105 callsubr
          -107 callsubr
          -106 callsubr
          -97 callsubr
        </CharString>
        <CharString name="acircumflexdotbelow">
          1092 546 -77 callsubr
          -21 callsubr
          -321 -755 -105 callsubr
          -107 callsubr
          -106 callsubr
          31 callsubr
          167 callsubr
        </CharString>
        <CharString name="acircumflexgrave">
          50 callgsubr
          -110 -521 -65 callsubr
          -335 -778 -105 callsubr
          -107 callsubr
          -106 callsubr
          -97 callsubr
        </CharString>
        <CharString name="acircumflexhookabove">
          1092 1056 1572 rmoveto
          -79 -63 -40 -40 -39 hvcurveto
          -7 -34 rlineto
          14 23 41 14 43 hhcurveto
          59 32 -28 -41 -10 hvcurveto
          -9 -41 -37 -30 -68 -18 rrcurveto
          29 -26 130 25 75 41 17 80 rlinecurve
          78 17 -55 callgsubr
          -335 -778 -105 callsubr
          -107 callsubr
          -106 callsubr
          -97 callsubr
        </CharString>
        <CharString name="acircumflextilde">
          219 callsubr
          -437 -307 -65 callsubr
          -335 -778 -105 callsubr
          -107 callsubr
          -106 callsubr
          -97 callsubr
        </CharString>
        <CharString name="acute">
          1024 883 102 callgsubr
          endchar
        </CharString>
        <CharString name="acutecmb">
          0 371 102 callgsubr
          endchar
        </CharString>
        <CharString name="acutecmb.short">
          0 341 1343 rmoveto
          -197 -276 -67 callsubr
          endchar
        </CharString>
        <CharString name="acutedotaccentcmb">
          10 callgsubr
          206 -159 rmoveto
          32 146 -564 -197 -9 -42 rlineto
          endchar
        </CharString>
        <CharString name="acutedotaccentcmb.short">
          0 393 1760 rmoveto
          52 39 34 46 hvcurveto
          46 -1 -42 35 -53 hhcurveto
          -51 -39 -35 -46 hvcurveto
          -46 1 42 -34 52 hhcurveto
          219 -135 rmoveto
          27 124 -570 -167 -8 -35 rlineto
          endchar
        </CharString>
        <CharString name="acyrillic">
          1092 175 339 -105 callsubr
          -107 callsubr
          -106 callsubr
          -97 callsubr
        </CharString>
        <CharString name="adblgrave">
          1092 557 -46 callsubr
          9 callsubr
          -774 -753 -105 callsubr
          -107 callsubr
          -106 callsubr
          -97 callsubr
        </CharString>
        <CharString name="adieresis">
          1092 605 1163 rmoveto
          48 callsubr
          391 hmoveto
          -60 callgsubr
          50 -49 64 hvcurveto
          -821 -824 -105 callsubr
          -107 callsubr
          -106 callsubr
          -97 callsubr
        </CharString>
        <CharString name="adieresismacron">
          1092 569 1401 rmoveto
          522 hlineto
          24 109 rlineto
          -522 hlineto
          16 -405 4 callsubr
          -11 hvcurveto
          -51 -11 32 -39 52 hhcurveto
          320 hmoveto
          53 10 callsubr
          -8 hlineto
          -51 -50 -40 -52 -11 -33 callsubr
          -740 -766 -105 callsubr
          -107 callsubr
          -106 callsubr
          -97 callsubr
        </CharString>
        <CharString name="adotaccent">
          1092 800 -71 callsubr
          69 callsubr
          -625 -817 -105 callsubr
          -107 callsubr
          -106 callsubr
          -97 callsubr
        </CharString>
        <CharString name="adotbelow">
          1092 175 339 -105 callsubr
          -107 callsubr
          -106 callsubr
          31 callsubr
          167 callsubr
        </CharString>
        <CharString name="adotmacron">
          1092 567 162 callsubr
          42 42 53 54 -43 41 -54 -55 -42 -41 -54 -53 42 -42 55 hvcurveto
          -613 -766 -105 callsubr
          -107 callsubr
          -106 callsubr
          -97 callsubr
        </CharString>
        <CharString name="ae">
          1449 258 782 131 callsubr
        </CharString>
        <CharString name="aeacute">
          1449 1097 -79 callsubr
          -1097 -671 131 callsubr
        </CharString>
        <CharString name="aemacron">
          1449 716 -61 callsubr
          -487 -553 131 callsubr
        </CharString>
        <CharString name="agrave">
          1092 760 1452 rmoveto
          -237 -7 hlineto
          285 -353 rlineto
          45 hlineto
          -678 -753 -105 callsubr
          -107 callsubr
          -106 callsubr
          -97 callsubr
        </CharString>
        <CharString name="ahookabove">
          1092 840 -96 callgsubr
          -42 hvcurveto
          -7 -88 callgsubr
          67 37 99 callsubr
          -665 -1123 -105 callsubr
          -107 callsubr
          -106 callsubr
          -97 callsubr
        </CharString>
        <CharString name="ainvertedbreve">
          1092 809 148 callsubr
          36 callgsubr
          -634 -1101 -105 callsubr
          -107 callsubr
          -106 callsubr
          -97 callsubr
        </CharString>
        <CharString name="alphagreek">
          1185 462 -18 177 callsubr
        </CharString>
        <CharString name="alphatonosgreek">
          1185 880 170 callsubr
          -652 -1515 177 callsubr
        </CharString>
        <CharString name="amacron">
          1092 523 -61 callsubr
          -377 -996 -105 callsubr
          -107 callsubr
          -106 callsubr
          -97 callsubr
        </CharString>
        <CharString name="ampersand">
          1459 134 331 rmoveto
          -197 154 -156 242 167 140 92 162 148 vhcurveto
          189 -232 339 0 8 32 -82 39 -79 78 -94 115 rlinecurve
          -125 155 164 217 129 169 49 36 106 15 rlinecurve
          8 41 -387 0 -8 -41 133 -14 21 -43 -103 -148 rlinecurve
          -139 -199 -284 350 -10 12 -9 12 -10 12 rlinecurve
          262 92 120 118 137 vvcurveto
          157 -127 124 -237 -250 -150 -163 -193 -3 vhcurveto
          -1 -101 39 -102 91 -129 rrcurveto
          -251 -84 -160 -151 -212 vvcurveto
          496 873 rmoveto
          132 76 75 114 115 59 -101 -121 -134 -78 -113 -138 -73 vhcurveto
          -111 147 -37 95 93 vvcurveto
          -274 -770 rmoveto
          165 115 92 99 53 vhcurveto
          19 -26 20 -27 23 -28 328 -401 rcurveline
          -95 -92 -90 -52 -113 hhcurveto
          -173 -136 132 187 hvcurveto
          endchar
        </CharString>
        <CharString name="anoteleiagreek">
          474 417 724 rmoveto
          78 63 62 79 75 -61 60 -79 -77 -64 -61 -80 -74 61 -61 79 hvcurveto
          endchar
        </CharString>
        <CharString name="aogonek">
          1092 175 339 -105 callsubr
          -107 callsubr
          -106 callsubr
          25 24 80 callgsubr
          83 65 41 59 35 vhcurveto
          8 38 rlineto
          -18 -22 -29 -11 -31 hhcurveto
          -46 -36 32 63 105 87 112 166 145 hvcurveto
          8 41 rlineto
          -25 -30 -43 -13 -33 hhcurveto
          -46 -22 30 66 14 hvcurveto
          169 787 -124 0 -114 -99 rlineto
          57 -22 -69 60 -132 hhcurveto
          90 callgsubr
          -9 callgsubr
          endchar
        </CharString>
        <CharString name="approxequal">
          1180 984 731 rmoveto
          -164 -87 220 -191 hhcurveto
          -134 -121 -89 -218 -43 hvcurveto
          68 -2 rlineto
          163 38 92 63 96 164 87 -219 191 hhcurveto
          132 122 88 217 43 hvcurveto
          -69 hlineto
          -159 -36 -94 -64 -94 hhcurveto
          -103 -482 rmoveto
          -164 -87 219 -192 hhcurveto
          -132 -122 -88 -219 -43 hvcurveto
          68 -1 rlineto
          163 38 93 63 96 163 88 -220 191 hhcurveto
          131 122 88 218 43 hvcurveto
          -68 hlineto
          -160 -36 -95 -63 -94 hhcurveto
          endchar
        </CharString>
        <CharString name="aring">
          1092 562 1272 rmoveto
          -109 106 -62 117 159 106 122 callsubr
          -107 -44 callgsubr
          46 26 -34 -62 -97 -50 -87 -62 -47 -25 34 62 vhcurveto
          -539 -901 -105 callsubr
          -107 callsubr
          -106 callsubr
          -97 callsubr
        </CharString>
        <CharString name="aringacute">
          1092 1101 1450 rmoveto
          32 60 callsubr
          113 callgsubr
          -76 47 -130 hhcurveto
          -49 hlineto
          -129 -99 -47 -73 -15 hvcurveto
          -72 -15 77 -47 130 hhcurveto
          49 42 rmoveto
          -33 hlineto
          -44 -20 32 45 9 hvcurveto
          45 10 34 33 44 hhcurveto
          34 hlineto
          46 18 -33 -45 -9 hvcurveto
          -45 -10 -32 -32 -47 hhcurveto
          -612 -782 -105 callsubr
          -107 callsubr
          -106 callsubr
          -97 callsubr
        </CharString>
        <CharString name="aringbelow">
          1092 175 339 -105 callsubr
          -107 callsubr
          -106 callsubr
          31 callsubr
          -88 -613 rmoveto
          -97 2 108 -57 117 hhcurveto
          158 106 4 callgsubr
          62 hhcurveto
          46 27 68 callgsubr
        </CharString>
        <CharString name="asciicircum">
          1185 866 1444 rmoveto
          -530 -577 48 -45 505 536 274 -534 59 43 -284 577 rlineto
          endchar
        </CharString>
        <CharString name="asciitilde">
          1180 935 504 rmoveto
          -163 -87 220 -192 hhcurveto
          -133 -122 -89 -219 -42 hvcurveto
          68 -1 rlineto
          163 37 93 63 96 164 87 -219 191 hhcurveto
          131 122 88 217 43 hvcurveto
          -68 hlineto
          -158 -36 -94 -65 -95 hhcurveto
          endchar
        </CharString>
        <CharString name="asterisk">
          757 669 1472 rmoveto
          -54 -32 -36 -61 -16 0 -18 3 -29 hvcurveto
          23 -182 14 0 98 188 rlineto
          19 36 4 22 19 vvcurveto
          44 -31 33 -44 vhcurveto
          -283 -123 rmoveto
          -48 -29 -38 -39 -36 22 -34 68 -25 hvcurveto
          189 -65 8 12 -94 144 rlineto
          64 -41 -41 17 -34 hhcurveto
          506 -54 rmoveto
          -36 -28 -13 -44 -55 hvcurveto
          -139 -116 5 -12 195 18 rlineto
          96 7 41 35 52 vvcurveto
          42 -33 31 -46 vhcurveto
          -558 -383 rmoveto
          35 27 14 42 56 hvcurveto
          139 117 -5 14 -194 -21 rlineto
          -97 -8 -40 -35 -51 vvcurveto
          -42 32 -30 47 vhcurveto
          583 22 rmoveto
          37 -22 35 -69 22 vhcurveto
          -188 68 -8 -13 94 -145 rlineto
          -64 40 42 -17 34 hhcurveto
          47 30 38 39 hvcurveto
          -360 -201 rmoveto
          53 32 37 61 16 0 18 -3 29 hvcurveto
          -22 181 -14 0 -99 -187 rlineto
          -19 -37 -4 -21 -19 vvcurveto
          -44 32 -34 44 vhcurveto
          endchar
        </CharString>
        <CharString name="at">
          2007 1458 -308 rmoveto
          -1 41 rlineto
          -82 -130 -147 -23 -155 hhcurveto
          -408 -335 303 471 603 461 346 466 424 326 -258 -427 -390 -261 -204 -181 -67 -52 44 116 25 hvcurveto
          155 728 -77 0 -155 -136 rlineto
          95 -29 -68 58 -110 hhcurveto
          -269 -184 -312 -301 -194 82 -133 154 121 121 95 170 69 hvcurveto
          -6 -27 -5 -32 -13 vvcurveto
          -144 -16 96 -81 162 hhcurveto
          283 275 262 404 446 -352 288 -463 -499 -489 -366 -644 -492 362 -330 433 159 173 35 84 112 hvcurveto
          -552 653 rmoveto
          241 110 321 178 75 46 -51 -82 12 vhcurveto
          -78 -369 rlineto
          -133 -29 -98 -139 -106 hhcurveto
          -85 -25 92 120 hvcurveto
          endchar
        </CharString>
        <CharString name="atilde">
          1092 911 1151 rmoveto
          91 68 65 209 26 hvcurveto
          153 callsubr
          -78 callgsubr
          33 68 callsubr
          -736 -812 -105 callsubr
          -107 callsubr
          -106 callsubr
          -97 callsubr
        </CharString>
        <CharString name="austral">
          1291 84 396 rmoveto
          236 hlineto
          -78 -145 -90 -167 -40 -30 -104 -15 rlinecurve
          -8 -39 361 0 9 39 -122 17 -18 33 82 160 rlinecurve
          77 147 512 0 18 -171 13 -130 -23 -40 -131 -16 rlinecurve
          -8 -39 515 0 9 39 -90 13 -27 31 -17 142 rlinecurve
          -20 171 235 0 8 38 -248 0 -28 242 328 0 8 39 -340 0 -87 735 -125 0 -398 -735 -341 0 -8 -39 328 0 -131 -242 rlineto
          -249 hlineto
          465 281 rmoveto
          260 493 51 -493 rlineto
          -458 -281 rmoveto
          127 242 335 0 25 -242 rlineto
          endchar
        </CharString>
        <CharString name="austral.tnum">
          1202 95 434 rmoveto
          -8 -39 220 0 -73 -144 -86 -168 -41 -30 -96 -14 rlinecurve
          -8 -39 343 0 8 39 -117 16 -14 31 80 163 rlinecurve
          72 146 454 0 12 -170 9 -131 -22 -40 -122 -15 rlinecurve
          -8 -39 500 0 9 39 -81 12 -28 30 -13 144 rlinecurve
          -16 170 213 0 9 39 -225 0 -22 240 298 0 9 40 -310 0 -66 736 -131 0 -374 -736 -315 0 -9 -40 303 0 -122 -240 rlineto
          205 280 rmoveto
          240 487 34 -487 rlineto
          -412 -280 rmoveto
          119 240 296 0 17 -240 rlineto
          endchar
        </CharString>
        <CharString name="b">
          -40 callgsubr
          endchar
        </CharString>
        <CharString name="backslash">
          669 485 -291 rmoveto
          79 hlineto
          -104 1882 rlineto
          -79 hlineto
          endchar
        </CharString>
        <CharString name="baht">
          -5 callgsubr
          1 154 -130 110 -252 28 rrcurveto
          48 225 -39 0 -47 -221 rlineto
          2 -29 -32 1 -33 hhcurveto
          -453 hlineto
          -8 -39 rlineto
          113 -14 14 -23 -19 -89 -224 -1054 rcurveline
          -19 -88 -23 -24 -119 -14 -8 -39 rcurveline
          476 hlineto
          24 24 0 1 23 hvcurveto
          -47 -220 38 0 48 223 rlineto
          381 25 222 160 232 vvcurveto
          -538 919 rmoveto
          87 -4 rlineto
          33 -1 30 -4 27 -7 -120 -563 rcurveline
          -2 -14 -14 0 -15 hhcurveto
          -137 -1 rlineto
          490 323 rmoveto
          -155 -94 -129 -176 -31 vhcurveto
          117 547 rlineto
          102 -37 51 -82 -113 vvcurveto
          -499 -368 rmoveto
          135 -2 rlineto
          15 14 -1 -2 14 hvcurveto
          -139 -654 rlineto
          -29 -4 -30 -2 -32 -1 -91 -3 rcurveline
          561 377 rmoveto
          -169 -102 -146 -237 -45 vhcurveto
          136 640 rlineto
          131 -32 72 -109 -139 vvcurveto
          endchar
        </CharString>
        <CharString name="baht.tnum">
          -4 callgsubr
          154 -121 106 -236 28 vhcurveto
          47 225 -38 0 -47 -221 rlineto
          2 -29 -31 1 -31 hhcurveto
          -438 hlineto
          -8 -39 rlineto
          108 -14 14 -23 -19 -89 -224 -1054 rcurveline
          -19 -88 -21 -24 -116 -14 -9 -39 rcurveline
          466 hlineto
          21 21 0 1 21 hvcurveto
          -47 -220 39 0 47 222 rlineto
          366 25 214 161 232 vvcurveto
          -506 919 rmoveto
          81 -3 rlineto
          32 -1 30 -4 26 -7 -120 -564 rcurveline
          -2 -14 -13 0 -14 hhcurveto
          -131 -1 rlineto
          466 329 rmoveto
          -156 -89 -131 -165 -33 vhcurveto
          116 546 rlineto
          92 -38 46 -79 -109 vvcurveto
          -476 -374 rmoveto
          129 -2 rlineto
          14 14 -1 -2 13 hvcurveto
          -139 -654 rlineto
          -26 -4 -27 -2 -30 -1 -91 -3 rcurveline
          538 385 rmoveto
          -171 -100 -152 -224 -45 vhcurveto
          136 639 rlineto
          122 -33 66 -106 -132 vvcurveto
          endchar
        </CharString>
        <CharString name="bar">
          669 233 -291 rmoveto
          79 hlineto
          400 1882 rlineto
          -79 hlineto
          endchar
        </CharString>
        <CharString name="bdotaccent">
          1092 644 1623 -43 callgsubr
          480 -985 186 callsubr
          endchar
        </CharString>
        <CharString name="bdotbelow">
          -40 callgsubr
          -360 -1060 rmoveto
          67 52 51 63 hvcurveto
          61 -1 -48 46 -64 hhcurveto
          -67 -53 -50 -64 -59 50 -48 64 hvcurveto
          endchar
        </CharString>
        <CharString name="becyrillic">
          1112 1131 551 rmoveto
          229 -138 205 -247 -211 -167 -136 -207 -79 vhcurveto
          1 vlineto
          8 339 115 187 381 30 17 3 83 6 21 0 259 18 88 84 43 196 rrcurveto
          -40 hlineto
          -22 -55 -58 -19 -173 -8 rrcurveto
          -546 -21 -266 -410 -521 vvcurveto
          -324 155 -167 248 332 197 275 295 vhcurveto
          -240 95 rmoveto
          -269 -101 -345 -186 -111 -55 102 186 269 100 345 189 109 55 -103 -185 vhcurveto
          endchar
        </CharString>
        <CharString name="betagreek">
          1157 60 -460 rmoveto
          247 hlineto
          103 568 rlineto
          -72 48 110 -54 120 hhcurveto
          288 192 199 255 9 hvcurveto
          10 213 -119 179 -249 20 268 40 121 142 4 172 rrcurveto
          186 7 -140 111 -214 hhcurveto
          -265 -153 -155 -341 -74 hvcurveto
          253 113 rmoveto
          227 50 53 101 128 hhcurveto
          90 61 -71 -158 -6 hvcurveto
          -5 -187 -92 -148 -214 -4 rrcurveto
          -34 -167 195 -8 96 -107 -5 -203 rlinecurve
          -208 -4 -137 -128 -170 hhcurveto
          -88 -77 38 64 -47 hvcurveto
          32 155 168 777 6 27 rrcurveto
          endchar
        </CharString>
</ttFont>
